<?xml version="1.0" encoding="UTF-8"?>
<svg xmlns="http://www.w3.org/2000/svg"
     xmlns:xlink="http://www.w3.org/1999/xlink"
     xmlns:gadfly="http://www.gadflyjl.org/ns"
     version="1.2"
     width="160mm" height="80mm" viewBox="0 0 160 80"
     stroke="none"
     fill="#000000"
     stroke-width="0.3"
     font-size="3.88"
>
<g class="plotroot xscalable yscalable" id="fig-63fa7c68f9c04377be20337ed25232eb-element-1">
  <g font-size="3.88" font-family="'PT Sans','Helvetica Neue','Helvetica',sans-serif" fill="#564A55" stroke="#000000" stroke-opacity="0.000" id="fig-63fa7c68f9c04377be20337ed25232eb-element-2">
    <text x="88.99" y="72" text-anchor="middle">time of first observation</text>
  </g>
  <g class="guide xlabels" font-size="2.82" font-family="'PT Sans Caption','Helvetica Neue','Helvetica',sans-serif" fill="#6C606B" id="fig-63fa7c68f9c04377be20337ed25232eb-element-3">
    <text x="24.98" y="64.39" text-anchor="middle">1960</text>
    <text x="46.32" y="64.39" text-anchor="middle">1970</text>
    <text x="67.65" y="64.39" text-anchor="middle">1980</text>
    <text x="88.99" y="64.39" text-anchor="middle">1990</text>
    <text x="110.33" y="64.39" text-anchor="middle">2000</text>
    <text x="131.66" y="64.39" text-anchor="middle">2010</text>
    <text x="153" y="64.39" text-anchor="middle">2020</text>
  </g>
  <g clip-path="url(#fig-63fa7c68f9c04377be20337ed25232eb-element-5)" id="fig-63fa7c68f9c04377be20337ed25232eb-element-4">
    <g pointer-events="visible" opacity="1" fill="#000000" fill-opacity="0.000" stroke="#000000" stroke-opacity="0.000" class="guide background" id="fig-63fa7c68f9c04377be20337ed25232eb-element-6">
      <rect x="22.98" y="5" width="132.02" height="55.72"/>
    </g>
    <g class="guide ygridlines xfixed" stroke-dasharray="0.5,0.5" stroke-width="0.2" stroke="#D0D0E0" id="fig-63fa7c68f9c04377be20337ed25232eb-element-7">
      <path fill="none" d="M22.98,58.72 L 155 58.72"/>
      <path fill="none" d="M22.98,41.48 L 155 41.48"/>
      <path fill="none" d="M22.98,24.24 L 155 24.24"/>
      <path fill="none" d="M22.98,7 L 155 7"/>
    </g>
    <g class="guide xgridlines yfixed" stroke-dasharray="0.5,0.5" stroke-width="0.2" stroke="#D0D0E0" id="fig-63fa7c68f9c04377be20337ed25232eb-element-8">
      <path fill="none" d="M24.98,5 L 24.98 60.72"/>
      <path fill="none" d="M46.32,5 L 46.32 60.72"/>
      <path fill="none" d="M67.65,5 L 67.65 60.72"/>
      <path fill="none" d="M88.99,5 L 88.99 60.72"/>
      <path fill="none" d="M110.33,5 L 110.33 60.72"/>
      <path fill="none" d="M131.66,5 L 131.66 60.72"/>
      <path fill="none" d="M153,5 L 153 60.72"/>
    </g>
    <g class="plotpanel" id="fig-63fa7c68f9c04377be20337ed25232eb-element-9">
      <g class="geometry" id="fig-63fa7c68f9c04377be20337ed25232eb-element-10">
        <g class="color_AlphaColorValue{RGB{Float32},Float32}(RGB{Float32}(0.0f0,0.74736935f0,1.0f0),1.0f0)" stroke="#FFFFFF" stroke-width="0.3" fill="#00BFFF" id="fig-63fa7c68f9c04377be20337ed25232eb-element-11">
          <circle cx="110.07" cy="44.97" r="0.9"/>
          <circle cx="29.26" cy="12.08" r="0.9"/>
          <circle cx="122.57" cy="50.04" r="0.9"/>
          <circle cx="114.4" cy="46.72" r="0.9"/>
          <circle cx="69.68" cy="28.47" r="0.9"/>
          <circle cx="138.08" cy="56.34" r="0.9"/>
          <circle cx="100.21" cy="40.94" r="0.9"/>
          <circle cx="74.61" cy="30.48" r="0.9"/>
          <circle cx="95.89" cy="39.18" r="0.9"/>
          <circle cx="113.63" cy="46.41" r="0.9"/>
          <circle cx="81.77" cy="33.41" r="0.9"/>
          <circle cx="77.36" cy="31.61" r="0.9"/>
          <circle cx="74.61" cy="30.48" r="0.9"/>
          <circle cx="74.61" cy="30.48" r="0.9"/>
          <circle cx="113.43" cy="46.33" r="0.9"/>
          <circle cx="79.38" cy="32.43" r="0.9"/>
          <circle cx="137.53" cy="56.13" r="0.9"/>
          <circle cx="106.07" cy="43.33" r="0.9"/>
          <circle cx="46.33" cy="18.93" r="0.9"/>
          <circle cx="92.15" cy="37.65" r="0.9"/>
          <circle cx="61.27" cy="25.03" r="0.9"/>
          <circle cx="77.36" cy="31.61" r="0.9"/>
          <circle cx="95.67" cy="39.08" r="0.9"/>
          <circle cx="77.65" cy="31.73" r="0.9"/>
          <circle cx="98.71" cy="40.33" r="0.9"/>
          <circle cx="119.07" cy="48.61" r="0.9"/>
          <circle cx="109.95" cy="44.92" r="0.9"/>
          <circle cx="96.29" cy="39.34" r="0.9"/>
          <circle cx="139.94" cy="57.11" r="0.9"/>
          <circle cx="85.28" cy="34.83" r="0.9"/>
          <circle cx="102.14" cy="41.72" r="0.9"/>
          <circle cx="77.65" cy="31.72" r="0.9"/>
          <circle cx="77.36" cy="31.61" r="0.9"/>
          <circle cx="105.82" cy="43.24" r="0.9"/>
          <circle cx="77.65" cy="31.72" r="0.9"/>
          <circle cx="122.5" cy="50.01" r="0.9"/>
          <circle cx="106.4" cy="43.47" r="0.9"/>
          <circle cx="104.72" cy="42.79" r="0.9"/>
          <circle cx="93.62" cy="38.25" r="0.9"/>
          <circle cx="114.23" cy="46.65" r="0.9"/>
          <circle cx="77.65" cy="31.72" r="0.9"/>
          <circle cx="66.31" cy="27.09" r="0.9"/>
          <circle cx="81.92" cy="33.47" r="0.9"/>
          <circle cx="74.61" cy="30.48" r="0.9"/>
          <circle cx="92.94" cy="37.98" r="0.9"/>
          <circle cx="82.53" cy="33.72" r="0.9"/>
          <circle cx="97.13" cy="39.68" r="0.9"/>
          <circle cx="97.93" cy="40.01" r="0.9"/>
          <circle cx="130.8" cy="53.39" r="0.9"/>
          <circle cx="76.17" cy="31.12" r="0.9"/>
          <circle cx="51.47" cy="21.04" r="0.9"/>
          <circle cx="91.66" cy="37.44" r="0.9"/>
          <circle cx="29.26" cy="12.08" r="0.9"/>
          <circle cx="81.32" cy="33.22" r="0.9"/>
          <circle cx="71.53" cy="29.3" r="0.9"/>
          <circle cx="94.17" cy="38.47" r="0.9"/>
          <circle cx="89.48" cy="36.56" r="0.9"/>
          <circle cx="78.96" cy="32.26" r="0.9"/>
          <circle cx="74.61" cy="30.48" r="0.9"/>
          <circle cx="74.61" cy="30.48" r="0.9"/>
          <circle cx="77.65" cy="31.72" r="0.9"/>
          <circle cx="77.65" cy="31.72" r="0.9"/>
          <circle cx="83.15" cy="33.97" r="0.9"/>
          <circle cx="92.64" cy="37.85" r="0.9"/>
          <circle cx="53.43" cy="21.84" r="0.9"/>
          <circle cx="109.79" cy="44.85" r="0.9"/>
          <circle cx="77.65" cy="31.73" r="0.9"/>
          <circle cx="51.47" cy="21.04" r="0.9"/>
          <circle cx="106.68" cy="43.58" r="0.9"/>
          <circle cx="102.55" cy="41.9" r="0.9"/>
          <circle cx="94.07" cy="38.43" r="0.9"/>
          <circle cx="96.7" cy="39.51" r="0.9"/>
          <circle cx="143.3" cy="58.47" r="0.9"/>
          <circle cx="104.91" cy="42.86" r="0.9"/>
          <circle cx="61.27" cy="25.03" r="0.9"/>
          <circle cx="77.65" cy="31.72" r="0.9"/>
          <circle cx="77.65" cy="31.73" r="0.9"/>
          <circle cx="84.72" cy="34.61" r="0.9"/>
          <circle cx="100.74" cy="41.16" r="0.9"/>
          <circle cx="29.26" cy="12.08" r="0.9"/>
          <circle cx="77.65" cy="31.73" r="0.9"/>
          <circle cx="119.81" cy="48.91" r="0.9"/>
          <circle cx="122.97" cy="50.21" r="0.9"/>
          <circle cx="82.37" cy="33.65" r="0.9"/>
          <circle cx="107.4" cy="43.88" r="0.9"/>
          <circle cx="86.88" cy="35.49" r="0.9"/>
          <circle cx="89.48" cy="36.56" r="0.9"/>
          <circle cx="89.48" cy="36.56" r="0.9"/>
          <circle cx="122.29" cy="49.93" r="0.9"/>
          <circle cx="95.66" cy="39.08" r="0.9"/>
          <circle cx="105.61" cy="43.15" r="0.9"/>
          <circle cx="72.44" cy="29.6" r="0.9"/>
          <circle cx="89.48" cy="36.56" r="0.9"/>
          <circle cx="61.27" cy="25.03" r="0.9"/>
          <circle cx="74.52" cy="30.44" r="0.9"/>
          <circle cx="89.48" cy="36.56" r="0.9"/>
          <circle cx="85.82" cy="35.06" r="0.9"/>
          <circle cx="89.48" cy="36.56" r="0.9"/>
          <circle cx="116.58" cy="47.61" r="0.9"/>
          <circle cx="123.28" cy="50.33" r="0.9"/>
          <circle cx="78.24" cy="31.97" r="0.9"/>
          <circle cx="78.32" cy="32" r="0.9"/>
          <circle cx="46.33" cy="18.93" r="0.9"/>
          <circle cx="108.89" cy="44.48" r="0.9"/>
          <circle cx="99.39" cy="40.61" r="0.9"/>
          <circle cx="89.22" cy="36.45" r="0.9"/>
          <circle cx="111.96" cy="45.74" r="0.9"/>
          <circle cx="113.43" cy="46.33" r="0.9"/>
          <circle cx="71.91" cy="29.38" r="0.9"/>
          <circle cx="81.56" cy="33.32" r="0.9"/>
          <circle cx="79.38" cy="32.43" r="0.9"/>
          <circle cx="143.31" cy="58.47" r="0.9"/>
          <circle cx="119.88" cy="48.94" r="0.9"/>
          <circle cx="71.91" cy="29.38" r="0.9"/>
          <circle cx="89.48" cy="36.56" r="0.9"/>
          <circle cx="69.45" cy="28.38" r="0.9"/>
          <circle cx="89.48" cy="36.56" r="0.9"/>
          <circle cx="84.39" cy="34.48" r="0.9"/>
          <circle cx="107.05" cy="43.73" r="0.9"/>
          <circle cx="101.65" cy="41.54" r="0.9"/>
          <circle cx="93.71" cy="38.28" r="0.9"/>
          <circle cx="78.24" cy="31.97" r="0.9"/>
          <circle cx="46.33" cy="18.93" r="0.9"/>
          <circle cx="77.8" cy="31.79" r="0.9"/>
          <circle cx="125.98" cy="51.42" r="0.9"/>
          <circle cx="29.26" cy="12.08" r="0.9"/>
          <circle cx="51.47" cy="21.04" r="0.9"/>
          <circle cx="126.22" cy="51.52" r="0.9"/>
          <circle cx="131.38" cy="53.63" r="0.9"/>
          <circle cx="103.9" cy="42.45" r="0.9"/>
          <circle cx="94.17" cy="38.47" r="0.9"/>
          <circle cx="84.39" cy="34.48" r="0.9"/>
          <circle cx="29.26" cy="12.08" r="0.9"/>
          <circle cx="122.1" cy="49.85" r="0.9"/>
          <circle cx="128.92" cy="52.62" r="0.9"/>
          <circle cx="135.67" cy="55.38" r="0.9"/>
          <circle cx="100.05" cy="40.88" r="0.9"/>
          <circle cx="74.99" cy="30.64" r="0.9"/>
          <circle cx="101.31" cy="41.39" r="0.9"/>
          <circle cx="79.38" cy="32.43" r="0.9"/>
          <circle cx="51.47" cy="21.04" r="0.9"/>
          <circle cx="128.14" cy="52.3" r="0.9"/>
          <circle cx="100.41" cy="41.02" r="0.9"/>
          <circle cx="46.33" cy="18.93" r="0.9"/>
          <circle cx="74.61" cy="30.48" r="0.9"/>
          <circle cx="101.43" cy="41.44" r="0.9"/>
          <circle cx="93.71" cy="38.28" r="0.9"/>
          <circle cx="89.48" cy="36.56" r="0.9"/>
          <circle cx="107.62" cy="43.97" r="0.9"/>
          <circle cx="84.75" cy="34.62" r="0.9"/>
          <circle cx="46.33" cy="18.93" r="0.9"/>
          <circle cx="80.96" cy="33.07" r="0.9"/>
          <circle cx="67.66" cy="27.64" r="0.9"/>
          <circle cx="101.53" cy="41.49" r="0.9"/>
          <circle cx="86.77" cy="35.45" r="0.9"/>
          <circle cx="97.42" cy="39.8" r="0.9"/>
          <circle cx="51.47" cy="21.04" r="0.9"/>
          <circle cx="111.49" cy="45.54" r="0.9"/>
          <circle cx="88.47" cy="36.15" r="0.9"/>
          <circle cx="111.63" cy="45.6" r="0.9"/>
          <circle cx="96.7" cy="39.51" r="0.9"/>
          <circle cx="84.39" cy="34.48" r="0.9"/>
          <circle cx="77.6" cy="31.71" r="0.9"/>
          <circle cx="94.2" cy="38.48" r="0.9"/>
          <circle cx="98.45" cy="40.22" r="0.9"/>
          <circle cx="91.13" cy="37.23" r="0.9"/>
          <circle cx="103.13" cy="42.14" r="0.9"/>
          <circle cx="51.47" cy="21.04" r="0.9"/>
          <circle cx="51.47" cy="21.04" r="0.9"/>
          <circle cx="110.83" cy="45.27" r="0.9"/>
          <circle cx="67.66" cy="27.64" r="0.9"/>
          <circle cx="89.48" cy="36.56" r="0.9"/>
          <circle cx="122.17" cy="49.88" r="0.9"/>
          <circle cx="51.47" cy="21.04" r="0.9"/>
          <circle cx="89.48" cy="36.56" r="0.9"/>
          <circle cx="136.74" cy="55.81" r="0.9"/>
          <circle cx="100.77" cy="41.17" r="0.9"/>
          <circle cx="63.98" cy="26.14" r="0.9"/>
          <circle cx="105.76" cy="43.21" r="0.9"/>
          <circle cx="109.1" cy="44.57" r="0.9"/>
          <circle cx="113.46" cy="46.34" r="0.9"/>
          <circle cx="89.48" cy="36.56" r="0.9"/>
          <circle cx="89.48" cy="36.56" r="0.9"/>
          <circle cx="96.4" cy="39.38" r="0.9"/>
          <circle cx="112.28" cy="45.87" r="0.9"/>
          <circle cx="89.48" cy="36.56" r="0.9"/>
          <circle cx="79.38" cy="32.43" r="0.9"/>
          <circle cx="95.96" cy="39.21" r="0.9"/>
          <circle cx="84.71" cy="34.61" r="0.9"/>
          <circle cx="102.21" cy="41.75" r="0.9"/>
          <circle cx="125" cy="51.04" r="0.9"/>
          <circle cx="113.43" cy="46.33" r="0.9"/>
          <circle cx="89.48" cy="36.56" r="0.9"/>
          <circle cx="53.43" cy="21.83" r="0.9"/>
          <circle cx="61.27" cy="25.03" r="0.9"/>
          <circle cx="29.26" cy="12.08" r="0.9"/>
          <circle cx="95.96" cy="39.21" r="0.9"/>
          <circle cx="93.38" cy="38.15" r="0.9"/>
          <circle cx="74.99" cy="30.64" r="0.9"/>
          <circle cx="71.91" cy="29.38" r="0.9"/>
          <circle cx="133.54" cy="54.51" r="0.9"/>
          <circle cx="96.96" cy="39.61" r="0.9"/>
          <circle cx="114.85" cy="46.9" r="0.9"/>
          <circle cx="119.71" cy="48.88" r="0.9"/>
          <circle cx="140.7" cy="57.41" r="0.9"/>
          <circle cx="120.21" cy="49.08" r="0.9"/>
          <circle cx="74.61" cy="30.48" r="0.9"/>
          <circle cx="83.78" cy="34.23" r="0.9"/>
          <circle cx="112.33" cy="45.89" r="0.9"/>
          <circle cx="108.92" cy="44.49" r="0.9"/>
          <circle cx="46.33" cy="18.93" r="0.9"/>
          <circle cx="78.24" cy="31.97" r="0.9"/>
          <circle cx="51.47" cy="21.04" r="0.9"/>
          <circle cx="82.31" cy="33.63" r="0.9"/>
          <circle cx="78.24" cy="31.97" r="0.9"/>
          <circle cx="89.48" cy="36.56" r="0.9"/>
          <circle cx="124.58" cy="50.86" r="0.9"/>
          <circle cx="134.2" cy="54.77" r="0.9"/>
          <circle cx="109.32" cy="44.66" r="0.9"/>
          <circle cx="93.71" cy="38.28" r="0.9"/>
          <circle cx="84.39" cy="34.48" r="0.9"/>
          <circle cx="71.33" cy="29.14" r="0.9"/>
          <circle cx="74.61" cy="30.48" r="0.9"/>
          <circle cx="101.69" cy="41.55" r="0.9"/>
          <circle cx="84.39" cy="34.48" r="0.9"/>
          <circle cx="46.33" cy="18.93" r="0.9"/>
          <circle cx="84.39" cy="34.48" r="0.9"/>
          <circle cx="69.34" cy="28.33" r="0.9"/>
          <circle cx="29.26" cy="12.08" r="0.9"/>
          <circle cx="82.3" cy="33.63" r="0.9"/>
          <circle cx="89" cy="36.36" r="0.9"/>
          <circle cx="71.91" cy="29.38" r="0.9"/>
          <circle cx="101.45" cy="41.45" r="0.9"/>
          <circle cx="74.61" cy="30.48" r="0.9"/>
          <circle cx="79.38" cy="32.43" r="0.9"/>
          <circle cx="71.91" cy="29.38" r="0.9"/>
          <circle cx="29.26" cy="12.08" r="0.9"/>
          <circle cx="122.86" cy="50.16" r="0.9"/>
          <circle cx="71.91" cy="29.38" r="0.9"/>
          <circle cx="68.1" cy="27.82" r="0.9"/>
          <circle cx="95.86" cy="39.16" r="0.9"/>
          <circle cx="46.33" cy="18.93" r="0.9"/>
          <circle cx="84.39" cy="34.48" r="0.9"/>
          <circle cx="79.38" cy="32.43" r="0.9"/>
          <circle cx="101.98" cy="41.66" r="0.9"/>
          <circle cx="111.31" cy="45.47" r="0.9"/>
          <circle cx="84.39" cy="34.48" r="0.9"/>
          <circle cx="101.04" cy="41.28" r="0.9"/>
          <circle cx="89.48" cy="36.56" r="0.9"/>
          <circle cx="78.82" cy="32.21" r="0.9"/>
          <circle cx="89.06" cy="36.38" r="0.9"/>
          <circle cx="46.33" cy="18.93" r="0.9"/>
          <circle cx="109.22" cy="44.62" r="0.9"/>
          <circle cx="113.31" cy="46.29" r="0.9"/>
          <circle cx="76.18" cy="31.13" r="0.9"/>
          <circle cx="81.56" cy="33.32" r="0.9"/>
          <circle cx="78.24" cy="31.97" r="0.9"/>
          <circle cx="84.39" cy="34.48" r="0.9"/>
          <circle cx="143.42" cy="58.52" r="0.9"/>
          <circle cx="93.02" cy="38.01" r="0.9"/>
          <circle cx="89.48" cy="36.56" r="0.9"/>
          <circle cx="78.24" cy="31.97" r="0.9"/>
          <circle cx="134.04" cy="54.71" r="0.9"/>
          <circle cx="104.13" cy="42.54" r="0.9"/>
          <circle cx="29.26" cy="12.08" r="0.9"/>
          <circle cx="135.83" cy="55.44" r="0.9"/>
          <circle cx="61.27" cy="25.03" r="0.9"/>
          <circle cx="94.07" cy="38.43" r="0.9"/>
          <circle cx="84.39" cy="34.48" r="0.9"/>
          <circle cx="83.7" cy="34.2" r="0.9"/>
          <circle cx="79.38" cy="32.43" r="0.9"/>
          <circle cx="84.39" cy="34.48" r="0.9"/>
          <circle cx="84.39" cy="34.48" r="0.9"/>
          <circle cx="89.5" cy="36.57" r="0.9"/>
          <circle cx="106.87" cy="43.66" r="0.9"/>
          <circle cx="89.48" cy="36.56" r="0.9"/>
          <circle cx="51.47" cy="21.04" r="0.9"/>
          <circle cx="84.39" cy="34.48" r="0.9"/>
          <circle cx="61.27" cy="25.03" r="0.9"/>
          <circle cx="77.81" cy="31.8" r="0.9"/>
          <circle cx="79.38" cy="32.43" r="0.9"/>
          <circle cx="89.48" cy="36.56" r="0.9"/>
          <circle cx="84.39" cy="34.48" r="0.9"/>
          <circle cx="67.66" cy="27.64" r="0.9"/>
          <circle cx="106.58" cy="43.54" r="0.9"/>
          <circle cx="132.35" cy="54.02" r="0.9"/>
          <circle cx="93.47" cy="38.18" r="0.9"/>
          <circle cx="123.97" cy="50.61" r="0.9"/>
          <circle cx="97.93" cy="40.01" r="0.9"/>
          <circle cx="97.06" cy="39.66" r="0.9"/>
          <circle cx="74.99" cy="30.64" r="0.9"/>
          <circle cx="71.94" cy="29.39" r="0.9"/>
          <circle cx="46.33" cy="18.93" r="0.9"/>
          <circle cx="95.84" cy="39.16" r="0.9"/>
          <circle cx="99.38" cy="40.61" r="0.9"/>
          <circle cx="99.3" cy="40.57" r="0.9"/>
          <circle cx="113.42" cy="46.33" r="0.9"/>
          <circle cx="71.91" cy="29.38" r="0.9"/>
          <circle cx="110.89" cy="45.3" r="0.9"/>
          <circle cx="79.38" cy="32.43" r="0.9"/>
          <circle cx="93.79" cy="38.32" r="0.9"/>
          <circle cx="129.77" cy="52.97" r="0.9"/>
          <circle cx="89.48" cy="36.56" r="0.9"/>
          <circle cx="97.8" cy="39.96" r="0.9"/>
          <circle cx="84.71" cy="34.61" r="0.9"/>
          <circle cx="46.33" cy="18.93" r="0.9"/>
          <circle cx="139.04" cy="56.74" r="0.9"/>
          <circle cx="101" cy="41.27" r="0.9"/>
          <circle cx="46.33" cy="18.93" r="0.9"/>
          <circle cx="112.03" cy="45.77" r="0.9"/>
          <circle cx="84.87" cy="34.67" r="0.9"/>
          <circle cx="134.82" cy="55.03" r="0.9"/>
          <circle cx="46.33" cy="18.93" r="0.9"/>
          <circle cx="46.33" cy="18.93" r="0.9"/>
          <circle cx="95.71" cy="39.1" r="0.9"/>
          <circle cx="80.87" cy="33.04" r="0.9"/>
          <circle cx="61.27" cy="25.03" r="0.9"/>
          <circle cx="92.74" cy="37.89" r="0.9"/>
          <circle cx="87.65" cy="35.81" r="0.9"/>
          <circle cx="74.61" cy="30.48" r="0.9"/>
          <circle cx="84.64" cy="34.58" r="0.9"/>
          <circle cx="140.82" cy="57.46" r="0.9"/>
          <circle cx="71.94" cy="29.39" r="0.9"/>
          <circle cx="115.65" cy="47.22" r="0.9"/>
          <circle cx="74.99" cy="30.64" r="0.9"/>
          <circle cx="74.61" cy="30.48" r="0.9"/>
          <circle cx="115.43" cy="47.13" r="0.9"/>
          <circle cx="97.23" cy="39.73" r="0.9"/>
          <circle cx="77.9" cy="31.83" r="0.9"/>
          <circle cx="69.62" cy="28.44" r="0.9"/>
          <circle cx="133.95" cy="54.67" r="0.9"/>
          <circle cx="71.91" cy="29.38" r="0.9"/>
          <circle cx="103.56" cy="42.31" r="0.9"/>
          <circle cx="118.69" cy="48.46" r="0.9"/>
          <circle cx="72.81" cy="29.74" r="0.9"/>
          <circle cx="101.55" cy="41.49" r="0.9"/>
          <circle cx="89.48" cy="36.56" r="0.9"/>
          <circle cx="75.48" cy="30.84" r="0.9"/>
          <circle cx="108.32" cy="44.25" r="0.9"/>
          <circle cx="77.36" cy="31.61" r="0.9"/>
          <circle cx="139.06" cy="56.74" r="0.9"/>
          <circle cx="139.06" cy="56.74" r="0.9"/>
          <circle cx="99.22" cy="40.54" r="0.9"/>
          <circle cx="93.13" cy="38.05" r="0.9"/>
          <circle cx="79.38" cy="32.43" r="0.9"/>
          <circle cx="89.48" cy="36.56" r="0.9"/>
          <circle cx="80.87" cy="33.04" r="0.9"/>
          <circle cx="96.05" cy="39.24" r="0.9"/>
          <circle cx="71.91" cy="29.38" r="0.9"/>
          <circle cx="89.48" cy="36.56" r="0.9"/>
          <circle cx="89.48" cy="36.56" r="0.9"/>
          <circle cx="51.47" cy="21.04" r="0.9"/>
          <circle cx="81.56" cy="33.32" r="0.9"/>
          <circle cx="51.47" cy="21.04" r="0.9"/>
          <circle cx="87.75" cy="35.85" r="0.9"/>
          <circle cx="108.72" cy="44.41" r="0.9"/>
          <circle cx="89.06" cy="36.38" r="0.9"/>
          <circle cx="95.02" cy="38.82" r="0.9"/>
          <circle cx="67.66" cy="27.64" r="0.9"/>
          <circle cx="51.47" cy="21.04" r="0.9"/>
          <circle cx="51.47" cy="21.04" r="0.9"/>
          <circle cx="114.19" cy="46.63" r="0.9"/>
          <circle cx="46.33" cy="18.93" r="0.9"/>
          <circle cx="81.56" cy="33.32" r="0.9"/>
          <circle cx="79.38" cy="32.43" r="0.9"/>
          <circle cx="79.38" cy="32.43" r="0.9"/>
          <circle cx="74.61" cy="30.48" r="0.9"/>
          <circle cx="105.82" cy="43.24" r="0.9"/>
          <circle cx="127.84" cy="52.18" r="0.9"/>
          <circle cx="86.19" cy="35.21" r="0.9"/>
          <circle cx="53.43" cy="21.84" r="0.9"/>
          <circle cx="77.36" cy="31.61" r="0.9"/>
          <circle cx="82.6" cy="33.74" r="0.9"/>
          <circle cx="74.61" cy="30.48" r="0.9"/>
          <circle cx="78.89" cy="32.23" r="0.9"/>
          <circle cx="93.17" cy="38.07" r="0.9"/>
          <circle cx="114.48" cy="46.76" r="0.9"/>
          <circle cx="69.54" cy="28.41" r="0.9"/>
          <circle cx="136.53" cy="55.72" r="0.9"/>
          <circle cx="83.7" cy="34.2" r="0.9"/>
          <circle cx="106.31" cy="43.43" r="0.9"/>
          <circle cx="94.24" cy="38.5" r="0.9"/>
          <circle cx="105.21" cy="42.99" r="0.9"/>
          <circle cx="143.42" cy="58.52" r="0.9"/>
          <circle cx="93.16" cy="38.06" r="0.9"/>
          <circle cx="142.34" cy="58.08" r="0.9"/>
          <circle cx="67.66" cy="27.64" r="0.9"/>
          <circle cx="109.08" cy="44.56" r="0.9"/>
          <circle cx="96.08" cy="39.25" r="0.9"/>
          <circle cx="91.66" cy="37.44" r="0.9"/>
          <circle cx="89.48" cy="36.56" r="0.9"/>
          <circle cx="93.66" cy="38.26" r="0.9"/>
          <circle cx="109.49" cy="44.73" r="0.9"/>
          <circle cx="96.25" cy="39.33" r="0.9"/>
          <circle cx="104.88" cy="42.85" r="0.9"/>
          <circle cx="71.91" cy="29.38" r="0.9"/>
          <circle cx="93.51" cy="38.2" r="0.9"/>
          <circle cx="81.56" cy="33.32" r="0.9"/>
          <circle cx="95.37" cy="38.96" r="0.9"/>
          <circle cx="107.12" cy="43.76" r="0.9"/>
          <circle cx="71.91" cy="29.38" r="0.9"/>
          <circle cx="94.29" cy="38.53" r="0.9"/>
          <circle cx="84.71" cy="34.61" r="0.9"/>
          <circle cx="87.91" cy="35.92" r="0.9"/>
          <circle cx="125.28" cy="51.14" r="0.9"/>
          <circle cx="84.71" cy="34.61" r="0.9"/>
          <circle cx="79.38" cy="32.43" r="0.9"/>
          <circle cx="89.48" cy="36.56" r="0.9"/>
          <circle cx="99.3" cy="40.57" r="0.9"/>
          <circle cx="99.3" cy="40.57" r="0.9"/>
          <circle cx="71.91" cy="29.38" r="0.9"/>
          <circle cx="105.25" cy="43" r="0.9"/>
          <circle cx="79.38" cy="32.43" r="0.9"/>
          <circle cx="101.48" cy="41.46" r="0.9"/>
          <circle cx="128.35" cy="52.39" r="0.9"/>
          <circle cx="71.91" cy="29.38" r="0.9"/>
          <circle cx="97.42" cy="39.8" r="0.9"/>
          <circle cx="89.48" cy="36.56" r="0.9"/>
          <circle cx="103.17" cy="42.15" r="0.9"/>
          <circle cx="107.11" cy="43.76" r="0.9"/>
          <circle cx="84.71" cy="34.61" r="0.9"/>
          <circle cx="88.84" cy="36.3" r="0.9"/>
          <circle cx="81.56" cy="33.32" r="0.9"/>
          <circle cx="116.6" cy="47.62" r="0.9"/>
          <circle cx="93.71" cy="38.28" r="0.9"/>
          <circle cx="79.38" cy="32.43" r="0.9"/>
          <circle cx="77.65" cy="31.72" r="0.9"/>
          <circle cx="84.71" cy="34.61" r="0.9"/>
          <circle cx="84.91" cy="34.68" r="0.9"/>
          <circle cx="89.48" cy="36.56" r="0.9"/>
          <circle cx="53.46" cy="21.85" r="0.9"/>
          <circle cx="77.36" cy="31.61" r="0.9"/>
          <circle cx="77.65" cy="31.72" r="0.9"/>
          <circle cx="126.86" cy="51.78" r="0.9"/>
          <circle cx="77.95" cy="31.85" r="0.9"/>
          <circle cx="126.22" cy="51.52" r="0.9"/>
          <circle cx="79.38" cy="32.43" r="0.9"/>
          <circle cx="74.61" cy="30.48" r="0.9"/>
          <circle cx="71.94" cy="29.39" r="0.9"/>
          <circle cx="84.71" cy="34.61" r="0.9"/>
          <circle cx="84.75" cy="34.62" r="0.9"/>
          <circle cx="84.71" cy="34.61" r="0.9"/>
          <circle cx="84.01" cy="34.32" r="0.9"/>
          <circle cx="135.78" cy="55.42" r="0.9"/>
          <circle cx="88.35" cy="36.09" r="0.9"/>
          <circle cx="81.56" cy="33.32" r="0.9"/>
          <circle cx="97.81" cy="39.97" r="0.9"/>
          <circle cx="81.56" cy="33.32" r="0.9"/>
          <circle cx="74.61" cy="30.48" r="0.9"/>
          <circle cx="87.91" cy="35.92" r="0.9"/>
          <circle cx="125.32" cy="51.15" r="0.9"/>
          <circle cx="93.72" cy="38.29" r="0.9"/>
          <circle cx="51.47" cy="21.04" r="0.9"/>
          <circle cx="77.92" cy="31.84" r="0.9"/>
          <circle cx="84.17" cy="34.38" r="0.9"/>
          <circle cx="122.87" cy="50.17" r="0.9"/>
          <circle cx="123.34" cy="50.35" r="0.9"/>
          <circle cx="89.48" cy="36.56" r="0.9"/>
          <circle cx="89.48" cy="36.56" r="0.9"/>
          <circle cx="82.26" cy="33.61" r="0.9"/>
          <circle cx="67.66" cy="27.64" r="0.9"/>
          <circle cx="110.02" cy="44.95" r="0.9"/>
          <circle cx="97.21" cy="39.72" r="0.9"/>
          <circle cx="105.98" cy="43.3" r="0.9"/>
          <circle cx="84.39" cy="34.48" r="0.9"/>
          <circle cx="46.33" cy="18.93" r="0.9"/>
          <circle cx="127.86" cy="52.19" r="0.9"/>
          <circle cx="84.75" cy="34.62" r="0.9"/>
          <circle cx="79.38" cy="32.43" r="0.9"/>
          <circle cx="122.97" cy="50.21" r="0.9"/>
          <circle cx="71.94" cy="29.39" r="0.9"/>
          <circle cx="84.75" cy="34.62" r="0.9"/>
          <circle cx="84.75" cy="34.62" r="0.9"/>
          <circle cx="106.23" cy="43.4" r="0.9"/>
          <circle cx="92.32" cy="37.72" r="0.9"/>
          <circle cx="104.65" cy="42.76" r="0.9"/>
          <circle cx="75.95" cy="31.03" r="0.9"/>
          <circle cx="101.53" cy="41.49" r="0.9"/>
          <circle cx="79.38" cy="32.43" r="0.9"/>
          <circle cx="82.6" cy="33.74" r="0.9"/>
          <circle cx="77.94" cy="31.85" r="0.9"/>
          <circle cx="51.47" cy="21.04" r="0.9"/>
          <circle cx="93.39" cy="38.15" r="0.9"/>
          <circle cx="74.99" cy="30.64" r="0.9"/>
          <circle cx="92.71" cy="37.88" r="0.9"/>
          <circle cx="71.91" cy="29.38" r="0.9"/>
          <circle cx="51.97" cy="21.25" r="0.9"/>
          <circle cx="143.35" cy="58.49" r="0.9"/>
          <circle cx="124.73" cy="50.92" r="0.9"/>
          <circle cx="53.43" cy="21.84" r="0.9"/>
          <circle cx="124.29" cy="50.74" r="0.9"/>
          <circle cx="116.33" cy="47.51" r="0.9"/>
          <circle cx="116.16" cy="47.43" r="0.9"/>
          <circle cx="79.88" cy="32.64" r="0.9"/>
          <circle cx="92.29" cy="37.7" r="0.9"/>
          <circle cx="89.97" cy="36.76" r="0.9"/>
          <circle cx="46.33" cy="18.93" r="0.9"/>
          <circle cx="91.79" cy="37.5" r="0.9"/>
          <circle cx="61.27" cy="25.03" r="0.9"/>
          <circle cx="135.46" cy="55.29" r="0.9"/>
          <circle cx="102.39" cy="41.83" r="0.9"/>
          <circle cx="105.44" cy="43.08" r="0.9"/>
          <circle cx="113.66" cy="46.43" r="0.9"/>
          <circle cx="89.48" cy="36.56" r="0.9"/>
          <circle cx="138.25" cy="56.42" r="0.9"/>
        </g>
      </g>
    </g>
  </g>
  <g class="guide ylabels" font-size="2.82" font-family="'PT Sans Caption','Helvetica Neue','Helvetica',sans-serif" fill="#6C606B" id="fig-63fa7c68f9c04377be20337ed25232eb-element-12">
    <text x="21.98" y="58.72" text-anchor="end" dy="0.35em">0</text>
    <text x="21.98" y="41.48" text-anchor="end" dy="0.35em">5000</text>
    <text x="21.98" y="24.24" text-anchor="end" dy="0.35em">10000</text>
    <text x="21.98" y="7" text-anchor="end" dy="0.35em">15000</text>
  </g>
  <g font-size="3.88" font-family="'PT Sans','Helvetica Neue','Helvetica',sans-serif" fill="#564A55" stroke="#000000" stroke-opacity="0.000" id="fig-63fa7c68f9c04377be20337ed25232eb-element-13">
    <text x="8.81" y="30.86" text-anchor="middle" dy="0.35em" transform="rotate(-90, 8.81, 32.86)"># observations</text>
  </g>
</g>
<defs>
<clipPath id="fig-63fa7c68f9c04377be20337ed25232eb-element-5">
  <path d="M22.98,5 L 155 5 155 60.72 22.98 60.72" />
</clipPath
></defs>
</svg>
