<?xml version="1.0" encoding="UTF-8"?>
<svg xmlns="http://www.w3.org/2000/svg"
     xmlns:xlink="http://www.w3.org/1999/xlink"
     xmlns:gadfly="http://www.gadflyjl.org/ns"
     version="1.2"
     width="160mm" height="80mm" viewBox="0 0 160 80"
     stroke="none"
     fill="#000000"
     stroke-width="0.3"
     font-size="3.88"
>
<g class="plotroot xscalable yscalable" id="fig-7f3a63bc772643e8b335063f82b3747f-element-1">
  <g font-size="3.88" font-family="'PT Sans','Helvetica Neue','Helvetica',sans-serif" fill="#564A55" stroke="#000000" stroke-opacity="0.000" id="fig-7f3a63bc772643e8b335063f82b3747f-element-2">
    <text x="85.64" y="72" text-anchor="middle"># observations</text>
  </g>
  <g class="guide xlabels" font-size="2.82" font-family="'PT Sans Caption','Helvetica Neue','Helvetica',sans-serif" fill="#6C606B" id="fig-7f3a63bc772643e8b335063f82b3747f-element-3">
    <text x="18.28" y="64.39" text-anchor="middle">0</text>
    <text x="85.64" y="64.39" text-anchor="middle">500</text>
    <text x="153" y="64.39" text-anchor="middle">1000</text>
  </g>
  <g clip-path="url(#fig-7f3a63bc772643e8b335063f82b3747f-element-5)" id="fig-7f3a63bc772643e8b335063f82b3747f-element-4">
    <g pointer-events="visible" opacity="1" fill="#000000" fill-opacity="0.000" stroke="#000000" stroke-opacity="0.000" class="guide background" id="fig-7f3a63bc772643e8b335063f82b3747f-element-6">
      <rect x="16.28" y="5" width="138.72" height="55.72"/>
    </g>
    <g class="guide ygridlines xfixed" stroke-dasharray="0.5,0.5" stroke-width="0.2" stroke="#D0D0E0" id="fig-7f3a63bc772643e8b335063f82b3747f-element-7">
      <path fill="none" d="M16.28,58.72 L 155 58.72"/>
      <path fill="none" d="M16.28,50.1 L 155 50.1"/>
      <path fill="none" d="M16.28,41.48 L 155 41.48"/>
      <path fill="none" d="M16.28,32.86 L 155 32.86"/>
      <path fill="none" d="M16.28,24.24 L 155 24.24"/>
      <path fill="none" d="M16.28,15.62 L 155 15.62"/>
      <path fill="none" d="M16.28,7 L 155 7"/>
    </g>
    <g class="guide xgridlines yfixed" stroke-dasharray="0.5,0.5" stroke-width="0.2" stroke="#D0D0E0" id="fig-7f3a63bc772643e8b335063f82b3747f-element-8">
      <path fill="none" d="M18.28,5 L 18.28 60.72"/>
      <path fill="none" d="M85.64,5 L 85.64 60.72"/>
      <path fill="none" d="M153,5 L 153 60.72"/>
    </g>
    <g class="plotpanel" id="fig-7f3a63bc772643e8b335063f82b3747f-element-9">
      <g shape-rendering="crispEdges" stroke-width="0.3" id="fig-7f3a63bc772643e8b335063f82b3747f-element-10">
        <g stroke="#000000" stroke-opacity="0.000" fill="#00BFFF" class="geometry" id="fig-7f3a63bc772643e8b335063f82b3747f-element-11">
          <rect x="26.6" y="15.62" width="14.22" height="43.1"/>
          <rect x="41.82" y="50.1" width="14.22" height="8.62"/>
          <rect x="57.04" y="41.48" width="14.22" height="17.24"/>
          <rect x="72.27" y="50.1" width="14.22" height="8.62"/>
          <rect x="87.49" y="32.86" width="14.22" height="25.86"/>
          <rect x="102.71" y="41.48" width="14.22" height="17.24"/>
          <rect x="117.94" y="41.48" width="14.22" height="17.24"/>
          <rect x="133.16" y="32.86" width="14.22" height="25.86"/>
          <rect x="148.38" y="32.86" width="14.22" height="25.86"/>
          <rect x="163.6" y="32.86" width="14.22" height="25.86"/>
          <rect x="178.83" y="50.1" width="14.22" height="8.62"/>
          <rect x="194.05" y="50.1" width="14.22" height="8.62"/>
          <rect x="209.27" y="50.1" width="14.22" height="8.62"/>
          <rect x="224.49" y="50.1" width="14.22" height="8.62"/>
          <rect x="239.72" y="50.1" width="14.22" height="8.62"/>
          <rect x="254.94" y="32.86" width="14.22" height="25.86"/>
          <rect x="270.16" y="41.48" width="14.22" height="17.24"/>
          <rect x="285.39" y="32.86" width="14.22" height="25.86"/>
          <rect x="300.61" y="32.86" width="14.22" height="25.86"/>
          <rect x="315.83" y="24.24" width="14.22" height="34.48"/>
          <rect x="331.05" y="41.48" width="14.22" height="17.24"/>
          <rect x="346.28" y="-1.62" width="14.22" height="60.33"/>
          <rect x="361.5" y="32.86" width="14.22" height="25.86"/>
          <rect x="376.72" y="58.72" width="14.22" height="0.01"/>
          <rect x="391.95" y="24.24" width="14.22" height="34.48"/>
          <rect x="407.17" y="41.48" width="14.22" height="17.24"/>
          <rect x="422.39" y="58.72" width="14.22" height="0.01"/>
          <rect x="437.61" y="41.48" width="14.22" height="17.24"/>
          <rect x="452.84" y="32.86" width="14.22" height="25.86"/>
          <rect x="468.06" y="41.48" width="14.22" height="17.24"/>
          <rect x="483.28" y="24.24" width="14.22" height="34.48"/>
          <rect x="498.51" y="-10.24" width="14.22" height="68.95"/>
          <rect x="513.73" y="24.24" width="14.22" height="34.48"/>
          <rect x="528.95" y="15.62" width="14.22" height="43.1"/>
          <rect x="544.17" y="32.86" width="14.22" height="25.86"/>
          <rect x="559.4" y="-1.62" width="14.22" height="60.33"/>
          <rect x="574.62" y="32.86" width="14.22" height="25.86"/>
          <rect x="589.84" y="15.62" width="14.22" height="43.1"/>
          <rect x="605.06" y="-1.62" width="14.22" height="60.33"/>
          <rect x="620.29" y="-10.24" width="14.22" height="68.95"/>
          <rect x="635.51" y="15.62" width="14.22" height="43.1"/>
          <rect x="650.73" y="32.86" width="14.22" height="25.86"/>
          <rect x="665.96" y="32.86" width="14.22" height="25.86"/>
          <rect x="681.18" y="-44.72" width="14.22" height="103.43"/>
          <rect x="696.4" y="15.62" width="14.22" height="43.1"/>
          <rect x="711.62" y="24.24" width="14.22" height="34.48"/>
          <rect x="726.85" y="7" width="14.22" height="51.72"/>
          <rect x="742.07" y="24.24" width="14.22" height="34.48"/>
          <rect x="757.29" y="-18.86" width="14.22" height="77.57"/>
          <rect x="772.52" y="-53.33" width="14.22" height="112.05"/>
          <rect x="787.74" y="41.48" width="14.22" height="17.24"/>
          <rect x="802.96" y="-61.95" width="14.22" height="120.67"/>
          <rect x="818.18" y="-44.72" width="14.22" height="103.43"/>
          <rect x="833.41" y="15.62" width="14.22" height="43.1"/>
          <rect x="848.63" y="32.86" width="14.22" height="25.86"/>
          <rect x="863.85" y="50.1" width="14.22" height="8.62"/>
          <rect x="879.07" y="-260.19" width="14.22" height="318.91"/>
          <rect x="894.3" y="15.62" width="14.22" height="43.1"/>
          <rect x="909.52" y="41.48" width="14.22" height="17.24"/>
          <rect x="924.74" y="32.86" width="14.22" height="25.86"/>
          <rect x="939.97" y="41.48" width="14.22" height="17.24"/>
          <rect x="955.19" y="-225.72" width="14.22" height="284.43"/>
          <rect x="970.41" y="15.62" width="14.22" height="43.1"/>
          <rect x="985.63" y="-1.62" width="14.22" height="60.33"/>
          <rect x="1000.86" y="-36.1" width="14.22" height="94.81"/>
          <rect x="1016.08" y="32.86" width="14.22" height="25.86"/>
          <rect x="1031.3" y="-105.05" width="14.22" height="163.76"/>
          <rect x="1046.53" y="32.86" width="14.22" height="25.86"/>
          <rect x="1061.75" y="-165.38" width="14.22" height="224.1"/>
          <rect x="1076.97" y="7" width="14.22" height="51.72"/>
          <rect x="1092.19" y="32.86" width="14.22" height="25.86"/>
          <rect x="1107.42" y="-130.91" width="14.22" height="189.62"/>
          <rect x="1122.64" y="50.1" width="14.22" height="8.62"/>
          <rect x="1137.86" y="50.1" width="14.22" height="8.62"/>
          <rect x="1153.09" y="-113.67" width="14.22" height="172.38"/>
          <rect x="1168.31" y="50.1" width="14.22" height="8.62"/>
          <rect x="1183.53" y="58.72" width="14.22" height="0.01"/>
          <rect x="1198.75" y="15.62" width="14.22" height="43.1"/>
          <rect x="1213.98" y="50.1" width="14.22" height="8.62"/>
          <rect x="1229.2" y="7" width="14.22" height="51.72"/>
          <rect x="1244.42" y="50.1" width="14.22" height="8.62"/>
          <rect x="1259.64" y="58.72" width="14.22" height="0.01"/>
          <rect x="1274.87" y="58.72" width="14.22" height="0.01"/>
          <rect x="1290.09" y="50.1" width="14.22" height="8.62"/>
          <rect x="1305.31" y="58.72" width="14.22" height="0.01"/>
          <rect x="1320.54" y="-10.24" width="14.22" height="68.95"/>
          <rect x="1335.76" y="58.72" width="14.22" height="0.01"/>
          <rect x="1350.98" y="58.72" width="14.22" height="0.01"/>
          <rect x="1366.2" y="58.72" width="14.22" height="0.01"/>
          <rect x="1381.43" y="58.72" width="14.22" height="0.01"/>
          <rect x="1396.65" y="58.72" width="14.22" height="0.01"/>
          <rect x="1411.87" y="58.72" width="14.22" height="0.01"/>
          <rect x="1427.1" y="58.72" width="14.22" height="0.01"/>
          <rect x="1442.32" y="58.72" width="14.22" height="0.01"/>
          <rect x="1457.54" y="15.62" width="14.22" height="43.1"/>
          <rect x="1472.76" y="50.1" width="14.22" height="8.62"/>
          <rect x="1487.99" y="-79.19" width="14.22" height="137.91"/>
          <rect x="1503.21" y="58.72" width="14.22" height="0.01"/>
          <rect x="1518.43" y="58.72" width="14.22" height="0.01"/>
          <rect x="1533.66" y="58.72" width="14.22" height="0.01"/>
          <rect x="1548.88" y="58.72" width="14.22" height="0.01"/>
          <rect x="1564.1" y="-87.81" width="14.22" height="146.53"/>
          <rect x="1579.32" y="58.72" width="14.22" height="0.01"/>
          <rect x="1594.55" y="58.72" width="14.22" height="0.01"/>
          <rect x="1609.77" y="58.72" width="14.22" height="0.01"/>
          <rect x="1624.99" y="58.72" width="14.22" height="0.01"/>
          <rect x="1640.21" y="58.72" width="14.22" height="0.01"/>
          <rect x="1655.44" y="58.72" width="14.22" height="0.01"/>
          <rect x="1670.66" y="58.72" width="14.22" height="0.01"/>
          <rect x="1685.88" y="58.72" width="14.22" height="0.01"/>
          <rect x="1701.11" y="58.72" width="14.22" height="0.01"/>
          <rect x="1716.33" y="58.72" width="14.22" height="0.01"/>
          <rect x="1731.55" y="58.72" width="14.22" height="0.01"/>
          <rect x="1746.77" y="58.72" width="14.22" height="0.01"/>
          <rect x="1762" y="58.72" width="14.22" height="0.01"/>
          <rect x="1777.22" y="58.72" width="14.22" height="0.01"/>
          <rect x="1792.44" y="58.72" width="14.22" height="0.01"/>
          <rect x="1807.67" y="58.72" width="14.22" height="0.01"/>
          <rect x="1822.89" y="58.72" width="14.22" height="0.01"/>
          <rect x="1838.11" y="-18.86" width="14.22" height="77.57"/>
        </g>
      </g>
    </g>
  </g>
  <g class="guide ylabels" font-size="2.82" font-family="'PT Sans Caption','Helvetica Neue','Helvetica',sans-serif" fill="#6C606B" id="fig-7f3a63bc772643e8b335063f82b3747f-element-12">
    <text x="15.29" y="58.72" text-anchor="end" dy="0.35em">0</text>
    <text x="15.29" y="50.1" text-anchor="end" dy="0.35em">1</text>
    <text x="15.29" y="41.48" text-anchor="end" dy="0.35em">2</text>
    <text x="15.29" y="32.86" text-anchor="end" dy="0.35em">3</text>
    <text x="15.29" y="24.24" text-anchor="end" dy="0.35em">4</text>
    <text x="15.29" y="15.62" text-anchor="end" dy="0.35em">5</text>
    <text x="15.29" y="7" text-anchor="end" dy="0.35em">6</text>
  </g>
  <g font-size="3.88" font-family="'PT Sans','Helvetica Neue','Helvetica',sans-serif" fill="#564A55" stroke="#000000" stroke-opacity="0.000" id="fig-7f3a63bc772643e8b335063f82b3747f-element-13">
    <text x="8.81" y="30.86" text-anchor="middle" dy="0.35em" transform="rotate(-90, 8.81, 32.86)"># assets</text>
  </g>
</g>
<defs>
<clipPath id="fig-7f3a63bc772643e8b335063f82b3747f-element-5">
  <path d="M16.28,5 L 155 5 155 60.72 16.28 60.72" />
</clipPath
></defs>
</svg>
