<?xml version="1.0" encoding="UTF-8"?>
<svg xmlns="http://www.w3.org/2000/svg"
     xmlns:xlink="http://www.w3.org/1999/xlink"
     xmlns:gadfly="http://www.gadflyjl.org/ns"
     version="1.2"
     width="160mm" height="80mm" viewBox="0 0 160 80"
     stroke="none"
     fill="#000000"
     stroke-width="0.3"
     font-size="3.88"
>
<g class="plotroot xscalable yscalable" id="fig-6d24f89f13be46809abcaf215711fbf5-element-1">
  <g font-size="3.88" font-family="'PT Sans','Helvetica Neue','Helvetica',sans-serif" fill="#564A55" stroke="#000000" stroke-opacity="0.000" id="fig-6d24f89f13be46809abcaf215711fbf5-element-2">
    <text x="86.2" y="72" text-anchor="middle">time</text>
  </g>
  <g class="guide xlabels" font-size="2.82" font-family="'PT Sans Caption','Helvetica Neue','Helvetica',sans-serif" fill="#6C606B" id="fig-6d24f89f13be46809abcaf215711fbf5-element-3">
    <text x="19.4" y="64.39" text-anchor="middle">2000</text>
    <text x="52.8" y="64.39" text-anchor="middle">2005</text>
    <text x="86.2" y="64.39" text-anchor="middle">2010</text>
    <text x="119.6" y="64.39" text-anchor="middle">2015</text>
    <text x="153" y="64.39" text-anchor="middle">2020</text>
  </g>
  <g clip-path="url(#fig-6d24f89f13be46809abcaf215711fbf5-element-5)" id="fig-6d24f89f13be46809abcaf215711fbf5-element-4">
    <g pointer-events="visible" opacity="1" fill="#000000" fill-opacity="0.000" stroke="#000000" stroke-opacity="0.000" class="guide background" id="fig-6d24f89f13be46809abcaf215711fbf5-element-6">
      <rect x="17.4" y="5" width="137.6" height="55.72"/>
    </g>
    <g class="guide ygridlines xfixed" stroke-dasharray="0.5,0.5" stroke-width="0.2" stroke="#D0D0E0" id="fig-6d24f89f13be46809abcaf215711fbf5-element-7">
      <path fill="none" d="M17.4,58.72 L 155 58.72"/>
      <path fill="none" d="M17.4,50.1 L 155 50.1"/>
      <path fill="none" d="M17.4,41.48 L 155 41.48"/>
      <path fill="none" d="M17.4,32.86 L 155 32.86"/>
      <path fill="none" d="M17.4,24.24 L 155 24.24"/>
      <path fill="none" d="M17.4,15.62 L 155 15.62"/>
      <path fill="none" d="M17.4,7 L 155 7"/>
    </g>
    <g class="guide xgridlines yfixed" stroke-dasharray="0.5,0.5" stroke-width="0.2" stroke="#D0D0E0" id="fig-6d24f89f13be46809abcaf215711fbf5-element-8">
      <path fill="none" d="M19.4,5 L 19.4 60.72"/>
      <path fill="none" d="M52.8,5 L 52.8 60.72"/>
      <path fill="none" d="M86.2,5 L 86.2 60.72"/>
      <path fill="none" d="M119.6,5 L 119.6 60.72"/>
      <path fill="none" d="M153,5 L 153 60.72"/>
    </g>
    <g class="plotpanel" id="fig-6d24f89f13be46809abcaf215711fbf5-element-9">
      <g stroke-width="0.3" fill="#000000" fill-opacity="0.000" class="geometry" stroke="#00BFFF" id="fig-6d24f89f13be46809abcaf215711fbf5-element-10">
        <path fill="none" d="M26.61,32.08 L 26.63 32.36 26.64 32.61 26.66 32.87 26.68 33.15 26.74 32.49 26.75 32.84 26.77 33.18 26.79 33.26 26.81 33.45 26.86 33.15 26.88 33.07 26.9 33.15 26.92 33.47 26.94 33.59 27.01 32.69 27.03 32.13 27.05 31.54 27.06 31.96 27.12 32.26 27.14 31.85 27.16 32.08 27.17 31.88 27.19 32.29 27.25 32.57 27.26 32.85 27.28 32.92 27.3 33.16 27.32 33.48 27.37 31.86 27.39 27.95 27.41 28.19 27.43 27.52 27.45 28.11 27.5 27.97 27.52 28.05 27.54 27.55 27.56 27.59 27.58 28.2 27.63 28.11 27.65 28.5 27.67 27.93 27.68 27.42 27.7 28.03 27.76 28.45 27.78 28.72 27.79 27.02 27.81 27.67 27.83 25.36 27.89 25.48 27.9 26.14 27.92 25.77 27.94 26.5 28.01 26.84 28.03 27.5 28.05 27.98 28.07 26.16 28.09 26.64 28.14 27.19 28.16 27.44 28.18 27.81 28.2 28 28.21 28.59 28.27 28.76 28.29 29.32 28.31 29.51 28.32 30.05 28.34 30.04 28.4 30.11 28.41 30.6 28.43 31.07 28.45 31.46 28.47 31.89 28.52 32.13 28.54 32.51 28.56 32.88 28.58 31.13 28.6 31.57 28.65 31.98 28.67 31.72 28.69 32.12 28.71 31.81 28.72 32.2 28.8 32.17 28.82 32.37 28.83 32.01 28.85 32.32 28.91 32.67 28.93 32.97 28.94 32.83 28.96 32.82 28.98 33.09 29.04 33.13 29.05 33.22 29.07 33.55 29.09 33.4 29.11 32.7 29.16 32.99 29.18 33.24 29.2 33.55 29.22 33.63 29.24 33.53 29.29 33.52 29.31 33.71 29.33 34.01 29.35 34.2 29.36 33.94 29.42 34.22 29.44 34.15 29.47 34.41 29.49 34.06 29.55 32.45 29.56 32.7 29.58 32.41 29.6 32.79 29.62 31.65 29.67 31.98 29.69 32.03 29.71 32.17 29.73 32.47 29.75 32.75 29.8 33.06 29.82 32.54 29.84 32.1 29.86 31.83 29.87 31.97 29.93 32.37 29.95 32.74 29.97 33.02 29.98 33.33 30 33.61 30.06 33.81 30.08 33.62 30.09 33.9 30.11 33.12 30.13 33.46 30.19 33.69 30.2 33.99 30.22 34.22 30.24 34.26 30.26 34.51 30.31 33.68 30.33 33.78 30.35 33.54 30.37 33.71 30.39 33.98 30.44 33.04 30.46 33.3 30.48 32.86 30.5 32.81 30.51 32.26 30.59 32.61 30.6 32.97 30.62 33.32 30.64 32.05 30.7 31.47 30.82 31.81 30.84 26.88 30.86 27.5 30.88 27.65 30.9 26.54 30.95 26.6 30.97 25.06 30.99 25.73 31.01 26.42 31.02 26.92 31.08 26.84 31.1 27.51 31.12 27.9 31.13 27.84 31.15 28.46 31.21 29.05 31.23 29.46 31.24 29.93 31.26 29.38 31.28 29.47 31.33 29.95 31.35 30.45 31.37 30.84 31.39 30.44 31.41 30.77 31.46 31.19 31.48 31.1 31.5 31.48 31.52 31.91 31.54 31.84 31.59 32.22 31.61 31.03 31.63 30.73 31.65 31.2 31.66 30.45 31.72 30.93 31.74 30.92 31.75 30.9 31.77 31.34 31.79 31.77 31.85 32.18 31.86 32.56 31.88 32.01 31.9 32.4 31.92 32.78 31.97 33.1 31.99 33.09 32.01 33.24 32.05 33.48 32.1 33.38 32.12 33.59 32.14 33.72 32.16 32.87 32.17 32.92 32.23 33.27 32.25 33.35 32.27 33.15 32.28 32.09 32.3 32.46 32.36 32.65 32.38 32.23 32.39 32.59 32.41 32.96 32.43 32.53 32.48 32.88 32.5 32.95 32.52 33.13 32.54 33.38 32.56 33.45 32.61 33.71 32.65 34.02 32.67 34.25 32.69 34.37 32.74 34.61 32.8 34.33 32.81 34.49 32.83 34.45 32.89 34.58 32.9 34.64 32.92 34.83 32.94 34.95 32.96 35.18 33.01 34.97 33.03 35.01 33.05 35.06 33.07 34.15 33.09 34.09 33.16 33.98 33.18 34.05 33.2 34.13 33.21 34.37 33.27 34.64 33.29 34.89 33.31 32.2 33.32 32.23 33.34 32.04 33.4 32.28 33.42 30.97 33.43 31.38 33.45 31.71 33.47 32.1 33.53 31.93 33.54 31.81 33.56 32.17 33.58 32.31 33.6 32.68 33.67 32.65 33.69 31.94 33.71 31.88 33.73 31.61 33.78 31.87 33.8 31.47 33.82 31.9 33.84 32.31 33.85 32.67 33.91 31.67 33.93 31.17 33.94 31.49 33.96 31.42 33.98 31.79 34.04 32.12 34.05 32.49 34.07 32.85 34.09 32.88 34.11 33.22 34.16 33.17 34.18 33.51 34.2 33.78 34.22 33.19 34.24 33.52 34.29 33.76 34.31 33.29 34.33 33.52 34.35 33.75 34.42 34.04 34.44 34.33 34.46 34.29 34.47 34.15 34.49 34.43 34.55 34.64 34.57 34.88 34.58 34.9 34.6 34.65 34.62 32.83 34.67 33.07 34.69 33.2 34.71 32 34.73 32.39 34.75 32.76 34.8 33.12 34.82 32.67 34.84 32.91 34.86 33.08 34.88 33.41 34.93 33.06 34.95 33.06 34.97 33.06 34.99 33.18 35 33.5 35.06 33.43 35.08 32.52 35.09 32.86 35.11 29.84 35.13 29.87 35.19 29.74 35.2 29.57 35.22 29.23 35.24 29.7 35.26 30.15 35.31 30.54 35.33 30.58 35.35 30.75 35.37 31.15 35.39 31.36 35.46 31.4 35.48 31.62 35.5 31.92 35.51 32.3 35.57 32.67 35.59 31.26 35.61 31.7 35.62 31.93 35.64 31.25 35.7 31.69 35.72 32.09 35.73 31.69 35.75 32 35.77 32.08 35.82 32.45 35.84 30.79 35.86 31.26 35.88 30.98 35.9 30.96 35.95 30.68 35.97 31.13 35.99 30.85 36.01 31.3 36.03 31.01 36.08 31.47 36.1 30.7 36.12 30.08 36.15 30.51 36.21 28.34 36.23 28.63 36.24 27.99 36.26 26.5 36.28 27.11 36.34 27.7 36.35 28.3 36.37 28.22 36.39 28.78 36.41 27.89 36.46 25.88 36.48 24.88 36.5 24.55 36.52 21.36 36.54 22.29 36.59 22.88 36.61 20.46 36.63 21.46 36.65 22.33 36.66 22.09 36.72 22.32 36.74 21.71 36.76 21.64 36.77 22.13 36.79 21.82 36.85 22.76 36.87 23.62 36.88 23.79 36.9 22.64 36.92 23.38 36.97 24.25 36.99 24.32 37.01 24.84 37.03 25.41 37.05 25.88 37.1 25.76 37.12 26.42 37.14 26.79 37.16 26.88 37.18 27.57 37.25 28.2 37.27 25.7 37.28 25.99 37.3 26.29 37.36 26.57 37.38 27.11 37.39 27.69 37.41 28.33 37.43 27.73 37.49 28.35 37.5 28.95 37.52 28.7 37.54 29.23 37.56 27.94 37.61 28.55 37.63 28.74 37.65 28.7 37.67 28.16 37.69 28.19 37.74 26.85 37.76 27.14 37.78 25.37 37.8 25.24 37.81 25.82 37.87 25.73 37.89 25.86 37.91 26.17 37.92 25.65 37.94 24.67 38 23.46 38.01 24.26 38.03 22.29 38.05 22.44 38.07 22.76 38.12 23.62 38.14 24.08 38.16 24.74 38.18 25.48 38.2 25.85 38.25 26.15 38.27 26.74 38.29 27.28 38.31 27.78 38.33 28.35 38.38 28.43 38.4 28.9 38.42 29.37 38.43 29.75 38.45 29.12 38.51 29.51 38.53 29.11 38.54 29.56 38.56 30.09 38.58 29.36 38.64 29.84 38.65 30.1 38.67 30.56 38.69 30.23 38.71 29.77 38.76 30.26 38.78 30.75 38.8 30.15 38.84 29.07 38.89 29.62 38.91 30.14 38.93 30.12 38.95 30.6 38.96 30.71 39.02 31.1 39.04 30.32 39.06 30.39 39.07 30.89 39.09 31.31 39.15 31.26 39.16 30.44 39.18 30.76 39.2 30.79 39.22 31.09 39.27 31.16 39.29 31.6 39.33 31.93 39.35 32.3 39.4 31.93 39.42 32.28 39.48 32.67 39.49 30.34 39.55 30.83 39.57 30.19 39.58 30.58 39.6 30.56 39.62 30.23 39.68 30.73 39.69 31.2 39.71 31.57 39.73 31.42 39.75 31.8 39.82 31.66 39.84 31.39 39.86 31.52 39.88 31.7 39.93 29.95 39.95 29.86 39.97 30.03 39.99 30.45 40 29.71 40.06 29.89 40.08 30.35 40.1 30.36 40.11 30.77 40.13 31.13 40.19 31.3 40.21 31.61 40.22 31.84 40.24 31.78 40.26 32.19 40.33 31.42 40.35 30.95 40.37 31.27 40.39 31.47 40.44 31.48 40.46 31.01 40.48 31.35 40.5 31.31 40.52 31.43 40.57 31.82 40.59 32.06 40.61 31.77 40.62 31.96 40.64 32.1 40.7 32.32 40.72 30.86 40.73 31.14 40.75 31.55 40.77 29.38 40.83 29.93 40.84 28.06 40.86 28.65 40.88 29.1 40.9 29.66 40.95 29.15 40.97 27.24 40.99 27.66 41.01 28.24 41.03 28.84 41.08 29.34 41.1 29.2 41.12 29.47 41.14 28.7 41.15 29.23 41.21 29.77 41.23 30.29 41.25 30.78 41.26 30.75 41.28 31.13 41.34 31.53 41.36 31.06 41.37 31.42 41.39 31.44 41.46 31.3 41.48 31.73 41.5 31.01 41.52 31.31 41.54 31.56 41.59 31.45 41.61 31.13 41.63 31.56 41.65 31.98 41.67 32.38 41.72 32.16 41.74 32.5 41.76 32.68 41.77 32.96 41.79 32.96 41.85 32.73 41.87 32.65 41.88 32.98 41.9 33.29 41.92 33.43 41.98 33.73 41.99 32.02 42.01 32.41 42.03 32.75 42.05 32.88 42.12 33.23 42.14 32.46 42.16 32.83 42.18 33.13 42.23 32.84 42.25 33.16 42.27 33.44 42.29 33.07 42.3 33.37 42.36 33.67 42.38 33.45 42.4 33.52 42.41 33.32 42.43 33.65 42.49 33.59 42.5 32.42 42.52 32.8 42.54 33.15 42.56 32.71 42.61 33.08 42.63 32.76 42.65 33.11 42.67 33.21 42.69 33.2 42.74 33.2 42.76 33.52 42.78 33.64 42.8 33.52 42.87 33.59 42.89 32.81 42.91 33.14 42.92 33.36 42.94 33.06 43 33.14 43.02 33.38 43.03 33.66 43.05 33.81 43.07 33.53 43.13 33.42 43.14 33 43.16 33.09 43.18 33.43 43.2 33.56 43.25 32.95 43.27 33.28 43.29 33.42 43.31 33.72 43.33 34.01 43.38 33.88 43.4 34.16 43.42 33.28 43.44 33.61 43.45 33.76 43.51 34.02 43.53 34.29 43.55 34.21 43.56 34.32 43.58 34.44 43.64 34.7 43.65 34.64 43.67 34.87 43.69 35.08 43.71 35.28 43.76 34.99 43.78 35.22 43.8 35.4 43.82 35.61 43.84 35.64 43.91 35.72 43.93 35.07 43.95 35.23 43.96 35.44 44.02 35.42 44.04 35.2 44.06 35.08 44.07 34.65 44.09 34.8 44.15 35.03 44.17 35.18 44.18 34.59 44.2 34.79 44.22 34.37 44.28 34.59 44.29 34.14 44.31 34.3 44.33 33.22 44.35 33.42 44.4 33.58 44.42 33.6 44.44 33.5 44.46 32.36 44.48 32.73 44.53 32.85 44.55 33.15 44.57 33.43 44.59 33.64 44.6 33.89 44.66 34.18 44.68 34.29 44.7 34.51 44.71 34.74 44.73 34.95 44.79 34.7 44.8 34.86 44.82 35.09 44.84 34.33 44.86 34.57 44.91 34.72 44.93 34.95 44.95 34.31 44.97 34.58 44.99 34.83 45.04 35.02 45.06 35.01 45.08 35.09 45.1 35.3 45.11 35.37 45.17 35.46 45.19 35.48 45.21 35.68 45.22 35.29 45.24 35.5 45.3 35.39 45.32 35.38 45.33 35.17 45.35 35.13 45.37 35.01 45.43 35.23 45.44 34.41 45.46 34.67 45.5 34.86 45.55 35.09 45.57 34.81 45.59 35 45.61 35.21 45.63 35.34 45.68 35.25 45.7 35.24 45.72 35.1 45.74 35.31 45.75 34.98 45.81 35.19 45.83 35.24 45.84 35.28 45.86 35.49 45.88 35.1 45.94 35.32 45.95 35.47 45.97 35.64 46.01 35.81 46.06 35.98 46.08 35.43 46.1 35.64 46.16 35.81 46.21 35.93 46.23 35.39 46.25 35.6 46.26 35.77 46.28 35.85 46.34 35.59 46.36 35.69 46.37 35.71 46.39 35.59 46.41 35.78 46.48 35.75 46.5 35.92 46.52 35.81 46.54 35.93 46.59 36.07 46.61 35.53 46.63 35.24 46.65 34.61 46.67 34.77 46.72 34.98 46.74 35.16 46.76 35.38 46.78 35.23 46.79 35.44 46.85 34.98 46.87 35.17 46.89 35.3 46.9 35.04 46.92 35.14 46.99 35.21 47.01 35.04 47.03 35.16 47.05 35.29 47.1 35.46 47.12 35.62 47.14 35.79 47.16 35.9 47.18 36.07 47.23 36.24 47.25 35.93 47.27 35.89 47.29 36.05 47.31 36.17 47.36 36.32 47.38 36.03 47.4 35.99 47.41 35.06 47.43 34.28 47.49 34.01 47.51 33.53 47.52 33.75 47.54 33.61 47.56 33.91 47.62 33.73 47.63 33.42 47.65 33.73 47.67 34.01 47.69 33.42 47.74 33.74 47.76 33.5 47.78 33.78 47.8 34.07 47.82 34.27 47.87 34.29 47.89 34.36 47.91 34.61 47.93 34.66 48 34.9 48.02 35.04 48.04 34.43 48.05 34.68 48.07 34.93 48.13 35.07 48.14 35.29 48.16 34.42 48.18 34.59 48.2 34.13 48.25 34.41 48.27 34.58 48.29 34.82 48.31 34.25 48.33 34.28 48.38 34.4 48.4 34.37 48.42 34.63 48.44 34.87 48.45 34.89 48.51 34.31 48.53 34.13 48.55 34.21 48.56 34.49 48.58 34.74 48.64 34.98 48.66 34.7 48.67 34.78 48.69 34.99 48.71 35.22 48.77 35.37 48.78 35.57 48.8 34.69 48.82 34.93 48.84 35.04 48.91 35.27 48.93 35.48 48.95 35.64 48.97 35.53 49.02 35.61 49.04 34.73 49.06 34.97 49.08 34.79 49.15 34.96 49.17 34.74 49.18 34.86 49.2 35.09 49.22 35.31 49.28 35.49 49.29 35.59 49.31 35.74 49.33 35.59 49.35 35.73 49.4 35.74 49.42 35.92 49.44 36.07 49.46 36.16 49.48 35.69 49.55 35.81 49.57 35.62 49.59 35.81 49.6 35.61 49.66 35.76 49.68 35.94 49.7 36.11 49.71 36.19 49.73 36.23 49.79 36.23 49.81 36.38 49.82 36.26 49.84 35.42 49.86 35.6 49.91 35.31 49.93 35.49 49.95 35.27 49.97 35.48 49.99 35.6 50.04 35.79 50.06 35.89 50.08 35.83 50.1 36 50.12 34.83 50.17 34.07 50.19 34.35 50.21 34.03 50.23 34.28 50.24 34 50.3 34.29 50.32 33.92 50.33 34.2 50.35 33.95 50.37 34.18 50.43 34.32 50.44 34.56 50.46 34.81 50.48 34.81 50.5 35.05 50.55 35.26 50.57 35.17 50.59 35.31 50.61 35.52 50.63 35.18 50.7 35.3 50.72 35.32 50.74 35.42 50.75 35.61 50.81 35.7 50.83 35.88 50.85 36.04 50.86 35.91 50.88 36.05 50.94 36.12 50.96 36.08 50.97 36.05 50.99 35.19 51.01 35.29 51.06 35.5 51.08 35.51 51.1 35.56 51.12 35.68 51.14 35.87 51.19 35.02 51.21 35.21 51.23 35.43 51.25 35.44 51.27 35.15 51.32 35.09 51.34 35.3 51.36 35.48 51.38 35.4 51.39 35.17 51.45 35.31 51.47 35.42 51.48 35.15 51.5 35.37 51.52 35.56 51.58 35.27 51.59 35.47 51.61 34.76 51.63 34.38 51.65 34.64 51.7 34.88 51.72 35.11 51.74 35.34 51.76 35.03 51.78 34.26 51.83 34.49 51.85 34.74 51.87 34.98 51.89 35.21 51.9 35.09 51.96 34.98 51.98 35.21 52 35.18 52.01 35.28 52.03 35.48 52.09 35.07 52.11 35.16 52.12 35.38 52.16 35.52 52.21 35.72 52.23 35.83 52.25 35.91 52.27 35.08 52.29 35.3 52.34 35.51 52.36 35.7 52.38 35.25 52.4 35.38 52.42 35.46 52.47 35.66 52.49 35.49 52.51 35.63 52.52 35.81 52.54 35.96 52.6 35.8 52.62 35.98 52.63 35.76 52.65 35.9 52.73 36.07 52.74 36.12 52.76 36.03 52.78 36.19 52.8 36.35 52.85 36.48 52.87 36.19 52.89 35.57 52.91 35.69 52.93 35.83 52.98 35.99 53 36.11 53.02 36.04 53.04 36.13 53.05 35.85 53.13 35.87 53.15 35.61 53.16 35.33 53.18 35.23 53.24 35.24 53.26 35.38 53.27 35.53 53.29 35.63 53.31 35.82 53.36 35.95 53.38 35.78 53.4 35.75 53.42 35.9 53.44 36.02 53.49 35.61 53.51 35.79 53.53 35.97 53.55 35.72 53.57 35.83 53.62 35.79 53.64 35.97 53.66 36.1 53.67 36.26 53.69 36.02 53.77 36.19 53.78 35.22 53.8 35.31 53.82 35.26 53.88 35.12 53.89 35.14 53.91 35.24 53.93 35.45 53.95 35.65 54 35.43 54.02 35.61 54.04 35.67 54.06 35.32 54.08 35.52 54.13 35.41 54.15 35.49 54.17 35.39 54.19 35.26 54.2 35.47 54.26 35.66 54.28 35.71 54.3 35.35 54.31 35.56 54.39 35.75 54.4 35.91 54.42 35.75 54.44 35.1 54.46 35.32 54.51 35.31 54.53 35.5 54.55 35.61 54.57 35.79 54.59 35.81 54.64 35.61 54.66 35.8 54.68 35.84 54.7 35.29 54.72 35.02 54.77 34.06 54.79 34.32 54.81 34.47 54.82 34.02 54.84 33.06 54.9 33.24 54.92 33.35 54.93 33.4 54.95 33.68 54.97 33.51 55.03 33.38 55.04 33.65 55.06 33.95 55.08 33.73 55.1 34.01 55.15 34.29 55.17 34.42 55.19 34.21 55.21 34.43 55.23 34.27 55.28 34.45 55.3 34.35 55.32 34.45 55.34 34.36 55.35 34.55 55.41 34.8 55.43 34.99 55.45 35.22 55.46 35.37 55.48 35.41 55.55 35.61 55.57 35.6 55.59 35.44 55.61 35.63 55.66 35.56 55.68 35.76 55.7 35.94 55.72 36.08 55.74 36.11 55.79 36.23 55.81 36.36 55.83 36.48 55.85 36.6 55.87 36.66 55.92 36.65 55.94 36.77 55.96 36.85 55.97 36.96 55.99 36.26 56.05 36.05 56.07 36.21 56.08 35.95 56.1 36.1 56.12 35.96 56.19 36.1 56.21 35.88 56.23 35.67 56.25 35.83 56.3 35.39 56.32 35.44 56.34 35.62 56.36 35.81 56.38 35.97 56.43 36.14 56.45 36.1 56.47 36.04 56.49 36.1 56.5 36 56.56 36.03 56.58 36.1 56.6 36.25 56.61 36.31 56.63 36.3 56.69 36.08 56.7 36.24 56.72 36.14 56.74 36.3 56.76 36.1 56.81 35.92 56.83 36.04 56.85 35.99 56.87 36.13 56.89 36.05 56.94 35.99 56.96 36.13 56.98 35.52 57 35.71 57.01 35.89 57.07 36.07 57.09 36.22 57.11 36.29 57.12 36.17 57.14 36.3 57.2 36.22 57.22 36.2 57.23 36.28 57.25 35.94 57.27 36.11 57.34 36.21 57.36 35.59 57.38 35.76 57.4 35.85 57.45 35.74 57.47 35.92 57.49 35.76 57.51 35.88 57.53 36.05 57.58 35.89 57.6 35.88 57.62 35.7 57.64 35.44 57.65 35.59 57.71 35.79 57.73 35.97 57.74 36.14 57.76 36.3 57.78 36.05 57.84 36.21 57.85 36.34 57.87 35.89 57.89 34.95 57.91 35.09 57.96 35.27 57.98 35.22 58 35.41 58.02 35.42 58.04 35.62 58.09 35.51 58.11 35.67 58.13 35.33 58.15 34.64 58.16 33.97 58.22 34.25 58.24 33.58 58.26 33.87 58.27 34.08 58.29 33.93 58.35 33.34 58.37 33.52 58.38 33.78 58.4 33.76 58.42 34.01 58.47 34.3 58.49 34.56 58.51 34.76 58.53 34.99 58.55 34.95 58.6 35.15 58.62 35.36 58.64 35.49 58.66 35.68 58.68 35.47 58.73 35.6 58.75 35.67 58.77 35.75 58.8 35.89 58.86 36.05 58.88 35.79 58.89 35.97 58.91 35.9 58.93 35.39 58.99 35.6 59 35.76 59.02 35.94 59.04 35.95 59.06 36.11 59.11 36.24 59.13 36.39 59.15 36.38 59.17 36.43 59.19 36.55 59.24 36.62 59.26 36.51 59.28 36.64 59.3 36.74 59.31 36.76 59.39 36.88 59.41 36.36 59.42 36.5 59.44 36.56 59.53 36.52 59.55 35.32 59.57 35.48 59.59 35.68 59.64 35.48 59.66 35.63 59.68 35.82 59.7 35.95 59.72 35.88 59.79 36.05 59.81 36.13 59.83 36.19 59.84 36.19 59.9 34.67 59.92 34.91 59.94 35.13 59.95 35.33 59.97 35.32 60.03 35.28 60.04 35.49 60.06 35.6 60.08 35.78 60.1 35.52 60.15 35.56 60.17 35.75 60.19 35.58 60.21 35.44 60.23 35.63 60.28 35.8 60.3 35.91 60.32 35.61 60.34 35.76 60.35 35.7 60.43 35.87 60.45 35.97 60.46 35.88 60.48 35.96 60.54 36.13 60.56 36.23 60.57 35.75 60.59 35.63 60.61 35.8 60.67 35.96 60.68 35.85 60.7 36 60.72 36.15 60.74 36.15 60.79 36.06 60.81 36.2 60.83 35.82 60.85 35.92 60.87 36.09 60.92 36.24 60.94 36.37 60.96 36.28 60.98 36.25 60.99 36.35 61.05 36.49 61.07 36.61 61.08 36.45 61.1 36.3 61.12 36.41 61.18 36.43 61.19 36.55 61.21 36.47 61.23 36.52 61.25 36.62 61.3 36.06 61.32 36.23 61.34 36.01 61.36 36.17 61.43 36.33 61.45 36.41 61.47 35.16 61.49 35.36 61.5 35.57 61.56 35.76 61.58 35.91 61.6 35.93 61.61 36.08 61.63 36.19 61.69 36.35 61.71 36.37 61.72 36.32 61.74 36.36 61.76 36.46 61.82 36.04 61.83 36.2 61.85 36.36 61.87 36.48 61.89 35.65 61.94 35.2 61.96 35.39 61.98 35.58 62 34.46 62.02 34.52 62.07 34.72 62.09 34.89 62.11 35.03 62.13 35.25 62.14 34.94 62.22 35.05 62.23 34.2 62.25 34.25 62.27 34 62.33 34.28 62.34 33.36 62.36 33.68 62.38 33.84 62.4 34.14 62.45 34.33 62.47 34.03 62.49 33.83 62.51 34.05 62.53 32.91 62.58 33.21 62.6 33.25 62.62 33.58 62.64 33.6 62.65 33.8 62.71 34.09 62.73 34.3 62.75 34.23 62.76 34.41 62.78 33.13 62.84 33.45 62.87 33.58 62.89 33.7 62.91 33.99 62.96 34.09 62.98 34.37 63 34.58 63.02 34.34 63.04 33.93 63.09 34.12 63.11 34.39 63.13 34.65 63.15 33.69 63.17 33.72 63.22 33.83 63.24 33.25 63.26 33.47 63.28 33.78 63.29 34.01 63.35 33.81 63.37 34.1 63.38 34.29 63.4 34.48 63.42 34.73 63.48 34.97 63.49 35.16 63.51 35.31 63.53 35.42 63.55 35.54 63.6 35.64 63.62 35.83 63.64 35.17 63.66 35.15 63.68 35.37 63.73 35.52 63.75 35.64 63.77 35.83 63.79 35.89 63.8 36.04 63.86 36.2 63.88 36.23 63.9 36.37 63.91 36.51 63.93 36.63 64.01 36.59 64.02 36.71 64.04 36.19 64.06 36.19 64.11 36.28 64.13 36.43 64.15 36.01 64.17 36.11 64.19 36.26 64.24 36.38 64.26 36.52 64.28 36.6 64.3 36.55 64.32 36.48 64.37 36.56 64.39 36.27 64.41 36.14 64.43 36.3 64.44 36.44 64.5 36.53 64.52 36.58 64.53 36.69 64.55 36.02 64.57 36.17 64.63 36.27 64.64 36.42 64.66 36.55 64.68 36.63 64.7 36.25 64.75 36.39 64.77 36.5 64.79 36.54 64.81 36.67 64.83 36.79 64.88 36.9 64.9 36.79 64.92 36.9 64.94 36.94 64.95 36.9 65.01 36.5 65.03 36.64 65.05 36.76 65.06 36.5 65.08 36.63 65.14 36.71 65.16 36.12 65.17 36.27 65.19 36.4 65.21 36.35 65.26 36.48 65.28 36.59 65.3 36.5 65.32 36.61 65.34 36.72 65.39 36.83 65.41 36.94 65.43 37.03 65.47 37.11 65.52 37.08 65.54 35.97 65.56 36.09 65.57 35.84 65.59 36.02 65.65 36.13 65.67 35.9 65.68 36.01 65.7 36.16 65.72 36.21 65.78 36.35 65.79 36.48 65.81 36.6 65.83 36.73 65.85 36.42 65.9 36.56 65.92 36.61 65.94 36.72 65.96 36.82 65.98 36.82 66.05 36.72 66.07 36.74 66.09 36.58 66.1 36.68 66.21 36.65 66.23 36.76 66.25 36.88 66.3 36.71 66.32 36.81 66.34 36.91 66.36 37 66.38 36.86 66.45 36.84 66.47 36.95 66.49 37.04 66.51 37.06 66.56 37.11 66.58 36.97 66.6 37 66.62 36.66 66.63 35.99 66.69 36.14 66.71 36.29 66.72 36.27 66.74 36.21 66.76 36.22 66.82 36.37 66.83 36.5 66.85 36.63 66.87 36.75 66.89 36.86 66.94 36.6 66.96 36.65 66.98 36.45 67 36.28 67.02 36.43 67.09 36.56 67.11 36.65 67.13 36.76 67.14 36.87 67.2 36.87 67.22 36.96 67.24 32.06 67.25 32.38 67.27 32.74 67.33 32.68 67.35 32.75 67.36 32.44 67.38 32.8 67.4 33.01 67.45 33.36 67.47 33.67 67.49 32.58 67.51 32.83 67.53 33.15 67.58 33.43 67.6 33.39 67.62 33.59 67.64 33.01 67.66 33.35 67.71 33.68 67.73 33.99 67.75 34.12 67.77 34.14 67.78 34.38 67.84 34.63 67.86 34.87 67.87 34.78 67.89 35.02 67.97 35.21 67.98 35.43 68 35.61 68.02 35.57 68.04 35.6 68.09 35.74 68.11 35.42 68.13 35.61 68.15 35.8 68.17 35.97 68.22 35.73 68.24 35.88 68.26 36.05 68.28 35.73 68.29 35.9 68.35 36.08 68.37 35.88 68.39 36.03 68.4 35.99 68.42 36.08 68.48 36.22 68.5 36.35 68.51 36.48 68.53 36.57 68.55 35.56 68.6 35.35 68.62 35.54 68.64 35.72 68.66 35.57 68.68 35.76 68.73 35.75 68.75 35.93 68.77 36.09 68.79 36.24 68.81 35.84 68.88 35.88 68.9 36.05 68.91 35.91 68.93 36.08 68.99 36.18 69.01 36.33 69.02 36.28 69.04 35.96 69.06 34.62 69.12 34.4 69.13 34.67 69.15 34.42 69.17 33.88 69.19 34.11 69.24 34.25 69.26 34.51 69.28 34.77 69.3 34.22 69.32 34.37 69.37 33.97 69.39 34.21 69.41 34.44 69.43 34.42 69.44 34.68 69.5 34.91 69.52 34.71 69.55 34.91 69.57 35.15 69.63 35.33 69.64 35.54 69.66 34.77 69.68 34.9 69.7 33.81 69.75 34.09 69.77 34.35 69.79 34.62 69.81 34.85 69.83 35.02 69.88 34.57 69.9 34.75 69.92 33.46 69.94 33.71 69.96 32.23 70.01 31.86 70.03 32.01 70.05 31.94 70.06 32.21 70.08 32.56 70.14 30.94 70.16 30.12 70.17 30.55 70.19 30.6 70.21 29.06 70.27 29.62 70.28 30.15 70.3 29.88 70.32 29.95 70.34 30.45 70.39 29.67 70.41 30.2 70.43 30.7 70.45 30.87 70.47 31.33 70.52 31.45 70.54 31.68 70.56 30.64 70.58 30.08 70.59 30.54 70.67 30.75 70.69 30.98 70.7 31.09 70.72 31.5 70.78 31.16 70.79 31.6 70.81 31.57 70.83 32 70.85 32.22 70.9 32.61 70.92 32.89 70.94 31.04 70.96 31.41 70.98 31.71 71.03 32.08 71.05 32.39 71.07 32.77 71.09 33.05 71.11 33.35 71.16 33.64 71.18 33.4 71.2 33.72 71.21 33.94 71.23 34.22 71.29 34.18 71.31 34.41 71.32 34.45 71.34 34.69 71.36 34.81 71.42 34.97 71.43 34.87 71.45 34.9 71.47 35.13 71.49 35.35 71.54 32.98 71.56 33.29 71.58 33.39 71.6 33.68 71.62 33.98 71.67 33.65 71.69 33.92 71.71 34.04 71.73 33.85 71.74 31.88 71.8 32.29 71.82 32.59 71.84 32.56 71.85 30.56 71.87 31.04 71.93 30.96 71.94 31.15 71.96 29.75 71.98 30.15 72 30.24 72.05 30.68 72.07 30.4 72.09 30.85 72.13 30.67 72.18 30.52 72.2 29.73 72.22 29.8 72.24 28.74 72.25 29.32 72.31 29.75 72.33 30.19 72.35 30.58 72.36 30.56 72.38 30.54 72.44 31.02 72.46 31.35 72.47 30.17 72.49 30.6 72.51 31.08 72.57 31.04 72.58 30.9 72.6 31.28 72.62 31.72 72.64 32.08 72.69 31.77 72.73 32.02 72.75 32.42 72.77 32.18 72.82 32.57 72.88 32.78 72.89 32.47 72.91 32.85 72.97 31.42 72.99 31.84 73 31.31 73.02 31.32 73.04 31.61 73.09 31.52 73.11 31.66 73.13 30.46 73.15 30.86 73.17 29.34 73.24 29.8 73.26 30.03 73.28 29.6 73.3 29.93 73.35 29.86 73.37 29.75 73.39 30.2 73.4 30.64 73.42 30.5 73.48 30.66 73.5 30.85 73.51 28.95 73.53 29.39 73.55 29.82 73.61 30.29 73.62 30.72 73.64 31.08 73.66 31.11 73.68 31.08 73.75 31.53 73.77 31.96 73.79 32.19 73.81 32.08 73.86 32.32 73.88 32.2 73.9 32.47 73.92 32.84 73.93 32.93 73.99 31.14 74.01 31.59 74.03 31.97 74.04 32.31 74.06 31.32 74.12 31.56 74.13 31.33 74.15 28.87 74.17 29.27 74.19 29.77 74.24 29.33 74.26 29.69 74.28 27.01 74.3 26.63 74.37 26.43 74.39 26.77 74.41 27.46 74.43 27.95 74.45 28.31 74.5 28.78 74.52 29.3 74.54 27.53 74.55 28.17 74.57 28.78 74.63 29.36 74.65 29.9 74.66 30.35 74.68 30.67 74.7 31.11 74.76 30.51 74.77 30.96 74.79 31.37 74.81 30.62 74.83 31.1 74.88 30.8 74.9 31.26 74.92 31.48 74.94 31.9 74.96 32.2 75.01 32.49 75.03 32.86 75.05 33.15 75.07 33.43 75.08 32.87 75.14 33.2 75.16 33.45 75.18 33.6 75.19 32.79 75.21 33.11 75.27 33.29 75.28 33.25 75.3 33.58 75.32 33.85 75.34 33.79 75.39 34.08 75.41 34.37 75.43 34.27 75.45 33.56 75.47 33.86 75.54 33.51 75.56 33.68 75.58 33.95 75.59 34.15 75.65 34.42 75.67 34.23 75.69 34.36 75.7 34.62 75.72 33.55 75.78 31.01 75.8 31.46 75.81 31.87 75.83 31.48 75.85 31.89 75.91 31.73 75.92 32.15 75.94 32.39 75.96 32.47 75.98 32.82 76.03 32.11 76.05 32.51 76.07 32.85 76.09 33.11 76.11 30.94 76.16 31.36 76.18 31.8 76.2 32.18 76.22 31.62 76.29 32.04 76.31 32.22 76.33 31.85 76.34 30.87 76.36 31.22 76.42 31.33 76.43 31.54 76.45 31.63 76.47 30.58 76.49 30.75 76.54 31.22 76.56 31.66 76.58 31.64 76.6 32.02 76.62 30.96 76.67 31.39 76.69 30.91 76.71 30.17 76.73 30.09 76.74 30.18 76.8 30.6 76.82 30.87 76.84 29.57 76.85 30.09 76.87 29.84 76.93 29.23 76.95 29.69 76.96 29.88 76.98 30.38 77 30.81 77.06 31.24 77.07 31.08 77.09 31.29 77.11 31.65 77.13 32.06 77.18 32.13 77.2 31.43 77.22 31.84 77.24 32.09 77.26 31.92 77.33 31.78 77.35 32.14 77.37 32.52 77.38 30.45 77.44 30.9 77.46 30.42 77.47 28.35 77.49 28.89 77.51 29.1 77.57 29.66 77.58 25.91 77.6 26.18 77.62 23.44 77.64 22.03 77.69 21.12 77.71 20.32 77.73 21.05 77.75 22.04 77.77 22.52 77.82 23.42 77.84 15.12 77.86 14.02 77.88 15.36 77.89 15.11 77.95 16.23 77.97 16.01 77.99 14.11 78 15.34 78.02 11.34 78.08 12.73 78.1 5.56 78.11 7.35 78.13 3.25 78.15 4.13 78.2 5.99 78.22 6.37 78.24 7.46 78.26 6.46 78.28 8.12 78.33 8.9 78.35 9.76 78.37 4.3 78.39 6.09 78.41 7.45 78.46 9.01 78.48 10.63 78.5 10.97 78.52 10.24 78.53 9.8 78.59 10.79 78.61 12.19 78.62 13.23 78.64 12.28 78.66 10.29 78.72 10.46 78.73 11.47 78.75 12.9 78.77 11.11 78.79 8.99 78.84 7.99 78.86 7 78.88 8.71 78.92 9.5 78.97 11.04 78.99 6.29 79.01 7.05 79.03 8.35 79.04 9.36 79.1 10.04 79.12 10.57 79.14 11.68 79.15 13.06 79.17 13.76 79.23 15.1 79.25 16.25 79.26 15.22 79.28 16.43 79.3 17.21 79.35 18.4 79.37 19.16 79.39 20.14 79.43 21.15 79.48 22.1 79.5 23.02 79.52 23.16 79.56 23.79 79.61 23.36 79.63 24.19 79.65 24.94 79.67 24.35 79.68 25.15 79.74 25.2 79.76 25.17 79.77 25.94 79.79 24.87 79.81 25.65 79.88 26.32 79.9 22.75 79.92 21.44 79.94 22.11 79.99 23.02 80.01 23.87 80.03 24.56 80.05 23.86 80.07 23.14 80.12 23.29 80.14 24.17 80.16 24.66 80.18 25.37 80.19 25.74 80.25 25.43 80.27 26.19 80.29 23.18 80.3 23.98 80.32 24.81 80.4 25.44 80.41 23.08 80.43 23.96 80.45 24.58 80.5 25.18 80.52 24.11 80.54 22.89 80.56 23.62 80.58 24.11 80.63 24.12 80.65 21.92 80.67 22.81 80.69 23.01 80.71 21.49 80.76 22.46 80.78 23.23 80.8 19.61 80.81 20.68 80.83 19.92 80.89 20.91 80.91 21.89 80.92 21.65 80.94 22.1 80.96 22.81 81.02 23.17 81.03 18.67 81.05 19.32 81.07 20.31 81.09 20.75 81.14 21.25 81.16 20.73 81.18 21.55 81.2 22.2 81.22 22.15 81.27 22.98 81.29 23.76 81.31 23.79 81.33 24.45 81.4 23.38 81.42 24.24 81.44 24.45 81.45 25.05 81.47 25.49 81.53 26.21 81.55 24.03 81.56 24.26 81.58 24.99 81.6 25.64 81.65 25.97 81.67 26.52 81.69 27.21 81.71 27.11 81.73 27.77 81.78 28.36 81.8 27.01 81.82 27.66 81.84 27.78 81.86 28.07 81.91 27.69 81.93 27.45 81.95 28.1 81.96 27.33 81.98 27.82 82.04 28.19 82.06 27.22 82.07 27.88 82.09 28.45 82.11 28.47 82.18 29.06 82.2 28.34 82.22 28.22 82.24 28.41 82.29 28.68 82.31 28.06 82.33 28.67 82.35 28.86 82.37 29.19 82.42 29.73 82.44 30.25 82.46 30.73 82.48 31.16 82.49 31.53 82.55 31.95 82.57 30.83 82.59 30.88 82.6 31.33 82.62 31.61 82.68 32.01 82.69 29.99 82.71 30.5 82.73 30.89 82.75 30.34 82.8 30.82 82.82 31.11 82.84 31.36 82.86 31.75 82.93 30 82.95 30.5 82.97 30.06 82.99 30.56 83.01 31.01 83.06 31.42 83.08 30.43 83.1 30.86 83.11 29.46 83.13 29.86 83.19 30.38 83.21 30.59 83.22 31.05 83.24 31.5 83.26 30.66 83.32 31.12 83.33 31.56 83.35 31.96 83.37 32.3 83.39 32.31 83.44 32.69 83.46 32.41 83.48 32.77 83.5 33.09 83.52 33.32 83.57 33.1 83.59 33.4 83.61 33.16 83.63 33.1 83.64 33.31 83.7 33.37 83.72 31.85 83.74 32 83.75 32.29 83.77 32.36 83.83 31.83 83.84 32.24 83.86 32.62 83.88 32.99 83.9 33.32 83.95 33.63 83.97 33.69 83.99 32.37 84.01 32.71 84.03 32.87 84.1 32.74 84.12 32.88 84.14 33.07 84.15 33.09 84.21 33.42 84.23 33.63 84.25 33.91 84.26 33.44 84.28 33.73 84.34 34.01 84.36 34.25 84.37 34.38 84.39 34.22 84.41 34.13 84.47 34.25 84.48 33.46 84.5 33.76 84.52 34.01 84.54 32.09 84.59 32.42 84.61 32.21 84.63 32.11 84.65 32.49 84.67 32.72 84.72 32.99 84.74 33.29 84.76 33.59 84.78 32.96 84.79 33.26 84.85 33.36 84.87 33.41 84.89 33.59 84.9 33.61 84.92 33.56 84.98 33.34 84.99 33.19 85.01 33.48 85.03 32.53 85.05 31.58 85.1 30.01 85.12 30.44 85.14 30.92 85.16 31.38 85.18 30.95 85.23 31.4 85.25 30.68 85.27 31.16 85.29 31.55 85.3 31.68 85.36 32.02 85.38 31.89 85.4 32.3 85.41 32.68 85.43 32.47 85.49 32.81 85.51 32.64 85.52 33.01 85.56 33.3 85.62 32.64 85.63 32.98 85.65 32.9 85.67 33.26 85.69 33.33 85.74 33.57 85.76 33.86 85.78 33.75 85.8 34.02 85.82 34.2 85.87 34.43 85.89 34.53 85.91 34.64 85.93 34.89 85.94 34.51 86 34.65 86.02 34.5 86.03 34.72 86.05 34.95 86.13 35.08 86.14 35.3 86.16 35.5 86.18 35.7 86.27 35.35 86.29 34.53 86.31 34.76 86.33 35 86.35 35.17 86.4 35.37 86.42 35.56 86.44 35.3 86.45 35.23 86.47 35.43 86.55 35.05 86.56 34.67 86.58 34.43 86.6 33.33 86.66 32.1 86.67 32.45 86.69 32.76 86.71 33.06 86.73 32.93 86.78 32.95 86.8 32.72 86.82 32.61 86.84 32.88 86.86 30.52 86.91 30.99 86.93 31.23 86.95 31.28 86.97 31.7 86.98 31.89 87.06 32.27 87.08 31.82 87.09 32.19 87.11 32.47 87.17 32.84 87.18 33.19 87.2 33.02 87.22 33.09 87.24 33.41 87.29 33.73 87.31 33.71 87.33 34 87.35 34.29 87.37 34.52 87.42 34.08 87.44 34.36 87.46 34.62 87.48 34.81 87.5 34.99 87.55 35.22 87.57 35.44 87.59 35.39 87.6 35.45 87.62 35.65 87.68 35.69 87.7 35.77 87.71 35.72 87.73 35.73 87.75 35.89 87.81 36.07 87.82 36.08 87.84 36.24 87.86 36.32 87.93 36.18 87.95 36.03 87.97 36.19 87.99 36.12 88.01 36.23 88.06 36.16 88.08 36.31 88.1 36.46 88.12 35.95 88.13 36.12 88.19 34.94 88.21 35.1 88.23 35.07 88.24 35.29 88.26 35.48 88.32 35.47 88.33 35.56 88.35 33.47 88.37 33.66 88.39 33.44 88.44 32.82 88.46 32.69 88.48 31.4 88.5 31.71 88.52 29.53 88.57 29.54 88.59 26.69 88.61 27.36 88.63 27.7 88.64 28.05 88.7 27.97 88.72 28.59 88.74 28.76 88.75 29.28 88.77 26.85 88.83 27.17 88.85 27.52 88.86 28.17 88.88 28.71 88.9 27.4 88.97 27.76 88.99 27.82 89.01 27.33 89.03 27.96 89.08 26.41 89.1 26.8 89.12 27.29 89.14 27.88 89.16 27.05 89.21 27.69 89.23 28.32 89.25 27.95 89.27 28.57 89.28 29.16 89.34 29.72 89.36 30.21 89.37 30.09 89.39 30.57 89.41 30.36 89.47 30.84 89.48 31.29 89.5 29.41 89.52 29.72 89.54 30.21 89.61 30.66 89.63 31.07 89.65 29.43 89.67 29.8 89.72 30.22 89.74 30.72 89.76 30.67 89.78 31.14 89.79 31.59 89.85 29.92 89.87 30.37 89.89 30.58 89.9 30.65 89.92 30.03 89.98 30.4 90 30.63 90.01 31.1 90.03 31.42 90.05 31.8 90.11 32.21 90.12 31.37 90.14 31.74 90.16 32.07 90.18 32.46 90.23 32.79 90.25 33.07 90.27 33.28 90.29 31.23 90.31 31.59 90.36 31.96 90.38 32.37 90.4 32.35 90.42 32.73 90.43 32.2 90.49 32.55 90.51 32.86 90.52 32.54 90.54 32.88 90.56 33.03 90.62 32.59 90.63 32.29 90.65 32.67 90.67 30.84 90.69 31.12 90.76 31.17 90.78 31.26 90.8 31.61 90.82 31.98 90.87 32.33 90.89 32.39 90.91 32.76 90.93 33.09 90.94 33.43 91 33.75 91.02 33.32 91.04 33.62 91.05 33.84 91.07 33.86 91.13 32.77 91.15 33.02 91.16 33.3 91.18 33.6 91.2 33.87 91.25 34.11 91.27 34.13 91.29 33.01 91.31 33.35 91.33 33.67 91.38 33.86 91.4 34.16 91.42 34.39 91.44 34.48 91.46 34.68 91.51 34.92 91.53 34.95 91.55 34.11 91.57 34.02 91.58 34.3 91.64 34.56 91.66 34.8 91.67 35.05 91.69 35.23 91.71 35.44 91.77 35.64 91.78 35.83 91.8 35.74 91.82 35.87 91.84 34.47 91.89 34.69 91.91 34.91 91.93 34.84 91.95 35.01 91.97 35.15 92.02 34.72 92.04 34.96 92.06 34.08 92.08 34.37 92.09 33.82 92.15 34.1 92.17 34.37 92.19 33.83 92.22 33.41 92.28 33.53 92.3 33.83 92.31 33.98 92.33 32.81 92.35 32.7 92.4 33.05 92.42 33.39 92.44 33.71 92.46 33.98 92.48 34.23 92.53 34.38 92.55 34.65 92.57 34.9 92.59 35 92.61 35.09 92.66 35.31 92.68 35.5 92.7 35.55 92.71 35.7 92.79 35.87 92.81 36.04 92.82 36.21 92.84 36.36 92.86 36.49 92.93 36.62 92.95 36.06 92.97 36.2 92.99 36.24 93.01 36.36 93.06 36.47 93.08 36.59 93.1 36.65 93.12 36.33 93.13 36.45 93.21 36.3 93.23 36.44 93.24 35.95 93.26 36.11 93.32 36.25 93.34 36.23 93.35 36.38 93.37 36.44 93.39 36.56 93.45 34.97 93.46 34.98 93.48 34.16 93.5 34.4 93.52 34.65 93.57 34.88 93.59 34.97 93.61 35.14 93.63 35.32 93.65 35.53 93.7 35.6 93.72 35.77 93.74 35.89 93.76 35.88 93.77 36.02 93.85 36.17 93.86 34.31 93.88 34.41 93.9 34.67 93.96 34.51 93.97 34.66 93.99 33.9 94.01 34.19 94.03 33.48 94.08 33.6 94.1 33.65 94.12 33.71 94.14 34 94.16 33.02 94.21 33.22 94.23 33.42 94.25 33.29 94.27 32.39 94.28 32.29 94.34 32.63 94.36 32.38 94.38 32.72 94.39 33.06 94.41 33.15 94.47 33.46 94.49 33.75 94.5 33.9 94.52 34.05 94.54 34.32 94.59 34.51 94.61 34.77 94.63 35.01 94.65 35.22 94.67 35.42 94.72 35.54 94.74 35.68 94.76 35.54 94.78 35.74 94.8 35.92 94.85 36.03 94.87 35.53 94.89 35.59 94.91 35 94.98 35.12 95 35.33 95.01 35.2 95.03 35.27 95.05 35.43 95.11 35.62 95.12 35.79 95.14 35.9 95.16 35.8 95.18 35.53 95.23 35.67 95.25 35.77 95.27 35.66 95.29 35.22 95.31 35.34 95.36 35.22 95.38 35.24 95.4 35.45 95.42 35.32 95.43 35.52 95.49 35.4 95.51 34.92 95.53 35.15 95.54 35.34 95.56 35.49 95.64 35.62 95.65 35.32 95.67 33.41 95.69 33.73 95.74 33.67 95.76 33.55 95.78 33.86 95.8 34.08 95.82 34.18 95.87 33.71 95.89 34.01 95.91 33.77 95.93 33.01 95.95 33.35 96 33.65 96.02 33.87 96.04 33.58 96.06 33.73 96.07 34 96.13 33.76 96.15 33.79 96.16 33.55 96.18 33.66 96.2 33.64 96.27 33.3 96.29 33.62 96.31 33.93 96.33 33.87 96.38 33.97 96.4 33.08 96.42 33.35 96.44 33.65 96.46 33.78 96.51 33.99 96.53 34.01 96.55 33.43 96.57 33.75 96.58 33.47 96.64 33.79 96.66 33.96 96.68 34.18 96.69 32.97 96.71 33.28 96.77 33.45 96.79 33.7 96.8 31.91 96.82 32.26 96.84 27.38 96.89 28.03 96.91 21.64 96.93 20.14 96.95 18.93 96.97 17.95 97.02 19.08 97.04 19.7 97.06 20.64 97.08 21.66 97.1 20.15 97.15 20.92 97.17 21.91 97.19 21.51 97.2 22.28 97.22 22.88 97.28 23.49 97.3 23.34 97.31 24.2 97.33 25 97.35 25.55 97.42 25.27 97.44 25.95 97.46 25.47 97.48 26.04 97.53 25.58 97.55 26.27 97.57 26.86 97.59 27.25 97.61 27.42 97.66 28.02 97.68 28.45 97.7 29.04 97.72 27.85 97.73 26.61 97.79 27.26 97.81 27.03 97.83 27.52 97.84 27.36 97.86 27.91 97.92 27.36 97.93 26.56 97.95 26.47 97.97 26.68 97.99 26.84 98.04 27.4 98.06 26.2 98.08 26.92 98.1 27.45 98.12 28.08 98.17 28.16 98.19 28.03 98.21 27.93 98.23 28.23 98.25 28.81 98.3 28.73 98.32 29 98.34 28.72 98.35 29.1 98.37 27.56 98.43 28.2 98.45 27.63 98.46 26.83 98.48 27.1 98.5 27.2 98.56 27.78 98.57 28.35 98.59 28.71 98.61 26.72 98.63 27.3 98.68 27.33 98.7 27.81 98.72 28.4 98.74 28.44 98.76 28.46 98.81 29.06 98.83 28.88 98.85 29.41 98.88 28.9 98.94 29.45 98.96 28.38 98.98 28.98 98.99 26.37 99.01 27.07 99.07 27.74 99.08 28.2 99.1 28.81 99.12 29.38 99.14 28.96 99.19 28.99 99.21 29.08 99.23 29.47 99.25 29.72 99.27 30.23 99.32 30.71 99.34 30.83 99.36 29.41 99.38 29.95 99.4 30.33 99.47 30.65 99.49 31.13 99.5 31.16 99.52 31.35 99.61 31.73 99.63 31.55 99.65 31.98 99.67 32.37 99.72 32.72 99.74 33.07 99.76 33.19 99.78 33.52 99.8 33.83 99.87 34.02 99.89 34.27 99.91 34.12 99.92 34.32 99.98 34.59 100 34.85 100.02 35.08 100.03 35.01 100.05 35.07 100.11 35.28 100.13 35.45 100.14 35.65 100.16 35.49 100.18 35.69 100.23 34.96 100.25 35.19 100.27 35.39 100.29 35.58 100.31 35.77 100.36 35.69 100.38 35.67 100.4 35.85 100.42 35.85 100.44 35.47 100.51 35.66 100.53 35.85 100.54 35.95 100.56 36.04 100.62 36.2 100.64 36.35 100.65 36.44 100.67 36.42 100.69 36.37 100.75 36.43 100.76 36.46 100.78 35.29 100.8 35.31 100.82 35.12 100.87 35.29 100.89 35.51 100.91 34.38 100.93 34.64 100.95 34.76 101 35 101.02 35.18 101.04 35.34 101.06 35.53 101.07 35.45 101.13 35.62 101.15 34.98 101.17 35.17 101.18 35.26 101.2 35.45 101.26 35.6 101.27 35.55 101.29 35.65 101.31 35.3 101.38 35.51 101.4 35.07 101.42 34.05 101.44 34.15 101.46 33.79 101.51 33.52 101.53 33.83 101.55 33.36 101.57 33.62 101.59 33.79 101.64 34.09 101.66 34.09 101.68 34.33 101.69 33.95 101.71 34.1 101.77 34.37 101.79 34.57 101.8 34.71 101.82 34.92 101.84 34.88 101.9 34.03 101.91 34.31 101.93 34.5 101.95 34.56 101.97 34.8 102.02 34.98 102.04 34.65 102.06 34.75 102.08 34.89 102.1 34.17 102.15 34.22 102.17 33.63 102.19 33.94 102.21 34.23 102.22 34.5 102.3 34.73 102.32 34.52 102.33 33.95 102.35 34.21 102.41 32.39 102.42 32.77 102.44 33.05 102.46 31.92 102.48 32.33 102.53 32.54 102.55 32.41 102.57 32.43 102.59 32.64 102.61 32.69 102.66 32.76 102.68 33.11 102.7 33.17 102.72 33.49 102.74 32.2 102.79 32.46 102.81 32.07 102.83 32.41 102.84 32.58 102.86 32.93 102.92 31.61 102.94 32.02 102.97 32.33 102.99 32.64 103.05 32.71 103.06 33.06 103.08 33.17 103.1 33.51 103.12 33.73 103.17 33.18 103.19 33.49 103.21 33.64 103.23 33.81 103.25 34.1 103.3 33.98 103.32 33.95 103.34 33.92 103.36 34.21 103.37 33.57 103.43 32.78 103.45 33.14 103.47 33.41 103.48 33.69 103.5 33.78 103.56 32.95 103.57 33.29 103.59 33.55 103.61 33.86 103.63 34.16 103.68 34.43 103.7 34.68 103.72 34.93 103.74 35.16 103.76 35.18 103.81 35.39 103.83 35.6 103.85 35.72 103.87 35.9 103.88 35.71 103.94 35.71 103.96 35.89 103.98 36.06 103.99 36.22 104.01 36 104.09 36.05 104.1 36.2 104.12 36.35 104.14 34.61 104.2 34.81 104.21 34.87 104.23 35.08 104.25 35.29 104.27 34.45 104.32 34.66 104.34 34.86 104.36 35.09 104.38 35.31 104.4 35.52 104.45 35.71 104.47 35.87 104.49 35.45 104.51 35.47 104.52 35.27 104.58 35.38 104.6 35.56 104.62 35.76 104.63 35.89 104.65 35.82 104.71 36 104.72 36.09 104.74 35.69 104.76 35.66 104.78 35.85 104.83 35.97 104.85 35.83 104.87 35.53 104.89 35.66 104.91 35.81 104.96 34.66 104.98 34.91 105 34.25 105.02 34.48 105.03 34.71 105.13 34.96 105.14 35.19 105.16 34.92 105.22 34.75 105.24 34.99 105.25 34.98 105.27 33.05 105.29 32.89 105.35 33.24 105.36 33.57 105.38 33.82 105.4 33.41 105.42 33.72 105.47 33.96 105.49 33 105.51 33.35 105.55 33.66 105.6 33.43 105.62 33.74 105.64 33.93 105.66 34.02 105.67 34.25 105.73 34.53 105.75 34.68 105.76 34.91 105.78 35.14 105.8 35.32 105.86 35.5 105.87 35.7 105.89 35.7 105.91 35.89 105.93 35.83 105.98 35.9 106 35.43 106.02 35.07 106.04 35.02 106.06 35.13 106.11 34.94 106.15 35.13 106.17 35.24 106.18 35.44 106.24 35.04 106.28 34.18 106.29 32.46 106.31 32.82 106.37 33.11 106.39 33.41 106.4 33.69 106.42 33.98 106.44 34.08 106.49 34.37 106.51 34.63 106.53 34.88 106.55 35.12 106.57 35.22 106.64 35.39 106.66 35.52 106.68 35.71 106.7 35.9 106.75 35.94 106.77 36.08 106.79 36.13 106.81 36.18 106.82 36.29 106.88 35.93 106.9 35.39 106.91 35.14 106.93 35.36 106.95 35.54 107.01 35.61 107.02 35.79 107.04 35.97 107.06 36.14 107.08 36.3 107.15 36.44 107.17 36.29 107.19 35.57 107.21 35.54 107.26 35.41 107.28 34.13 107.3 34.29 107.32 34 107.33 34.29 107.39 34.55 107.41 34.73 107.43 34.63 107.44 34.88 107.46 35.11 107.52 35.26 107.54 35.44 107.55 35.6 107.57 35.79 107.59 35.84 107.64 35.99 107.66 35.97 107.68 36.1 107.7 36.05 107.72 35.81 107.77 35.76 107.79 35.87 107.81 35.77 107.83 35.94 107.9 36.04 107.92 36.08 107.94 36.12 107.96 35.65 107.97 35.77 108.03 35.84 108.05 35.84 108.06 35.96 108.08 35.44 108.1 35.6 108.16 35.74 108.17 33.65 108.19 33.31 108.21 32.94 108.23 33.13 108.28 33.24 108.3 33.51 108.32 33.5 108.34 33.81 108.36 34.07 108.41 34.33 108.43 34.42 108.45 34.67 108.47 34.54 108.48 34.48 108.54 34.34 108.56 34.6 108.58 34.76 108.59 34.94 108.61 35.11 108.67 35.26 108.69 35.47 108.7 35.24 108.72 35.35 108.74 35.42 108.79 35.18 108.81 35.39 108.83 35.59 108.85 35.42 108.87 35.57 108.94 35.76 108.96 35.77 108.98 35.67 109 35.8 109.05 34.96 109.07 35.06 109.09 35.13 109.1 34.5 109.12 34.5 109.18 34.17 109.2 34.45 109.21 34.28 109.23 34.26 109.25 33.78 109.31 33.95 109.32 34.05 109.34 34.14 109.36 33.68 109.38 31.97 109.43 32.36 109.45 32.29 109.47 32.44 109.49 32.57 109.51 32.84 109.56 33.12 109.58 33.38 109.6 33.7 109.63 34.01 109.69 33.95 109.71 34.16 109.73 34.26 109.74 34.54 109.76 34.14 109.82 34.39 109.83 34.65 109.85 34.83 109.87 35.05 109.89 35.18 109.94 35.39 109.96 35.59 109.98 35.76 110 35.85 110.02 36 110.07 36.17 110.09 36.23 110.11 36.39 110.13 36.53 110.15 35.84 110.2 36.01 110.22 36.16 110.24 36.11 110.25 36.17 110.27 36.26 110.33 36.32 110.35 36.45 110.36 36.56 110.38 36.5 110.4 35.47 110.46 35.6 110.47 35.6 110.49 35.74 110.51 35.73 110.53 35.58 110.58 35.71 110.6 35.8 110.62 34.75 110.64 34.97 110.66 35.19 110.73 35.35 110.75 35.49 110.77 35.41 110.78 35.61 110.84 35.81 110.86 35.53 110.88 35.5 110.89 35.66 110.91 35.78 110.97 35.93 110.98 35.96 111 36.05 111.02 35.51 111.04 35.69 111.09 35.59 111.11 35.65 111.13 35.8 111.15 35.93 111.17 36.05 111.22 36.11 111.24 36.04 111.26 35.9 111.28 36.07 111.3 35.76 111.35 35.72 111.37 35.52 111.39 34.97 111.4 35.2 111.42 33.66 111.48 33.85 111.5 34.1 111.51 34.17 111.53 33.8 111.55 33.96 111.61 34.11 111.62 34.4 111.64 34.55 111.66 34.7 111.68 34.92 111.73 35.08 111.75 35.3 111.77 35.39 111.79 35.46 111.81 35.58 111.86 35.74 111.88 35.88 111.9 36 111.92 36.09 111.93 35.31 111.99 34.79 112.01 35.03 112.03 35.23 112.04 35.18 112.06 35.31 112.12 35.45 112.13 35.57 112.15 35.74 112.17 35.84 112.19 35.71 112.24 35.79 112.26 35.96 112.28 36.13 112.32 36.27 112.37 36.41 112.39 36.49 112.41 36.55 112.43 36.67 112.44 36.65 112.5 36.09 112.52 36.24 112.54 36.32 112.55 35.72 112.57 35.81 112.63 35.99 112.65 35.97 112.66 36.08 112.68 34.99 112.7 35.21 112.76 35.34 112.77 35.44 112.81 35.61 112.83 35.71 112.88 35.89 112.9 36.07 112.96 36.16 112.97 35.85 113.03 36.03 113.05 36.15 113.07 36.13 113.08 36.29 113.1 36.44 113.16 36.55 113.18 35.74 113.19 35.4 113.21 35.5 113.23 35.68 113.3 35.78 113.32 35.93 113.34 36.1 113.36 35.8 113.41 34.02 113.43 34.2 113.45 34.36 113.47 34.19 113.49 34.04 113.54 34.15 113.56 32.61 113.58 32.82 113.59 33.16 113.61 33.04 113.67 32.87 113.69 33.22 113.7 33.19 113.72 33.52 113.74 33.74 113.81 33.97 113.83 34.26 113.85 34.35 113.87 34.5 113.92 34.74 113.94 34.84 113.96 35.07 113.98 35.3 114 35.41 114.05 35.59 114.07 35.49 114.09 34.72 114.11 34.97 114.12 35.19 114.18 35.41 114.2 35.61 114.22 35.66 114.23 35.85 114.25 35.3 114.31 35.47 114.32 35.27 114.34 35.28 114.36 35.29 114.38 35.36 114.43 35.51 114.45 35.58 114.47 35.69 114.49 35.61 114.51 35.78 114.56 35.87 114.58 35.75 114.6 35.71 114.62 35.87 114.64 36.03 114.69 35.35 114.71 35 114.73 35.18 114.74 34.92 114.76 33.43 114.82 33.42 114.84 33.54 114.85 33.72 114.87 33.67 114.95 33.98 114.96 34.22 114.98 34.45 115 34.68 115.02 34.93 115.07 34.85 115.09 35.06 115.11 35.2 115.13 35.39 115.15 35.59 115.2 35.77 115.22 35.94 115.24 35.66 115.26 35.71 115.27 35.88 115.33 36.05 115.35 35.77 115.37 35.95 115.38 35.98 115.4 35.66 115.46 35.79 115.47 35.91 115.49 35.84 115.51 35.71 115.53 35.88 115.6 35.98 115.62 35.98 115.64 36.14 115.66 36.16 115.71 36.3 115.73 36.45 115.75 36.59 115.77 36.7 115.79 36.59 115.84 36.6 115.86 36.73 115.88 36.85 115.89 36.85 115.91 36.6 115.97 36.68 115.99 36.8 116 36.9 116.02 36.65 116.04 36.77 116.1 36.88 116.11 36.98 116.13 36.77 116.15 36.75 116.17 36.85 116.22 36.95 116.24 37.05 116.26 36.87 116.28 36.98 116.35 36.9 116.37 36.88 116.39 36.63 116.41 36.64 116.42 36.64 116.48 36.75 116.5 36.74 116.52 36.83 116.53 36.84 116.55 36.05 116.61 35.71 116.62 35.86 116.64 35.92 116.66 36.08 116.68 36.25 116.73 36.24 116.75 36.4 116.77 36.39 116.79 36.54 116.81 34.61 116.86 34.82 116.88 34.87 116.9 34.68 116.92 34.93 116.93 35.01 116.99 34.72 117.01 34.94 117.03 35.16 117.04 35.2 117.06 35.35 117.12 35.56 117.14 35.44 117.15 35.54 117.17 35.71 117.19 35.87 117.25 36.01 117.26 36.08 117.28 36.24 117.3 36.39 117.32 36.51 117.39 36.59 117.41 36.71 117.43 36.83 117.45 36.91 117.5 36.87 117.52 36.9 117.54 36.69 117.56 36.74 117.57 36.86 117.63 36.7 117.65 36.82 117.66 36.61 117.68 36.73 117.7 36.72 117.76 36.83 117.77 36.49 117.79 36.4 117.81 36.22 117.83 35.01 117.88 34.95 117.9 35.14 117.92 35.32 117.94 34.71 117.96 34.96 118.01 34.71 118.03 34.94 118.05 34.19 118.07 33.46 118.08 32.38 118.14 32.35 118.16 31.93 118.18 32.33 118.19 32.5 118.21 32.88 118.27 32.76 118.29 32.89 118.3 32.18 118.32 32.4 118.34 32.37 118.39 32.63 118.41 32.98 118.43 32.92 118.45 33.26 118.47 33.48 118.52 33.37 118.54 33.7 118.56 33.97 118.58 34.16 118.6 34.39 118.65 34.66 118.67 34.88 118.69 35.12 118.71 35.34 118.72 35.55 118.78 35.74 118.8 35.93 118.81 35.98 118.83 36.13 118.85 36.28 118.91 36.29 118.92 36.41 118.94 36.53 118.98 36.63 119.03 36.7 119.05 36.49 119.07 36.41 119.09 36.49 119.11 36.61 119.16 36.73 119.18 36.48 119.2 36.61 119.22 35.24 119.23 35.38 119.29 34.39 119.31 34.48 119.33 34.43 119.34 33.3 119.36 32.01 119.42 32.36 119.44 32.71 119.45 33.06 119.49 33.41 119.54 33.7 119.56 34.01 119.58 34.19 119.64 34.04 119.69 34.33 119.71 33.34 119.73 33.38 119.75 33.29 119.76 32.68 119.82 32.81 119.84 32.94 119.86 33.27 119.87 33.47 119.89 33.47 119.96 33.24 119.98 33.57 120 33.82 120.02 33.37 120.07 33.58 120.09 33.88 120.11 33.51 120.13 33.18 120.15 33.25 120.2 33 120.22 32.86 120.24 32.63 120.26 32.93 120.27 32.98 120.33 33.28 120.35 33.54 120.37 33.5 120.38 33.82 120.4 33.82 120.48 34.07 120.49 34.35 120.51 34.62 120.53 34.86 120.59 34.96 120.6 35.19 120.62 35.38 120.64 35.58 120.66 35.76 120.71 35.89 120.73 35.89 120.75 35.94 120.77 35.99 120.79 36.15 120.84 35.24 120.86 35.39 120.88 34.31 120.9 34.56 120.91 34.24 120.97 34.36 120.99 33.99 121 34.23 121.02 33.99 121.04 34.18 121.1 34.18 121.11 34.44 121.13 34.54 121.15 33.94 121.17 34.2 121.22 34.46 121.24 34.19 121.26 34.15 121.28 34.36 121.35 34.59 121.37 34.69 121.39 34.91 121.41 35.13 121.42 35.27 121.48 35.38 121.5 35.47 121.52 35.66 121.53 35.74 121.55 35.92 121.61 35.4 121.63 35.25 121.64 35.45 121.66 35.55 121.68 35.72 121.74 35.89 121.75 35.96 121.77 36.1 121.79 36.17 121.81 35.73 121.86 35.38 121.88 35.56 121.9 35.06 121.92 35.18 121.94 35.35 121.99 34.81 122.01 34.92 122.03 35.11 122.05 35.33 122.06 35.06 122.12 35.29 122.14 35.47 122.15 35.66 122.17 35.84 122.19 36 122.26 36.13 122.28 35.69 122.3 35.5 122.32 35.69 122.37 35.65 122.39 35.83 122.41 36 122.43 36.15 122.45 35.87 122.5 36.03 122.52 35.94 122.54 36.11 122.56 35.58 122.57 35.76 122.63 35.67 122.65 35.73 122.67 35.77 122.68 35.94 122.7 35.66 122.76 35.68 122.78 35.71 122.79 35.9 122.81 35.76 122.83 35.88 122.88 36.06 122.9 34.18 122.92 34.44 122.94 34.53 123.01 34.79 123.03 34.96 123.05 35.05 123.07 34.09 123.09 34.36 123.14 34.1 123.16 33.97 123.18 34.2 123.2 34.47 123.21 34.5 123.27 34.76 123.29 35.01 123.3 35.14 123.32 35.33 123.34 35.37 123.4 35.01 123.41 35.08 123.43 34.7 123.45 34.75 123.47 34.99 123.52 35.19 123.54 35.37 123.56 35.54 123.58 35.7 123.6 35.56 123.65 35.7 123.67 35.17 123.69 34.95 123.71 35.18 123.72 35.39 123.78 35.54 123.8 35.62 123.82 35.77 123.83 35.57 123.85 33.84 123.91 31.03 123.93 28.02 123.94 28.27 123.96 26.37 123.98 26.17 124.03 26.89 124.05 27.44 124.07 26.52 124.09 26.7 124.11 27.39 124.18 27.59 124.2 27.19 124.22 27.49 124.24 28.1 124.29 28.68 124.31 29.23 124.33 29.46 124.34 29.86 124.36 30.36 124.42 30.22 124.44 30.68 124.45 30.77 124.47 31.22"/>
      </g>
      <g stroke-width="0.3" fill="#000000" fill-opacity="0.000" class="geometry" stroke="#FF0000" id="fig-6d24f89f13be46809abcaf215711fbf5-element-11">
        <path fill="none" d="M26.61,37.86 L 26.74 37.73 26.87 37.6 27 37.47 27.13 37.35 27.26 37.23 27.39 37.12 27.52 37.01 27.65 36.9 27.78 36.79 27.91 36.69 28.04 36.59 28.17 36.49 28.31 36.39 28.44 36.3 28.57 36.21 28.7 36.13 28.83 36.04 28.96 35.96 29.09 35.88 29.22 35.81 29.35 35.74 29.48 35.68 29.61 35.62 29.74 35.57 29.87 35.52 30 35.47 30.13 35.43 30.26 35.39 30.39 35.36 30.52 35.33 30.65 35.3 30.78 35.27 30.91 35.22 31.05 35.17 31.18 35.12 31.31 35.04 31.44 34.96 31.57 34.88 31.7 34.83 31.83 34.78 31.96 34.73 32.09 34.7 32.22 34.67 32.35 34.66 32.48 34.66 32.61 34.66 32.74 34.67 32.87 34.69 33 34.72 33.13 34.74 33.26 34.77 33.39 34.79 33.52 34.81 33.65 34.81 33.79 34.81 33.92 34.8 34.05 34.75 34.18 34.7 34.31 34.64 34.44 34.55 34.57 34.46 34.7 34.36 34.83 34.24 34.96 34.12 35.09 34 35.22 33.87 35.35 33.75 35.48 33.64 35.61 33.53 35.74 33.43 35.87 33.34 36 33.26 36.13 33.18 36.26 33.12 36.4 33.08 36.53 33.04 36.66 33.03 36.79 33.02 36.92 33.03 37.05 33.07 37.18 33.11 37.31 33.16 37.44 33.24 37.57 33.32 37.7 33.42 37.83 33.55 37.96 33.68 38.09 33.81 38.22 33.97 38.35 34.12 38.48 34.28 38.61 34.43 38.74 34.59 38.87 34.74 39 34.88 39.14 35.02 39.27 35.14 39.4 35.25 39.53 35.35 39.66 35.43 39.79 35.48 39.92 35.53 40.05 35.55 40.18 35.54 40.31 35.52 40.44 35.49 40.57 35.43 40.7 35.37 40.83 35.31 40.96 35.23 41.09 35.15 41.22 35.07 41.35 35 41.48 34.92 41.61 34.86 41.75 34.81 41.88 34.75 42.01 34.72 42.14 34.69 42.27 34.66 42.4 34.65 42.53 34.65 42.66 34.66 42.79 34.69 42.92 34.72 43.05 34.76 43.18 34.82 43.31 34.88 43.44 34.95 43.57 35.03 43.7 35.11 43.83 35.2 43.96 35.3 44.09 35.39 44.22 35.48 44.35 35.57 44.49 35.66 44.62 35.74 44.75 35.81 44.88 35.88 45.01 35.92 45.14 35.96 45.27 35.99 45.4 35.99 45.53 35.97 45.66 35.95 45.79 35.89 45.92 35.83 46.05 35.76 46.18 35.67 46.31 35.57 46.44 35.48 46.57 35.38 46.7 35.29 46.83 35.19 46.96 35.1 47.1 35.02 47.23 34.94 47.36 34.88 47.49 34.81 47.62 34.76 47.75 34.72 47.88 34.68 48.01 34.65 48.14 34.64 48.27 34.63 48.4 34.62 48.53 34.62 48.66 34.63 48.79 34.63 48.92 34.64 49.05 34.65 49.18 34.66 49.31 34.66 49.44 34.67 49.57 34.67 49.7 34.68 49.84 34.68 49.97 34.69 50.1 34.69 50.23 34.69 50.36 34.69 50.49 34.69 50.62 34.69 50.75 34.7 50.88 34.7 51.01 34.7 51.14 34.7 51.27 34.7 51.4 34.69 51.53 34.68 51.66 34.66 51.79 34.64 51.92 34.62 52.05 34.6 52.18 34.57 52.31 34.55 52.45 34.54 52.58 34.52 52.71 34.51 52.84 34.5 52.97 34.49 53.1 34.48 53.23 34.46 53.36 34.45 53.49 34.43 53.62 34.4 53.75 34.38 53.88 34.35 54.01 34.31 54.14 34.28 54.27 34.24 54.4 34.2 54.53 34.16 54.66 34.13 54.79 34.09 54.92 34.06 55.05 34.02 55.19 33.99 55.32 33.96 55.45 33.94 55.58 33.91 55.71 33.89 55.84 33.88 55.97 33.87 56.1 33.86 56.23 33.86 56.36 33.86 56.49 33.86 56.62 33.86 56.75 33.85 56.88 33.85 57.01 33.84 57.14 33.83 57.27 33.81 57.4 33.79 57.53 33.77 57.66 33.75 57.8 33.73 57.93 33.7 58.06 33.69 58.19 33.68 58.32 33.67 58.45 33.68 58.58 33.68 58.71 33.7 58.84 33.72 58.97 33.74 59.1 33.76 59.23 33.79 59.36 33.81 59.49 33.82 59.62 33.83 59.75 33.83 59.88 33.83 60.01 33.81 60.14 33.79 60.27 33.77 60.4 33.73 60.54 33.69 60.67 33.64 60.8 33.59 60.93 33.53 61.06 33.48 61.19 33.43 61.32 33.37 61.45 33.33 61.58 33.29 61.71 33.24 61.84 33.21 61.97 33.17 62.1 33.14 62.23 33.11 62.36 33.08 62.49 33.06 62.62 33.03 62.75 33.01 62.88 32.99 63.01 32.98 63.14 32.97 63.28 32.97 63.41 32.99 63.54 33.02 63.67 33.05 63.8 33.11 63.93 33.17 64.06 33.23 64.19 33.31 64.32 33.39 64.45 33.46 64.58 33.53 64.71 33.59 64.84 33.64 64.97 33.67 65.1 33.7 65.23 33.71 65.36 33.7 65.49 33.69 65.62 33.67 65.75 33.63 65.89 33.59 66.02 33.54 66.15 33.49 66.28 33.44 66.41 33.39 66.54 33.34 66.67 33.29 66.8 33.24 66.93 33.19 67.06 33.14 67.19 33.08 67.32 33.02 67.45 32.96 67.58 32.89 67.71 32.81 67.84 32.73 67.97 32.64 68.1 32.55 68.23 32.46 68.36 32.37 68.49 32.29 68.63 32.2 68.76 32.12 68.89 32.05 69.02 31.98 69.15 31.93 69.28 31.88 69.41 31.83 69.54 31.79 69.67 31.75 69.8 31.71 69.93 31.66 70.06 31.62 70.19 31.57 70.32 31.51 70.45 31.44 70.58 31.37 70.71 31.29 70.84 31.21 70.97 31.13 71.1 31.04 71.24 30.95 71.37 30.86 71.5 30.77 71.63 30.69 71.76 30.61 71.89 30.55 72.02 30.49 72.15 30.44 72.28 30.4 72.41 30.36 72.54 30.34 72.67 30.33 72.8 30.32 72.93 30.32 73.06 30.33 73.19 30.33 73.32 30.35 73.45 30.37 73.58 30.38 73.71 30.41 73.84 30.45 73.98 30.48 74.11 30.52 74.24 30.57 74.37 30.62 74.5 30.66 74.63 30.71 74.76 30.76 74.89 30.8 75.02 30.83 75.15 30.85 75.28 30.85 75.41 30.85 75.54 30.83 75.67 30.79 75.8 30.73 75.93 30.67 76.06 30.57 76.19 30.46 76.32 30.35 76.45 30.21 76.59 30.07 76.72 29.94 76.85 29.8 76.98 29.66 77.11 29.54 77.24 29.43 77.37 29.33 77.5 29.24 77.63 29.18 77.76 29.12 77.89 29.08 78.02 29.07 78.15 29.07 78.28 29.08 78.41 29.11 78.54 29.14 78.67 29.19 78.8 29.24 78.93 29.3 79.06 29.36 79.19 29.44 79.33 29.51 79.46 29.6 79.59 29.69 79.72 29.78 79.85 29.88 79.98 29.97 80.11 30.08 80.24 30.17 80.37 30.26 80.5 30.36 80.63 30.44 80.76 30.51 80.89 30.59 81.02 30.65 81.15 30.71 81.28 30.76 81.41 30.81 81.54 30.86 81.67 30.9 81.8 30.94 81.94 30.98 82.07 31.02 82.2 31.07 82.33 31.12 82.46 31.17 82.59 31.24 82.72 31.31 82.85 31.4 82.98 31.5 83.11 31.6 83.24 31.71 83.37 31.83 83.5 31.96 83.63 32.09 83.76 32.22 83.89 32.34 84.02 32.46 84.15 32.57 84.28 32.68 84.41 32.78 84.54 32.87 84.68 32.96 84.81 33.04 84.94 33.12 85.07 33.19 85.2 33.25 85.33 33.32 85.46 33.37 85.59 33.41 85.72 33.44 85.85 33.46 85.98 33.45 86.11 33.44 86.24 33.42 86.37 33.36 86.5 33.29 86.63 33.2 86.76 33.09 86.89 32.96 87.02 32.83 87.15 32.69 87.29 32.54 87.42 32.38 87.55 32.24 87.68 32.09 87.81 31.95 87.94 31.82 88.07 31.71 88.2 31.6 88.33 31.51 88.46 31.44 88.59 31.39 88.72 31.35 88.85 31.32 88.98 31.32 89.11 31.33 89.24 31.35 89.37 31.4 89.5 31.47 89.63 31.54 89.76 31.65 89.89 31.77 90.03 31.9 90.16 32.06 90.29 32.23 90.42 32.4 90.55 32.6 90.68 32.81 90.81 33.01 90.94 33.2 91.07 33.39 91.2 33.57 91.33 33.7 91.46 33.84 91.59 33.94 91.72 34.02 91.85 34.09 91.98 34.13 92.11 34.14 92.24 34.15 92.37 34.14 92.5 34.12 92.63 34.09 92.77 34.04 92.9 33.99 93.03 33.93 93.16 33.87 93.29 33.79 93.42 33.71 93.55 33.62 93.68 33.52 93.81 33.42 93.94 33.31 94.07 33.19 94.2 33.06 94.33 32.93 94.46 32.8 94.59 32.65 94.72 32.51 94.85 32.36 94.98 32.21 95.11 32.05 95.24 31.89 95.38 31.74 95.51 31.57 95.64 31.41 95.77 31.25 95.9 31.08 96.03 30.92 96.16 30.76 96.29 30.59 96.42 30.43 96.55 30.27 96.68 30.13 96.81 29.99 96.94 29.87 97.07 29.77 97.2 29.68 97.33 29.62 97.46 29.59 97.59 29.58 97.72 29.58 97.85 29.64 97.98 29.7 98.12 29.79 98.25 29.91 98.38 30.04 98.51 30.19 98.64 30.36 98.77 30.54 98.9 30.73 99.03 30.93 99.16 31.13 99.29 31.32 99.42 31.5 99.55 31.69 99.68 31.85 99.81 31.98 99.94 32.11 100.07 32.22 100.2 32.28 100.33 32.33 100.46 32.36 100.59 32.36 100.73 32.36 100.86 32.35 100.99 32.32 101.12 32.3 101.25 32.28 101.38 32.26 101.51 32.24 101.64 32.24 101.77 32.25 101.9 32.25 102.03 32.28 102.16 32.3 102.29 32.32 102.42 32.36 102.55 32.4 102.68 32.44 102.81 32.5 102.94 32.56 103.07 32.63 103.2 32.7 103.33 32.78 103.47 32.86 103.6 32.96 103.73 33.05 103.86 33.15 103.99 33.26 104.12 33.36 104.25 33.47 104.38 33.57 104.51 33.67 104.64 33.75 104.77 33.83 104.9 33.9 105.03 33.93 105.16 33.95 105.29 33.97 105.42 33.96 105.55 33.93 105.68 33.89 105.81 33.83 105.94 33.76 106.08 33.68 106.21 33.59 106.34 33.5 106.47 33.4 106.6 33.3 106.73 33.19 106.86 33.08 106.99 32.97 107.12 32.85 107.25 32.73 107.38 32.6 107.51 32.47 107.64 32.35 107.77 32.22 107.9 32.09 108.03 31.97 108.16 31.87 108.29 31.76 108.42 31.66 108.55 31.59 108.68 31.52 108.82 31.46 108.95 31.43 109.08 31.4 109.21 31.37 109.34 31.38 109.47 31.39 109.6 31.41 109.73 31.46 109.86 31.51 109.99 31.56 110.12 31.63 110.25 31.71 110.38 31.78 110.51 31.86 110.64 31.94 110.77 32.01 110.9 32.07 111.03 32.14 111.16 32.19 111.29 32.23 111.43 32.26 111.56 32.28 111.69 32.29 111.82 32.29 111.95 32.26 112.08 32.22 112.21 32.19 112.34 32.12 112.47 32.06 112.6 31.99 112.73 31.93 112.86 31.86 112.99 31.79 113.12 31.74 113.25 31.69 113.38 31.64 113.51 31.61 113.64 31.59 113.77 31.57 113.9 31.56 114.03 31.56 114.17 31.57 114.3 31.59 114.43 31.62 114.56 31.64 114.69 31.69 114.82 31.73 114.95 31.78 115.08 31.84 115.21 31.9 115.34 31.96 115.47 32.03 115.6 32.11 115.73 32.18 115.86 32.26 115.99 32.33 116.12 32.4 116.25 32.46 116.38 32.51 116.51 32.55 116.64 32.58 116.78 32.61 116.91 32.61 117.04 32.59 117.17 32.58 117.3 32.53 117.43 32.48 117.56 32.42 117.69 32.35 117.82 32.26 117.95 32.17 118.08 32.07 118.21 31.96 118.34 31.85 118.47 31.74 118.6 31.62 118.73 31.52 118.86 31.42 118.99 31.32 119.12 31.24 119.25 31.16 119.38 31.09 119.52 31.04 119.65 31.01 119.78 30.98 119.91 30.96 120.04 30.97 120.17 30.98 120.3 30.99 120.43 30.99 120.56 30.99 120.69 31 120.82 30.99 120.95 30.98 121.08 30.97 121.21 30.96 121.34 30.94 121.47 30.92 121.6 30.91 121.73 30.89 121.86 30.87 121.99 30.84 122.12 30.82 122.26 30.8 122.39 30.77 122.52 30.74 122.65 30.72 122.78 30.69 122.91 30.65 123.04 30.62 123.17 30.58 123.3 30.54 123.43 30.5 123.56 30.46 123.69 30.41 123.82 30.35 123.95 30.3 124.08 30.23 124.21 30.17 124.34 30.1"/>
      </g>
    </g>
  </g>
  <g class="guide ylabels" font-size="2.82" font-family="'PT Sans Caption','Helvetica Neue','Helvetica',sans-serif" fill="#6C606B" id="fig-6d24f89f13be46809abcaf215711fbf5-element-12">
    <text x="16.4" y="58.72" text-anchor="end" dy="0.35em">-6</text>
    <text x="16.4" y="50.1" text-anchor="end" dy="0.35em">-4</text>
    <text x="16.4" y="41.48" text-anchor="end" dy="0.35em">-2</text>
    <text x="16.4" y="32.86" text-anchor="end" dy="0.35em">0</text>
    <text x="16.4" y="24.24" text-anchor="end" dy="0.35em">2</text>
    <text x="16.4" y="15.62" text-anchor="end" dy="0.35em">4</text>
    <text x="16.4" y="7" text-anchor="end" dy="0.35em">6</text>
  </g>
  <g font-size="3.88" font-family="'PT Sans','Helvetica Neue','Helvetica',sans-serif" fill="#564A55" stroke="#000000" stroke-opacity="0.000" id="fig-6d24f89f13be46809abcaf215711fbf5-element-13">
    <text x="8.81" y="30.86" text-anchor="middle" dy="0.35em" transform="rotate(-90, 8.81, 32.86)">volatility</text>
  </g>
</g>
<defs>
<clipPath id="fig-6d24f89f13be46809abcaf215711fbf5-element-5">
  <path d="M17.4,5 L 155 5 155 60.72 17.4 60.72" />
</clipPath
></defs>
</svg>
