<?xml version="1.0" encoding="UTF-8"?>
<svg xmlns="http://www.w3.org/2000/svg"
     xmlns:xlink="http://www.w3.org/1999/xlink"
     xmlns:gadfly="http://www.gadflyjl.org/ns"
     version="1.2"
     width="160mm" height="80mm" viewBox="0 0 160 80"
     stroke="none"
     fill="#000000"
     stroke-width="0.3"
     font-size="3.88"
>
<g class="plotroot xscalable yscalable" id="fig-be8ae17d39cf4b5ebd1870a7f369d3df-element-1">
  <g font-size="3.88" font-family="'PT Sans','Helvetica Neue','Helvetica',sans-serif" fill="#564A55" stroke="#000000" stroke-opacity="0.000" id="fig-be8ae17d39cf4b5ebd1870a7f369d3df-element-2">
    <text x="87.32" y="72" text-anchor="middle"># zero returns</text>
  </g>
  <g class="guide xlabels" font-size="2.82" font-family="'PT Sans Caption','Helvetica Neue','Helvetica',sans-serif" fill="#6C606B" id="fig-be8ae17d39cf4b5ebd1870a7f369d3df-element-3">
    <text x="21.63" y="64.39" text-anchor="middle">0</text>
    <text x="65.42" y="64.39" text-anchor="middle">1000</text>
    <text x="109.21" y="64.39" text-anchor="middle">2000</text>
    <text x="153" y="64.39" text-anchor="middle">3000</text>
  </g>
  <g clip-path="url(#fig-be8ae17d39cf4b5ebd1870a7f369d3df-element-5)" id="fig-be8ae17d39cf4b5ebd1870a7f369d3df-element-4">
    <g pointer-events="visible" opacity="1" fill="#000000" fill-opacity="0.000" stroke="#000000" stroke-opacity="0.000" class="guide background" id="fig-be8ae17d39cf4b5ebd1870a7f369d3df-element-6">
      <rect x="19.63" y="5" width="135.37" height="55.72"/>
    </g>
    <g class="guide ygridlines xfixed" stroke-dasharray="0.5,0.5" stroke-width="0.2" stroke="#D0D0E0" id="fig-be8ae17d39cf4b5ebd1870a7f369d3df-element-7">
      <path fill="none" d="M19.63,58.71 L 155 58.71"/>
      <path fill="none" d="M19.63,41.48 L 155 41.48"/>
      <path fill="none" d="M19.63,24.24 L 155 24.24"/>
      <path fill="none" d="M19.63,7 L 155 7"/>
    </g>
    <g class="guide xgridlines yfixed" stroke-dasharray="0.5,0.5" stroke-width="0.2" stroke="#D0D0E0" id="fig-be8ae17d39cf4b5ebd1870a7f369d3df-element-8">
      <path fill="none" d="M21.63,5 L 21.63 60.72"/>
      <path fill="none" d="M65.42,5 L 65.42 60.72"/>
      <path fill="none" d="M109.21,5 L 109.21 60.72"/>
      <path fill="none" d="M153,5 L 153 60.72"/>
    </g>
    <g class="plotpanel" id="fig-be8ae17d39cf4b5ebd1870a7f369d3df-element-9">
      <g shape-rendering="crispEdges" stroke-width="0.3" id="fig-be8ae17d39cf4b5ebd1870a7f369d3df-element-10">
        <g stroke="#000000" stroke-opacity="0.000" fill="#00BFFF" class="geometry" id="fig-be8ae17d39cf4b5ebd1870a7f369d3df-element-11">
          <rect x="21.78" y="19.07" width="2.63" height="39.65"/>
          <rect x="24.72" y="48.72" width="2.63" height="10"/>
          <rect x="27.65" y="49.41" width="2.63" height="9.31"/>
          <rect x="30.58" y="47.34" width="2.63" height="11.38"/>
          <rect x="33.52" y="40.79" width="2.63" height="17.93"/>
          <rect x="36.45" y="35.27" width="2.63" height="23.44"/>
          <rect x="39.39" y="42.51" width="2.63" height="16.2"/>
          <rect x="42.32" y="49.06" width="2.63" height="9.65"/>
          <rect x="45.25" y="51.47" width="2.63" height="7.24"/>
          <rect x="48.19" y="50.1" width="2.63" height="8.62"/>
          <rect x="51.12" y="52.85" width="2.63" height="5.86"/>
          <rect x="54.05" y="55.96" width="2.63" height="2.76"/>
          <rect x="56.99" y="56.65" width="2.63" height="2.07"/>
          <rect x="59.92" y="56.99" width="2.63" height="1.72"/>
          <rect x="62.86" y="57.34" width="2.63" height="1.38"/>
          <rect x="65.79" y="56.99" width="2.63" height="1.72"/>
          <rect x="68.72" y="58.03" width="2.63" height="0.69"/>
          <rect x="71.66" y="58.03" width="2.63" height="0.69"/>
          <rect x="74.59" y="58.71" width="2.63" height="0.01"/>
          <rect x="77.53" y="58.71" width="2.63" height="0.01"/>
          <rect x="80.46" y="58.37" width="2.63" height="0.34"/>
          <rect x="83.39" y="58.03" width="2.63" height="0.69"/>
          <rect x="86.33" y="58.71" width="2.63" height="0.01"/>
          <rect x="89.26" y="58.37" width="2.63" height="0.34"/>
          <rect x="92.2" y="58.37" width="2.63" height="0.34"/>
          <rect x="95.13" y="58.37" width="2.63" height="0.34"/>
          <rect x="98.06" y="58.37" width="2.63" height="0.34"/>
          <rect x="101" y="58.71" width="2.63" height="0.01"/>
          <rect x="103.93" y="58.71" width="2.63" height="0.01"/>
          <rect x="106.86" y="58.71" width="2.63" height="0.01"/>
          <rect x="109.8" y="58.03" width="2.63" height="0.69"/>
          <rect x="112.73" y="58.71" width="2.63" height="0.01"/>
          <rect x="115.67" y="58.71" width="2.63" height="0.01"/>
          <rect x="118.6" y="58.71" width="2.63" height="0.01"/>
          <rect x="121.53" y="58.71" width="2.63" height="0.01"/>
          <rect x="124.47" y="58.71" width="2.63" height="0.01"/>
          <rect x="127.4" y="58.37" width="2.63" height="0.34"/>
          <rect x="130.34" y="58.71" width="2.63" height="0.01"/>
          <rect x="133.27" y="58.71" width="2.63" height="0.01"/>
          <rect x="136.2" y="58.37" width="2.63" height="0.34"/>
        </g>
      </g>
    </g>
  </g>
  <g class="guide ylabels" font-size="2.82" font-family="'PT Sans Caption','Helvetica Neue','Helvetica',sans-serif" fill="#6C606B" id="fig-be8ae17d39cf4b5ebd1870a7f369d3df-element-12">
    <text x="18.63" y="58.71" text-anchor="end" dy="0.35em">0</text>
    <text x="18.63" y="41.48" text-anchor="end" dy="0.35em">50</text>
    <text x="18.63" y="24.24" text-anchor="end" dy="0.35em">100</text>
    <text x="18.63" y="7" text-anchor="end" dy="0.35em">150</text>
  </g>
  <g font-size="3.88" font-family="'PT Sans','Helvetica Neue','Helvetica',sans-serif" fill="#564A55" stroke="#000000" stroke-opacity="0.000" id="fig-be8ae17d39cf4b5ebd1870a7f369d3df-element-13">
    <text x="8.81" y="30.86" text-anchor="middle" dy="0.35em" transform="rotate(-90, 8.81, 32.86)"># assets</text>
  </g>
</g>
<defs>
<clipPath id="fig-be8ae17d39cf4b5ebd1870a7f369d3df-element-5">
  <path d="M19.63,5 L 155 5 155 60.72 19.63 60.72" />
</clipPath
></defs>
</svg>
