<?xml version="1.0" encoding="UTF-8"?>
<svg xmlns="http://www.w3.org/2000/svg"
     xmlns:xlink="http://www.w3.org/1999/xlink"
     xmlns:gadfly="http://www.gadflyjl.org/ns"
     version="1.2"
     width="160mm" height="80mm" viewBox="0 0 160 80"
     stroke="none"
     fill="#000000"
     stroke-width="0.3"
     font-size="3.88"
>
<g class="plotroot xscalable yscalable" id="fig-1e6ecd9a63fe446ab92311dc324b99c3-element-1">
  <g font-size="3.88" font-family="'PT Sans','Helvetica Neue','Helvetica',sans-serif" fill="#564A55" stroke="#000000" stroke-opacity="0.000" id="fig-1e6ecd9a63fe446ab92311dc324b99c3-element-2">
    <text x="86.2" y="72" text-anchor="middle">time</text>
  </g>
  <g class="guide xlabels" font-size="2.82" font-family="'PT Sans Caption','Helvetica Neue','Helvetica',sans-serif" fill="#6C606B" id="fig-1e6ecd9a63fe446ab92311dc324b99c3-element-3">
    <text x="19.4" y="64.39" text-anchor="middle">1997</text>
    <text x="46.12" y="64.39" text-anchor="middle">1998</text>
    <text x="72.84" y="64.39" text-anchor="middle">1999</text>
    <text x="99.56" y="64.39" text-anchor="middle">2000</text>
    <text x="126.28" y="64.39" text-anchor="middle">2001</text>
    <text x="153" y="64.39" text-anchor="middle">2002</text>
  </g>
  <g clip-path="url(#fig-1e6ecd9a63fe446ab92311dc324b99c3-element-5)" id="fig-1e6ecd9a63fe446ab92311dc324b99c3-element-4">
    <g pointer-events="visible" opacity="1" fill="#000000" fill-opacity="0.000" stroke="#000000" stroke-opacity="0.000" class="guide background" id="fig-1e6ecd9a63fe446ab92311dc324b99c3-element-6">
      <rect x="17.4" y="5" width="137.6" height="55.72"/>
    </g>
    <g class="guide ygridlines xfixed" stroke-dasharray="0.5,0.5" stroke-width="0.2" stroke="#D0D0E0" id="fig-1e6ecd9a63fe446ab92311dc324b99c3-element-7">
      <path fill="none" d="M17.4,58.72 L 155 58.72"/>
      <path fill="none" d="M17.4,50.1 L 155 50.1"/>
      <path fill="none" d="M17.4,41.48 L 155 41.48"/>
      <path fill="none" d="M17.4,32.86 L 155 32.86"/>
      <path fill="none" d="M17.4,24.24 L 155 24.24"/>
      <path fill="none" d="M17.4,15.62 L 155 15.62"/>
      <path fill="none" d="M17.4,7 L 155 7"/>
    </g>
    <g class="guide xgridlines yfixed" stroke-dasharray="0.5,0.5" stroke-width="0.2" stroke="#D0D0E0" id="fig-1e6ecd9a63fe446ab92311dc324b99c3-element-8">
      <path fill="none" d="M19.4,5 L 19.4 60.72"/>
      <path fill="none" d="M46.12,5 L 46.12 60.72"/>
      <path fill="none" d="M72.84,5 L 72.84 60.72"/>
      <path fill="none" d="M99.56,5 L 99.56 60.72"/>
      <path fill="none" d="M126.28,5 L 126.28 60.72"/>
      <path fill="none" d="M153,5 L 153 60.72"/>
    </g>
    <g class="plotpanel" id="fig-1e6ecd9a63fe446ab92311dc324b99c3-element-9">
      <g stroke-width="0.3" fill="#000000" fill-opacity="0.000" class="geometry" stroke="#00BFFF" id="fig-1e6ecd9a63fe446ab92311dc324b99c3-element-10">
        <path fill="none" d="M32.17,34.79 L 32.25 33.44 32.32 33.73 32.39 34.16 32.61 34.7 32.69 35.23 32.76 35.56 32.83 34.99 33.12 34.55 33.2 34.97 33.27 35.28 33.34 34.95 33.42 35.29 33.63 35.79 33.71 36.29 33.78 36.42 33.85 36.13 33.93 36.43 34.15 35.04 34.22 35.54 34.29 33.48 34.36 34.1 34.44 34.64 34.66 35.2 34.73 35.7 34.8 36.02 34.88 35.92 34.95 36.41 35.17 36.5 35.24 36.92 35.31 37.35 35.39 37.34 35.46 37.11 35.68 35.35 35.75 35.83 35.82 35.57 35.9 35.93 35.97 36.4 36.19 33.14 36.26 33.08 36.34 32.81 36.41 32.62 36.48 32.22 36.7 32.92 36.77 33.52 36.85 33.84 36.92 34.46 36.99 34.38 37.28 34.84 37.36 31.17 37.43 31.95 37.5 32.64 37.72 33.31 37.8 33.94 37.87 34.54 37.94 33.81 38.01 34.17 38.23 34.06 38.31 34.55 38.38 31.67 38.45 32.38 38.53 33 38.75 33.63 38.82 34.16 38.89 34.68 38.96 34.9 39.04 35.17 39.26 35.42 39.33 35.58 39.4 35.84 39.48 35.96 39.55 36.33 39.77 36.69 39.84 36.8 39.91 36.58 39.99 36.45 40.06 36.84 40.28 37.18 40.35 37.61 40.42 38 40.5 38.19 40.57 37.65 40.79 37.07 40.86 36.64 40.94 35.41 41.01 35.85 41.08 34.41 41.3 34.49 41.37 19.09 41.45 15.3 41.52 16.91 41.59 17.8 41.81 18.99 41.88 18.9 41.96 20.33 42.03 21.68 42.1 22.89 42.32 23.74 42.4 24.77 42.47 25.87 42.54 25.75 42.61 26.42 42.83 26.98 42.91 26.87 42.98 27.62 43.05 28.45 43.13 28.62 43.34 29.48 43.42 29.22 43.49 30.04 43.64 30.88 43.86 31.61 43.93 30.79 44 31.53 44.07 32.18 44.15 32.83 44.37 33 44.44 33.65 44.51 34.04 44.59 34.44 44.66 33.78 44.88 34.39 44.95 34.46 45.02 34.95 45.1 35.46 45.17 35.32 45.39 35.37 45.46 35.64 45.53 34.8 45.68 35.09 45.9 35.57 45.97 34.45 46.05 33.47 46.26 34.11 46.48 34.63 46.56 35.19 46.63 35.06 46.7 35.56 46.78 35.66 46.99 31.7 47.07 31.84 47.14 31.83 47.21 32.42 47.29 32.85 47.58 32.98 47.65 32.32 47.72 32.72 47.8 33.09 48.02 33.58 48.09 34.21 48.16 34.08 48.24 34.34 48.31 34.62 48.53 35.03 48.6 33.41 48.67 33.97 48.75 34.58 48.82 35.09 49.04 35.25 49.11 35.77 49.18 35.94 49.26 36.44 49.33 36.84 49.62 37.17 49.7 37.57 49.77 37.46 49.84 37.76 50.06 37.96 50.13 38.26 50.21 38.18 50.28 37.61 50.35 37.83 50.57 38.22 50.65 38.57 50.72 38.81 50.79 38.95 50.86 38.13 51.08 36.05 51.16 36.47 51.23 36.22 51.3 36.64 51.38 37.09 51.59 37.52 51.67 37.31 51.74 37.73 51.81 38 51.89 38.3 52.11 38.16 52.18 38.43 52.25 38.21 52.32 38.48 52.4 38.82 52.62 38.93 52.69 39.22 52.76 39.11 52.84 39.19 52.91 38.64 53.13 38.96 53.2 39.26 53.27 38.59 53.35 38.5 53.64 38.39 53.71 38.74 53.78 38.88 53.86 39.14 53.93 38.59 54.15 37.75 54.22 38.15 54.3 38.48 54.37 38.77 54.44 38.31 54.66 37.81 54.73 35.71 54.81 36.21 54.88 36.28 54.95 35.44 55.17 35.62 55.24 36.14 55.32 36.4 55.39 36.28 55.46 36.24 55.68 35.96 55.76 36.44 55.83 36.54 55.9 36.97 55.97 37.4 56.19 37.37 56.27 37.73 56.34 38.07 56.41 37.96 56.49 38.21 56.78 38.46 56.85 37.15 56.92 37.56 57 37.83 57.22 37.91 57.29 38.3 57.36 38.65 57.43 38.23 57.51 37.76 57.73 36.31 57.8 36.78 57.87 37.21 57.95 37.41 58.02 36.12 58.24 36.54 58.31 34.64 58.38 34.76 58.46 33.79 58.53 34.42 58.75 34.85 58.82 35.4 58.89 34.82 58.97 34.69 59.04 35.2 59.26 35.7 59.33 36.11 59.41 36.49 59.48 36.01 59.77 36.49 59.84 36.45 59.92 36.88 59.99 36.73 60.06 36.87 60.28 37.18 60.35 37.62 60.43 37.31 60.5 37.69 60.57 37.71 60.79 38.08 60.87 38.41 60.94 36.86 61.01 37.3 61.08 34.97 61.3 35.53 61.38 35.9 61.45 35.09 61.52 35.51 61.6 34.77 61.82 33.34 61.89 33.7 61.96 28.7 62.03 29.37 62.11 30.05 62.33 30.88 62.4 31.51 62.47 31.51 62.55 31.48 62.62 31.89 62.84 32.03 62.91 31.23 62.98 31.01 63.06 31.75 63.13 32.32 63.35 32.59 63.42 33.13 63.49 33.72 63.57 34.01 63.64 28.32 63.86 28.45 63.93 16.45 64.01 15.16 64.08 16.75 64.15 18.14 64.44 19.43 64.52 15.62 64.59 16.61 64.66 16.69 64.88 16.53 64.95 17.25 65.03 18.66 65.1 19.99 65.17 19.76 65.39 21.15 65.47 22.43 65.54 23.61 65.61 21.7 65.68 21.7 65.9 22.98 65.98 24.17 66.05 25.32 66.12 23.63 66.2 22.27 66.41 22.87 66.49 23.53 66.56 24.66 66.63 25.17 66.71 25.84 66.93 25.01 67 25.62 67.07 26.66 67.14 27.33 67.22 23.48 67.44 24.49 67.51 25.54 67.58 26.62 67.66 27.55 67.73 28.33 67.95 29.05 68.02 29.94 68.09 30.59 68.17 31.38 68.24 31.07 68.46 31.33 68.53 31.57 68.6 32.32 68.68 32.83 68.75 32.73 68.97 33.26 69.04 33.45 69.12 34.08 69.19 34.45 69.26 34.98 69.48 35.29 69.55 35.43 69.63 35.92 69.7 36.33 69.77 36.53 69.99 36.5 70.06 34.58 70.14 35.04 70.28 35.55 70.5 35.98 70.58 33.29 70.65 33.51 70.72 34.08 70.79 33.04 71.01 31.5 71.09 31.93 71.16 32.52 71.23 33.21 71.31 32.68 71.52 33.36 71.6 31.8 71.67 31.14 71.74 31.91 71.82 31.69 72.04 32.26 72.11 32.34 72.18 33.05 72.25 31.92 72.55 32.63 72.62 33.32 72.69 33.2 72.77 33.53 73.13 34.14 73.2 34.74 73.28 34.42 73.35 32.78 73.42 33.44 73.64 34.02 73.72 34.21 73.79 32.92 73.86 33.5 73.93 32.56 74.23 30.67 74.3 31.29 74.37 32.01 74.45 31.44 74.66 31.89 74.74 32.43 74.81 32.23 74.88 32.68 74.96 32.05 75.18 32.27 75.25 32.84 75.32 33.14 75.39 33.54 75.47 32.5 75.69 32.93 75.76 33.56 75.83 31.85 75.91 32.45 75.98 30.71 76.27 30.02 76.34 30.54 76.42 30.49 76.49 30.87 76.71 31.66 76.78 29.78 76.85 30.62 76.93 30.61 77 31.21 77.22 31.84 77.29 32.56 77.37 32.88 77.44 33.55 77.51 33.14 77.73 31.59 77.8 32.22 77.88 32.9 77.95 33.46 78.02 33.8 78.24 34.39 78.31 34.53 78.39 35.11 78.46 35.4 78.53 34.87 78.75 34.47 78.83 35.04 78.9 31.96 78.97 32.59 79.04 32.11 79.26 32.68 79.34 31.51 79.41 32.02 79.48 32.18 79.77 32.77 79.85 31.62 79.92 32.33 79.99 32.86 80.07 32.84 80.29 33.48 80.36 33.87 80.43 34.26 80.5 33.54 80.58 34.08 80.8 34.64 80.87 32.66 80.94 32.65 81.02 31.23 81.09 30.9 81.31 31.68 81.38 32.41 81.45 33.1 81.53 33.37 81.6 33.83 81.82 34.27 81.89 33.88 81.96 33.09 82.04 33.19 82.11 33.2 82.33 33.45 82.4 34.03 82.48 34.04 82.55 34.49 82.62 35.05 82.84 33.11 82.91 33.77 82.99 34.27 83.06 34.56 83.13 35.05 83.35 35.35 83.42 34.12 83.5 33.24 83.57 32.81 83.64 32 83.94 31.71 84.01 32.29 84.08 33 84.15 33.62 84.37 32.23 84.45 32.84 84.52 32.72 84.59 33.4 84.67 33.32 84.89 33.71 84.96 34.34 85.03 34.8 85.1 33.02 85.18 33.48 85.4 34.11 85.47 34.63 85.54 34.67 85.62 35.21 85.69 34.79 85.91 35.36 85.98 35.14 86.05 34.56 86.13 33.97 86.2 34.43 86.49 34.76 86.56 35.3 86.64 35.69 86.71 36.2 86.93 36.47 87 36.88 87.08 37.2 87.15 37.58 87.22 37.57 87.44 37.72 87.51 37.65 87.59 35.03 87.66 35.58 87.73 35.05 87.95 35.55 88.02 35.78 88.1 35.64 88.17 36.15 88.24 34.75 88.46 34.83 88.54 35.4 88.61 35.8 88.68 35.33 88.75 35.66 88.97 35.54 89.05 36.04 89.12 35.55 89.19 34.77 89.27 35.28 89.48 33.34 89.56 33.98 89.63 34.13 89.7 34.35 89.78 34.66 90 34.78 90.07 33.86 90.14 34.46 90.21 34.2 90.29 33.72 90.51 33.81 90.58 32.82 90.65 33.46 90.73 33.82 90.8 34.01 91.09 31.11 91.16 31.77 91.24 32.4 91.31 33.08 91.53 33.72 91.6 34.17 91.67 34.58 91.75 34.13 91.82 34.74 92.04 34.52 92.11 35.1 92.19 33.32 92.26 33.96 92.33 32.01 92.55 32.71 92.62 33.31 92.7 33.96 92.77 33.95 92.84 33.99 93.06 34.6 93.13 33.82 93.21 34.4 93.28 33.41 93.35 33.87 93.57 33.61 93.65 34.25 93.72 33.41 93.79 31.98 93.86 32.69 94.08 29.97 94.16 30.72 94.23 31.4 94.3 30.3 94.38 31.02 94.59 31.06 94.67 31.66 94.74 32.03 94.81 32.22 94.89 28.43 95.11 28.6 95.18 29.35 95.25 30.12 95.32 30.86 95.4 31.53 95.62 32.17 95.69 32.8 95.76 33.12 95.84 33.63 95.91 34.12 96.13 34.22 96.2 34.81 96.27 33.76 96.35 34.15 96.42 34.28 96.64 34.85 96.71 35.41 96.79 35.16 96.93 35.32 97.15 35.86 97.22 36.11 97.3 35.49 97.37 35.82 97.44 35.99 97.66 34.93 97.73 35.2 97.81 35.16 97.88 35.61 97.95 36.1 98.17 36.38 98.25 36.84 98.32 36.79 98.39 36.94 98.46 37.31 98.68 37.73 98.76 38.09 98.83 37.69 98.9 38.08 99.19 36.93 99.27 37.36 99.34 37.79 99.41 38.09 99.49 38.47 99.78 38.76 99.85 38.33 99.92 30.7 100 31.49 100.07 32.24 100.29 30.14 100.36 30.53 100.44 30.62 100.51 31.33 100.58 31.53 100.87 31.84 100.95 32.35 101.02 33.06 101.09 33.46 101.31 34.06 101.38 31.08 101.46 31.73 101.53 32.38 101.6 33 101.82 30.34 101.9 28.94 101.97 29.46 102.04 30.33 102.11 30.69 102.33 31.49 102.41 32.24 102.48 32.35 102.55 31.12 102.63 31.86 102.84 30.69 102.92 31.48 102.99 31.95 103.06 32.19 103.14 32.9 103.43 29.61 103.5 30.41 103.57 31.08 103.65 31.73 103.87 31.49 103.94 31.78 104.01 31.78 104.09 32.18 104.16 32.89 104.38 31.93 104.45 31.93 104.52 29.89 104.6 30.51 104.67 29.01 104.89 29.81 104.96 30.37 105.03 29.93 105.11 28.75 105.18 23.21 105.4 24.37 105.47 25.42 105.55 24.71 105.62 25.78 105.69 25.95 105.91 27 105.98 27.98 106.06 28.51 106.13 29.43 106.2 29.57 106.42 30.26 106.49 31 106.57 31.53 106.64 32.16 106.71 32.53 106.93 32.81 107.01 33.18 107.08 33.8 107.15 32.03 107.23 31.29 107.44 20.97 107.52 19.82 107.59 19.4 107.66 20.56 107.96 21.86 108.03 23.1 108.1 21.61 108.17 22.55 108.25 23.78 108.47 24.73 108.54 25.53 108.61 25.89 108.69 25.48 108.76 26.51 108.98 26.75 109.05 27.63 109.12 28.33 109.2 27.74 109.27 27.7 109.49 28.4 109.56 27.76 109.63 28.45 109.71 28.79 109.78 29.48 110 28.67 110.07 29.5 110.15 28.96 110.22 28.73 110.29 29.04 110.58 29.9 110.66 27.33 110.73 28.3 110.8 27.97 111.02 27.71 111.09 28.51 111.17 29.25 111.24 29.84 111.31 30.5 111.53 31.26 111.61 31.76 111.68 31.47 111.75 32.23 111.82 32.83 112.04 33.04 112.12 32.79 112.19 33.23 112.26 33.88 112.34 32.84 112.55 33.24 112.63 33.5 112.7 34.08 112.77 34.66 112.85 34.81 113.07 35.04 113.21 35.07 113.28 34.22 113.36 34.59 113.58 34.06 113.65 34.64 113.72 35.17 113.8 35.39 113.87 35.91 114.09 35.94 114.16 36.45 114.23 36.12 114.31 36.2 114.38 36.23 114.6 36.03 114.67 35.8 114.74 36.06 114.82 35.2 114.89 35.72 115.11 33.88 115.18 34.24 115.26 34.73 115.33 35.3 115.4 35.37 115.62 35.66 115.69 35.52 115.77 36.03 115.84 36.23 115.91 36.23 116.13 36.38 116.2 35.86 116.28 36.21 116.35 36.63 116.42 36.41 116.64 36.82 116.72 37.13 116.79 37.55 116.86 37.8 116.93 38.19 117.15 38.54 117.23 38.72 117.3 38.98 117.37 39.08 117.45 38.66 117.74 38.98 117.81 38.6 117.88 38.14 117.96 38.21 118.18 38.34 118.25 38.58 118.32 38.71 118.39 39.04 118.47 39.28 118.69 38.66 118.76 37.37 118.83 37.1 118.91 37.27 118.98 37.68 119.2 38.08 119.27 38.09 119.34 37.93 119.42 38.31 119.49 35.65 119.71 34.86 119.78 35.43 119.86 35.67 119.93 36.04 120 36.53 120.22 34.82 120.29 35.23 120.37 35.1 120.44 34.2 120.51 31.66 120.73 28.43 120.8 29.36 120.88 29 120.95 29.75 121.02 26.72 121.24 27.64 121.32 28.6 121.39 29.51 121.46 28.26 121.53 29.19 121.75 29.66 121.83 29.85 121.9 29.04 121.97 29.79 122.05 30.56 122.26 31.35 122.34 32.07 122.41 32.79 122.48 32.29 122.56 32.79 122.78 30.82 122.85 31.11 122.92 29.87 122.99 30.63 123.07 30.76 123.29 31.5 123.36 30.81 123.43 31.56 123.58 30.83 123.8 30.82 123.87 31.51 123.94 31.85 124.02 32.52 124.09 31.39 124.31 32.15 124.38 32.65 124.45 27.89 124.53 27.67 124.6 28.5 124.82 28.18 124.89 28.94 124.97 29.66 125.04 30.24 125.11 30.26 125.33 29.27 125.4 29.93 125.48 30.09 125.55 27.31 125.62 28.1 125.91 27.18 125.99 28.03 126.06 28.63 126.13 29.5 126.43 29.92 126.5 27.83 126.57 22.02 126.64 22.97 126.86 22.29 126.94 23.53 127.01 24.68 127.08 25.56 127.16 26.34 127.45 27.24 127.52 28.12 127.59 29.05 127.67 29.29 127.89 30.09 127.96 30.92 128.03 31.08 128.1 31.83 128.18 32.44"/>
      </g>
      <g stroke-width="0.3" fill="#000000" fill-opacity="0.000" class="geometry" stroke="#FF0000" id="fig-1e6ecd9a63fe446ab92311dc324b99c3-element-11">
        <path fill="none" d="M32.18,36.82 L 32.3 36.72 32.43 36.63 32.56 36.55 32.69 36.47 32.82 36.41 32.94 36.35 33.07 36.3 33.2 36.26 33.33 36.22 33.46 36.19 33.58 36.17 33.71 36.16 33.84 36.16 33.97 36.16 34.1 36.16 34.22 36.18 34.35 36.2 34.48 36.23 34.61 36.26 34.74 36.3 34.86 36.34 34.99 36.39 35.12 36.45 35.25 36.51 35.38 36.58 35.5 36.64 35.63 36.72 35.76 36.79 35.89 36.87 36.02 36.95 36.14 37.04 36.27 37.13 36.4 37.22 36.53 37.31 36.66 37.41 36.78 37.51 36.91 37.61 37.04 37.7 37.17 37.79 37.3 37.88 37.42 37.94 37.55 37.98 37.68 38.01 37.81 38.03 37.94 38.04 38.06 37.99 38.19 37.93 38.32 37.84 38.45 37.7 38.58 37.54 38.7 37.36 38.83 37.16 38.96 36.92 39.09 36.66 39.22 36.39 39.34 36.12 39.47 35.84 39.6 35.55 39.73 35.27 39.86 34.99 39.98 34.72 40.11 34.45 40.24 34.2 40.37 33.96 40.5 33.73 40.62 33.52 40.75 33.33 40.88 33.16 41.01 33.06 41.14 33 41.26 32.97 41.39 32.94 41.52 32.93 41.65 32.96 41.78 33.02 41.9 33.08 42.03 33.17 42.16 33.28 42.29 33.39 42.42 33.54 42.54 33.7 42.67 33.89 42.8 34.08 42.93 34.28 43.06 34.49 43.18 34.71 43.31 34.93 43.44 35.15 43.57 35.33 43.7 35.5 43.82 35.67 43.95 35.82 44.08 35.91 44.21 35.95 44.34 35.95 44.46 35.95 44.59 35.93 44.72 35.84 44.85 35.72 44.98 35.59 45.1 35.41 45.23 35.23 45.36 35.05 45.49 34.87 45.62 34.68 45.74 34.5 45.87 34.33 46 34.17 46.13 34 46.26 33.85 46.38 33.72 46.51 33.64 46.64 33.58 46.77 33.57 46.9 33.58 47.02 33.59 47.15 33.61 47.28 33.65 47.41 33.78 47.54 33.93 47.66 34.08 47.79 34.24 47.92 34.4 48.05 34.61 48.18 34.82 48.3 35.04 48.43 35.27 48.56 35.5 48.69 35.73 48.82 35.99 48.94 36.19 49.07 36.38 49.2 36.57 49.33 36.74 49.46 36.84 49.58 36.93 49.71 37.01 49.84 37.02 49.97 37.01 50.1 37 50.22 36.95 50.35 36.88 50.48 36.76 50.61 36.62 50.74 36.47 50.86 36.32 50.99 36.13 51.12 35.93 51.25 35.71 51.38 35.49 51.5 35.26 51.63 35.03 51.76 34.81 51.89 34.6 52.02 34.41 52.14 34.22 52.27 34.03 52.4 33.91 52.53 33.8 52.66 33.72 52.78 33.66 52.91 33.61 53.04 33.6 53.17 33.6 53.3 33.61 53.42 33.66 53.55 33.71 53.68 33.77 53.81 33.84 53.94 33.93 54.06 34.02 54.19 34.11 54.32 34.2 54.45 34.3 54.58 34.42 54.7 34.53 54.83 34.65 54.96 34.77 55.09 34.89 55.22 35 55.34 35.09 55.47 35.17 55.6 35.25 55.73 35.31 55.86 35.34 55.98 35.35 56.11 35.33 56.24 35.31 56.37 35.26 56.5 35.16 56.62 35.06 56.75 34.94 56.88 34.82 57.01 34.66 57.14 34.5 57.26 34.35 57.39 34.2 57.52 34.05 57.65 33.91 57.78 33.78 57.9 33.66 58.03 33.58 58.16 33.5 58.29 33.41 58.42 33.35 58.54 33.32 58.67 33.29 58.8 33.27 58.93 33.24 59.06 33.2 59.18 33.17 59.31 33.13 59.44 33.06 59.57 32.99 59.7 32.92 59.82 32.85 59.95 32.76 60.08 32.67 60.21 32.6 60.34 32.54 60.46 32.48 60.59 32.42 60.72 32.38 60.85 32.33 60.98 32.27 61.1 32.2 61.23 32.13 61.36 32.06 61.49 31.95 61.62 31.83 61.74 31.7 61.87 31.57 62 31.43 62.13 31.27 62.26 31.12 62.38 30.98 62.51 30.84 62.64 30.71 62.77 30.59 62.9 30.49 63.02 30.42 63.15 30.39 63.28 30.36 63.41 30.35 63.54 30.36 63.66 30.38 63.79 30.41 63.92 30.44 64.05 30.47 64.18 30.48 64.3 30.47 64.43 30.46 64.56 30.43 64.69 30.38 64.82 30.33 64.94 30.28 65.07 30.22 65.2 30.17 65.33 30.13 65.46 30.09 65.58 30.06 65.71 30.05 65.84 30.04 65.97 30.05 66.1 30.05 66.22 30.06 66.35 30.08 66.48 30.11 66.61 30.14 66.74 30.18 66.86 30.21 66.99 30.25 67.12 30.32 67.25 30.43 67.38 30.53 67.5 30.64 67.63 30.8 67.76 30.99 67.89 31.17 68.02 31.36 68.14 31.56 68.27 31.76 68.4 31.96 68.53 32.17 68.66 32.37 68.78 32.54 68.91 32.71 69.04 32.86 69.17 33.01 69.3 33.16 69.42 33.29 69.55 33.39 69.68 33.47 69.81 33.51 69.94 33.54 70.06 33.57 70.19 33.57 70.32 33.55 70.45 33.52 70.58 33.47 70.7 33.41 70.83 33.35 70.96 33.26 71.09 33.16 71.22 33.06 71.34 32.96 71.47 32.85 71.6 32.74 71.73 32.63 71.86 32.51 71.98 32.41 72.11 32.3 72.24 32.2 72.37 32.11 72.5 32.03 72.62 31.95 72.75 31.88 72.88 31.82 73.01 31.76 73.14 31.71 73.26 31.66 73.39 31.63 73.52 31.59 73.65 31.57 73.78 31.55 73.9 31.56 74.03 31.57 74.16 31.58 74.29 31.59 74.42 31.61 74.54 31.67 74.67 31.74 74.8 31.82 74.93 31.9 75.06 32 75.18 32.11 75.31 32.23 75.44 32.36 75.57 32.5 75.7 32.64 75.82 32.78 75.95 32.91 76.08 33.04 76.21 33.16 76.34 33.27 76.46 33.38 76.59 33.45 76.72 33.51 76.85 33.56 76.98 33.58 77.1 33.6 77.23 33.61 77.36 33.58 77.49 33.53 77.62 33.46 77.75 33.38 77.87 33.29 78 33.16 78.13 33.01 78.26 32.85 78.39 32.69 78.51 32.52 78.64 32.34 78.77 32.16 78.9 31.98 79.03 31.82 79.15 31.66 79.28 31.5 79.41 31.37 79.54 31.25 79.67 31.13 79.79 31.02 79.92 30.93 80.05 30.86 80.18 30.8 80.31 30.75 80.43 30.69 80.56 30.65 80.69 30.62 80.82 30.6 80.95 30.58 81.07 30.58 81.2 30.59 81.33 30.61 81.46 30.64 81.59 30.69 81.71 30.75 81.84 30.83 81.97 30.92 82.1 31.04 82.23 31.16 82.35 31.29 82.48 31.44 82.61 31.62 82.74 31.79 82.87 31.96 82.99 32.14 83.12 32.31 83.25 32.48 83.38 32.64 83.51 32.8 83.63 32.94 83.76 33.08 83.89 33.22 84.02 33.35 84.15 33.46 84.27 33.59 84.4 33.72 84.53 33.85 84.66 33.97 84.79 34.1 84.91 34.21 85.04 34.31 85.17 34.4 85.3 34.48 85.43 34.55 85.55 34.6 85.68 34.62 85.81 34.62 85.94 34.61 86.07 34.6 86.19 34.56 86.32 34.52 86.45 34.48 86.58 34.45 86.71 34.41 86.83 34.38 86.96 34.35 87.09 34.33 87.22 34.34 87.35 34.37 87.47 34.39 87.6 34.42 87.73 34.46 87.86 34.51 87.99 34.55 88.11 34.57 88.24 34.59 88.37 34.61 88.5 34.6 88.63 34.59 88.75 34.55 88.88 34.51 89.01 34.46 89.14 34.42 89.27 34.38 89.39 34.35 89.52 34.32 89.65 34.29 89.78 34.26 89.91 34.25 90.03 34.23 90.16 34.18 90.29 34.13 90.42 34.07 90.55 33.99 90.67 33.9 90.8 33.77 90.93 33.62 91.06 33.46 91.19 33.31 91.31 33.15 91.44 32.98 91.57 32.81 91.7 32.65 91.83 32.52 91.95 32.39 92.08 32.27 92.21 32.18 92.34 32.09 92.47 32.02 92.59 31.96 92.72 31.9 92.85 31.85 92.98 31.82 93.11 31.79 93.23 31.79 93.36 31.79 93.49 31.8 93.62 31.81 93.75 31.84 93.87 31.89 94 31.96 94.13 32.04 94.26 32.11 94.39 32.22 94.51 32.33 94.64 32.43 94.77 32.54 94.9 32.64 95.03 32.74 95.15 32.84 95.28 32.92 95.41 32.96 95.54 32.99 95.67 33.03 95.79 33.04 95.92 33.04 96.05 33.02 96.18 32.99 96.31 32.96 96.43 32.95 96.56 32.95 96.69 32.95 96.82 32.96 96.95 32.98 97.07 32.99 97.2 33 97.33 33.01 97.46 33.01 97.59 33 97.71 32.99 97.84 32.95 97.97 32.91 98.1 32.87 98.23 32.81 98.35 32.75 98.48 32.68 98.61 32.6 98.74 32.53 98.87 32.45 98.99 32.38 99.12 32.31 99.25 32.25 99.38 32.18 99.51 32.12 99.63 32.06 99.76 32 99.89 31.94 100.02 31.88 100.15 31.83 100.27 31.77 100.4 31.72 100.53 31.71 100.66 31.71 100.79 31.71 100.91 31.72 101.04 31.72 101.17 31.75 101.3 31.79 101.43 31.83 101.55 31.89 101.68 31.97 101.81 32.05 101.94 32.12 102.07 32.19 102.19 32.23 102.32 32.27 102.45 32.31 102.58 32.34 102.71 32.34 102.83 32.35 102.96 32.33 103.09 32.3 103.22 32.26 103.35 32.21 103.47 32.17 103.6 32.12 103.73 32.07 103.86 32.02 103.99 31.96 104.11 31.91 104.24 31.84 104.37 31.76 104.5 31.67 104.63 31.56 104.75 31.44 104.88 31.32 105.01 31.19 105.14 31.03 105.27 30.89 105.39 30.75 105.52 30.62 105.65 30.49 105.78 30.37 105.91 30.26 106.03 30.17 106.16 30.1 106.29 30.04 106.42 29.98 106.55 29.95 106.67 29.92 106.8 29.91 106.93 29.91 107.06 29.91 107.19 29.94 107.31 29.99 107.44 30.04 107.57 30.11 107.7 30.18 107.83 30.25 107.95 30.33 108.08 30.42 108.21 30.54 108.34 30.69 108.47 30.85 108.59 31.01 108.72 31.17 108.85 31.33 108.98 31.49 109.11 31.65 109.23 31.81 109.36 31.97 109.49 32.1 109.62 32.22 109.75 32.29 109.87 32.34 110 32.38 110.13 32.38 110.26 32.33 110.39 32.25 110.51 32.16 110.64 32.05 110.77 31.94 110.9 31.84 111.03 31.72 111.15 31.59 111.28 31.5 111.41 31.41 111.54 31.32 111.67 31.24 111.79 31.22 111.92 31.2 112.05 31.18 112.18 31.17 112.31 31.16 112.43 31.16 112.56 31.17 112.69 31.18 112.82 31.21 112.95 31.23 113.07 31.26 113.2 31.29 113.33 31.33 113.46 31.38 113.59 31.44 113.71 31.51 113.84 31.59 113.97 31.69 114.1 31.8 114.23 31.92 114.35 32.06 114.48 32.19 114.61 32.33 114.74 32.46 114.87 32.58 114.99 32.68 115.12 32.78 115.25 32.87 115.38 32.92 115.51 32.96 115.63 32.99 115.76 33.01 115.89 33.01 116.02 33.01 116.15 33.01 116.27 33 116.4 32.99 116.53 32.98 116.66 32.97 116.79 32.95 116.91 32.91 117.04 32.87 117.17 32.82 117.3 32.73 117.43 32.63 117.55 32.53 117.68 32.4 117.81 32.25 117.94 32.09 118.07 31.92 118.19 31.73 118.32 31.55 118.45 31.39 118.58 31.22 118.71 31.07 118.83 30.93 118.96 30.8 119.09 30.68 119.22 30.57 119.35 30.46 119.47 30.38 119.6 30.31 119.73 30.25 119.86 30.19 119.99 30.15 120.11 30.11 120.24 30.08 120.37 30.06 120.5 30.05 120.63 30.05 120.75 30.06 120.88 30.1 121.01 30.14 121.14 30.2 121.27 30.25 121.39 30.33 121.52 30.41 121.65 30.5 121.78 30.58 121.91 30.67 122.03 30.76 122.16 30.85 122.29 30.93 122.42 31.01 122.55 31.08 122.67 31.15 122.8 31.22 122.93 31.28 123.06 31.32 123.19 31.35 123.31 31.38 123.44 31.4 123.57 31.37 123.7 31.29 123.83 31.22 123.95 31.1 124.08 30.96 124.21 30.83 124.34 30.71 124.47 30.59 124.59 30.48 124.72 30.38 124.85 30.29 124.98 30.21 125.11 30.14 125.23 30.09 125.36 30.04 125.49 30 125.62 29.97 125.75 29.95 125.87 29.94 126 29.93 126.13 29.94 126.26 29.95 126.39 29.97 126.51 30 126.64 30.04 126.77 30.09 126.9 30.15 127.03 30.22 127.15 30.3 127.28 30.39 127.41 30.5 127.54 30.62 127.67 30.76 127.79 30.91 127.92 31.07 128.05 31.26"/>
      </g>
    </g>
  </g>
  <g class="guide ylabels" font-size="2.82" font-family="'PT Sans Caption','Helvetica Neue','Helvetica',sans-serif" fill="#6C606B" id="fig-1e6ecd9a63fe446ab92311dc324b99c3-element-12">
    <text x="16.4" y="58.72" text-anchor="end" dy="0.35em">-6</text>
    <text x="16.4" y="50.1" text-anchor="end" dy="0.35em">-4</text>
    <text x="16.4" y="41.48" text-anchor="end" dy="0.35em">-2</text>
    <text x="16.4" y="32.86" text-anchor="end" dy="0.35em">0</text>
    <text x="16.4" y="24.24" text-anchor="end" dy="0.35em">2</text>
    <text x="16.4" y="15.62" text-anchor="end" dy="0.35em">4</text>
    <text x="16.4" y="7" text-anchor="end" dy="0.35em">6</text>
  </g>
  <g font-size="3.88" font-family="'PT Sans','Helvetica Neue','Helvetica',sans-serif" fill="#564A55" stroke="#000000" stroke-opacity="0.000" id="fig-1e6ecd9a63fe446ab92311dc324b99c3-element-13">
    <text x="8.81" y="30.86" text-anchor="middle" dy="0.35em" transform="rotate(-90, 8.81, 32.86)">volatility</text>
  </g>
</g>
<defs>
<clipPath id="fig-1e6ecd9a63fe446ab92311dc324b99c3-element-5">
  <path d="M17.4,5 L 155 5 155 60.72 17.4 60.72" />
</clipPath
></defs>
</svg>
