<?xml version="1.0" encoding="UTF-8"?>
<svg xmlns="http://www.w3.org/2000/svg"
     xmlns:xlink="http://www.w3.org/1999/xlink"
     xmlns:gadfly="http://www.gadflyjl.org/ns"
     version="1.2"
     width="160mm" height="80mm" viewBox="0 0 160 80"
     stroke="none"
     fill="#000000"
     stroke-width="0.3"
     font-size="3.88"
>
<g class="plotroot xscalable yscalable" id="fig-fd573ec6ded04d2ba162638f7426a486-element-1">
  <g font-size="3.88" font-family="'PT Sans','Helvetica Neue','Helvetica',sans-serif" fill="#564A55" stroke="#000000" stroke-opacity="0.000" id="fig-fd573ec6ded04d2ba162638f7426a486-element-2">
    <text x="87.65" y="72" text-anchor="middle">time of first observation</text>
  </g>
  <g class="guide xlabels" font-size="2.82" font-family="'PT Sans Caption','Helvetica Neue','Helvetica',sans-serif" fill="#6C606B" id="fig-fd573ec6ded04d2ba162638f7426a486-element-3">
    <text x="22.31" y="64.39" text-anchor="middle">1960</text>
    <text x="44.09" y="64.39" text-anchor="middle">1970</text>
    <text x="65.87" y="64.39" text-anchor="middle">1980</text>
    <text x="87.65" y="64.39" text-anchor="middle">1990</text>
    <text x="109.44" y="64.39" text-anchor="middle">2000</text>
    <text x="131.22" y="64.39" text-anchor="middle">2010</text>
    <text x="153" y="64.39" text-anchor="middle">2020</text>
  </g>
  <g clip-path="url(#fig-fd573ec6ded04d2ba162638f7426a486-element-5)" id="fig-fd573ec6ded04d2ba162638f7426a486-element-4">
    <g pointer-events="visible" opacity="1" fill="#000000" fill-opacity="0.000" stroke="#000000" stroke-opacity="0.000" class="guide background" id="fig-fd573ec6ded04d2ba162638f7426a486-element-6">
      <rect x="20.31" y="5" width="134.69" height="55.72"/>
    </g>
    <g class="guide ygridlines xfixed" stroke-dasharray="0.5,0.5" stroke-width="0.2" stroke="#D0D0E0" id="fig-fd573ec6ded04d2ba162638f7426a486-element-7">
      <path fill="none" d="M20.31,58.72 L 155 58.72"/>
      <path fill="none" d="M20.31,48.37 L 155 48.37"/>
      <path fill="none" d="M20.31,38.03 L 155 38.03"/>
      <path fill="none" d="M20.31,27.69 L 155 27.69"/>
      <path fill="none" d="M20.31,17.34 L 155 17.34"/>
      <path fill="none" d="M20.31,7 L 155 7"/>
    </g>
    <g class="guide xgridlines yfixed" stroke-dasharray="0.5,0.5" stroke-width="0.2" stroke="#D0D0E0" id="fig-fd573ec6ded04d2ba162638f7426a486-element-8">
      <path fill="none" d="M22.31,5 L 22.31 60.72"/>
      <path fill="none" d="M44.09,5 L 44.09 60.72"/>
      <path fill="none" d="M65.87,5 L 65.87 60.72"/>
      <path fill="none" d="M87.65,5 L 87.65 60.72"/>
      <path fill="none" d="M109.44,5 L 109.44 60.72"/>
      <path fill="none" d="M131.22,5 L 131.22 60.72"/>
      <path fill="none" d="M153,5 L 153 60.72"/>
    </g>
    <g class="plotpanel" id="fig-fd573ec6ded04d2ba162638f7426a486-element-9">
      <g class="geometry" id="fig-fd573ec6ded04d2ba162638f7426a486-element-10">
        <g class="color_AlphaColorValue{RGB{Float32},Float32}(RGB{Float32}(0.0f0,0.74736935f0,1.0f0),1.0f0)" stroke="#FFFFFF" stroke-width="0.3" fill="#00BFFF" id="fig-fd573ec6ded04d2ba162638f7426a486-element-11">
          <circle cx="44.12" cy="49.46" r="0.9"/>
          <circle cx="72.98" cy="50.25" r="0.9"/>
          <circle cx="137.77" cy="57.51" r="0.9"/>
          <circle cx="112.81" cy="56.22" r="0.9"/>
          <circle cx="94.71" cy="51.19" r="0.9"/>
          <circle cx="95.97" cy="46.53" r="0.9"/>
          <circle cx="80.29" cy="51.47" r="0.9"/>
          <circle cx="137.22" cy="57.06" r="0.9"/>
          <circle cx="113.6" cy="57.11" r="0.9"/>
          <circle cx="90.89" cy="48.12" r="0.9"/>
          <circle cx="59.36" cy="46.62" r="0.9"/>
          <circle cx="75.79" cy="46.43" r="0.9"/>
          <circle cx="104.85" cy="56.23" r="0.9"/>
          <circle cx="109.18" cy="56.43" r="0.9"/>
          <circle cx="51.36" cy="7.53" r="0.9"/>
          <circle cx="72.98" cy="48.86" r="0.9"/>
          <circle cx="81.06" cy="42.65" r="0.9"/>
          <circle cx="109.07" cy="56.54" r="0.9"/>
          <circle cx="26.68" cy="47.76" r="0.9"/>
          <circle cx="94.48" cy="52.07" r="0.9"/>
          <circle cx="101.08" cy="51.49" r="0.9"/>
          <circle cx="139.67" cy="56.49" r="0.9"/>
          <circle cx="112.62" cy="56.87" r="0.9"/>
          <circle cx="95.11" cy="52.13" r="0.9"/>
          <circle cx="83.87" cy="48.53" r="0.9"/>
          <circle cx="44.12" cy="49.63" r="0.9"/>
          <circle cx="103.73" cy="57.19" r="0.9"/>
          <circle cx="105.11" cy="54.59" r="0.9"/>
          <circle cx="121.94" cy="56.74" r="0.9"/>
          <circle cx="44.12" cy="27.68" r="0.9"/>
          <circle cx="49.36" cy="47.43" r="0.9"/>
          <circle cx="76.09" cy="53.46" r="0.9"/>
          <circle cx="105.44" cy="56" r="0.9"/>
          <circle cx="121.87" cy="57.4" r="0.9"/>
          <circle cx="99.11" cy="53.06" r="0.9"/>
          <circle cx="75.79" cy="37.27" r="0.9"/>
          <circle cx="76.09" cy="49.86" r="0.9"/>
          <circle cx="91.71" cy="46.19" r="0.9"/>
          <circle cx="80.45" cy="50.21" r="0.9"/>
          <circle cx="75.79" cy="42.74" r="0.9"/>
          <circle cx="76.09" cy="46.9" r="0.9"/>
          <circle cx="64.5" cy="38.62" r="0.9"/>
          <circle cx="97.59" cy="46.69" r="0.9"/>
          <circle cx="67.95" cy="50.13" r="0.9"/>
          <circle cx="76.09" cy="48.01" r="0.9"/>
          <circle cx="72.98" cy="41.03" r="0.9"/>
          <circle cx="118.37" cy="56.67" r="0.9"/>
          <circle cx="75.79" cy="48.72" r="0.9"/>
          <circle cx="77.85" cy="47.91" r="0.9"/>
          <circle cx="72.98" cy="48.43" r="0.9"/>
          <circle cx="92.39" cy="44.29" r="0.9"/>
          <circle cx="90.38" cy="51.27" r="0.9"/>
          <circle cx="130.34" cy="57.78" r="0.9"/>
          <circle cx="96.8" cy="47.08" r="0.9"/>
          <circle cx="74.57" cy="45.56" r="0.9"/>
          <circle cx="81.7" cy="47.27" r="0.9"/>
          <circle cx="76.09" cy="45.45" r="0.9"/>
          <circle cx="79.83" cy="50.12" r="0.9"/>
          <circle cx="51.36" cy="35.82" r="0.9"/>
          <circle cx="72.98" cy="46.99" r="0.9"/>
          <circle cx="143.1" cy="58.72" r="0.9"/>
          <circle cx="69.84" cy="45.28" r="0.9"/>
          <circle cx="88.16" cy="43.07" r="0.9"/>
          <circle cx="72.98" cy="49.67" r="0.9"/>
          <circle cx="92.96" cy="53.18" r="0.9"/>
          <circle cx="101.5" cy="55.49" r="0.9"/>
          <circle cx="77.43" cy="44.48" r="0.9"/>
          <circle cx="91.38" cy="47.74" r="0.9"/>
          <circle cx="108.91" cy="56.97" r="0.9"/>
          <circle cx="80.83" cy="48.22" r="0.9"/>
          <circle cx="26.68" cy="46.49" r="0.9"/>
          <circle cx="95.54" cy="51.73" r="0.9"/>
          <circle cx="103.91" cy="53.86" r="0.9"/>
          <circle cx="92.85" cy="49.89" r="0.9"/>
          <circle cx="49.36" cy="46.43" r="0.9"/>
          <circle cx="105.73" cy="57.35" r="0.9"/>
          <circle cx="76.09" cy="47.3" r="0.9"/>
          <circle cx="104.63" cy="55.51" r="0.9"/>
          <circle cx="76.09" cy="46.51" r="0.9"/>
          <circle cx="92.47" cy="50.41" r="0.9"/>
          <circle cx="87.89" cy="43.5" r="0.9"/>
          <circle cx="99.66" cy="55.1" r="0.9"/>
          <circle cx="77.85" cy="49.87" r="0.9"/>
          <circle cx="98.28" cy="54.7" r="0.9"/>
          <circle cx="83.32" cy="45.34" r="0.9"/>
          <circle cx="100.39" cy="53.1" r="0.9"/>
          <circle cx="103.11" cy="49.85" r="0.9"/>
          <circle cx="85.51" cy="48.55" r="0.9"/>
          <circle cx="26.68" cy="46.56" r="0.9"/>
          <circle cx="119.14" cy="56.24" r="0.9"/>
          <circle cx="122.35" cy="56.87" r="0.9"/>
          <circle cx="88.16" cy="44.65" r="0.9"/>
          <circle cx="44.12" cy="32.58" r="0.9"/>
          <circle cx="82.96" cy="47" r="0.9"/>
          <circle cx="88.16" cy="48.7" r="0.9"/>
          <circle cx="121.66" cy="57.98" r="0.9"/>
          <circle cx="86.57" cy="49.83" r="0.9"/>
          <circle cx="94.47" cy="46.04" r="0.9"/>
          <circle cx="44.12" cy="46.74" r="0.9"/>
          <circle cx="122.67" cy="58.2" r="0.9"/>
          <circle cx="76.09" cy="51.95" r="0.9"/>
          <circle cx="70.77" cy="50.24" r="0.9"/>
          <circle cx="115.39" cy="57.07" r="0.9"/>
          <circle cx="88.16" cy="49.06" r="0.9"/>
          <circle cx="88.16" cy="47.64" r="0.9"/>
          <circle cx="88.16" cy="53.31" r="0.9"/>
          <circle cx="59.36" cy="44.93" r="0.9"/>
          <circle cx="100.6" cy="56.22" r="0.9"/>
          <circle cx="72.89" cy="47.89" r="0.9"/>
          <circle cx="115.83" cy="58.07" r="0.9"/>
          <circle cx="76.77" cy="35.97" r="0.9"/>
          <circle cx="111.12" cy="57.01" r="0.9"/>
          <circle cx="26.68" cy="46.85" r="0.9"/>
          <circle cx="80.9" cy="40.04" r="0.9"/>
          <circle cx="106.11" cy="56.52" r="0.9"/>
          <circle cx="59.36" cy="43.62" r="0.9"/>
          <circle cx="143.11" cy="58.72" r="0.9"/>
          <circle cx="84.43" cy="47.38" r="0.9"/>
          <circle cx="88.16" cy="48.25" r="0.9"/>
          <circle cx="88.16" cy="50.15" r="0.9"/>
          <circle cx="70.25" cy="47.33" r="0.9"/>
          <circle cx="76.09" cy="45.42" r="0.9"/>
          <circle cx="70.25" cy="45.02" r="0.9"/>
          <circle cx="107.99" cy="55.56" r="0.9"/>
          <circle cx="44.12" cy="29.44" r="0.9"/>
          <circle cx="92.47" cy="45.76" r="0.9"/>
          <circle cx="70.25" cy="48.02" r="0.9"/>
          <circle cx="80.08" cy="48.66" r="0.9"/>
          <circle cx="106.45" cy="54.92" r="0.9"/>
          <circle cx="67.71" cy="48.68" r="0.9"/>
          <circle cx="76.69" cy="51.14" r="0.9"/>
          <circle cx="76.68" cy="49.35" r="0.9"/>
          <circle cx="92.96" cy="44.23" r="0.9"/>
          <circle cx="82.96" cy="45.79" r="0.9"/>
          <circle cx="99.32" cy="47.59" r="0.9"/>
          <circle cx="100.36" cy="53.02" r="0.9"/>
          <circle cx="49.36" cy="47.18" r="0.9"/>
          <circle cx="135.31" cy="57" r="0.9"/>
          <circle cx="125.42" cy="56.27" r="0.9"/>
          <circle cx="90.52" cy="46.85" r="0.9"/>
          <circle cx="92.47" cy="49.39" r="0.9"/>
          <circle cx="100.24" cy="56.41" r="0.9"/>
          <circle cx="125.67" cy="56.53" r="0.9"/>
          <circle cx="121.47" cy="55.98" r="0.9"/>
          <circle cx="128.43" cy="57.78" r="0.9"/>
          <circle cx="130.94" cy="56.89" r="0.9"/>
          <circle cx="98.95" cy="53.68" r="0.9"/>
          <circle cx="76.24" cy="42.21" r="0.9"/>
          <circle cx="77.85" cy="48.05" r="0.9"/>
          <circle cx="49.36" cy="47.96" r="0.9"/>
          <circle cx="127.63" cy="56.71" r="0.9"/>
          <circle cx="44.12" cy="21.75" r="0.9"/>
          <circle cx="26.68" cy="49.35" r="0.9"/>
          <circle cx="72.98" cy="40.37" r="0.9"/>
          <circle cx="73.38" cy="48.4" r="0.9"/>
          <circle cx="102.1" cy="53.77" r="0.9"/>
          <circle cx="96.26" cy="53.66" r="0.9"/>
          <circle cx="49.36" cy="41.18" r="0.9"/>
          <circle cx="106.67" cy="57.55" r="0.9"/>
          <circle cx="83.33" cy="46.55" r="0.9"/>
          <circle cx="65.89" cy="37.9" r="0.9"/>
          <circle cx="109.96" cy="56.7" r="0.9"/>
          <circle cx="88.16" cy="53.08" r="0.9"/>
          <circle cx="85.4" cy="46.36" r="0.9"/>
          <circle cx="49.36" cy="46.14" r="0.9"/>
          <circle cx="110.63" cy="54.44" r="0.9"/>
          <circle cx="89.85" cy="41.82" r="0.9"/>
          <circle cx="49.36" cy="24.64" r="0.9"/>
          <circle cx="87.13" cy="49.9" r="0.9"/>
          <circle cx="82.96" cy="45.06" r="0.9"/>
          <circle cx="79.48" cy="44.53" r="0.9"/>
          <circle cx="110.79" cy="54.14" r="0.9"/>
          <circle cx="95.53" cy="48.39" r="0.9"/>
          <circle cx="97.31" cy="49.15" r="0.9"/>
          <circle cx="100.47" cy="54.99" r="0.9"/>
          <circle cx="76.03" cy="31.91" r="0.9"/>
          <circle cx="65.89" cy="31.12" r="0.9"/>
          <circle cx="121.53" cy="57.02" r="0.9"/>
          <circle cx="88.16" cy="45.68" r="0.9"/>
          <circle cx="92.97" cy="50.36" r="0.9"/>
          <circle cx="44.12" cy="46.99" r="0.9"/>
          <circle cx="108.2" cy="57.91" r="0.9"/>
          <circle cx="136.42" cy="57" r="0.9"/>
          <circle cx="88.16" cy="46.61" r="0.9"/>
          <circle cx="62.13" cy="51.01" r="0.9"/>
          <circle cx="112.64" cy="56.06" r="0.9"/>
          <circle cx="88.16" cy="48.25" r="0.9"/>
          <circle cx="124.43" cy="58.34" r="0.9"/>
          <circle cx="104.77" cy="53.56" r="0.9"/>
          <circle cx="88.16" cy="46.61" r="0.9"/>
          <circle cx="95.22" cy="45.8" r="0.9"/>
          <circle cx="88.16" cy="44.87" r="0.9"/>
          <circle cx="111.45" cy="57.66" r="0.9"/>
          <circle cx="77.85" cy="47.89" r="0.9"/>
          <circle cx="112.62" cy="57.45" r="0.9"/>
          <circle cx="49.36" cy="46.58" r="0.9"/>
          <circle cx="94.79" cy="49.43" r="0.9"/>
          <circle cx="76.09" cy="47.62" r="0.9"/>
          <circle cx="99.69" cy="52.86" r="0.9"/>
          <circle cx="88.16" cy="34.6" r="0.9"/>
          <circle cx="114.06" cy="55.76" r="0.9"/>
          <circle cx="82.34" cy="51.43" r="0.9"/>
          <circle cx="111.49" cy="56.1" r="0.9"/>
          <circle cx="59.36" cy="48.61" r="0.9"/>
          <circle cx="26.68" cy="48.16" r="0.9"/>
          <circle cx="94.79" cy="44.56" r="0.9"/>
          <circle cx="73.38" cy="50.13" r="0.9"/>
          <circle cx="133.14" cy="56.51" r="0.9"/>
          <circle cx="72.98" cy="45.45" r="0.9"/>
          <circle cx="119.02" cy="54.65" r="0.9"/>
          <circle cx="92.15" cy="50.15" r="0.9"/>
          <circle cx="108" cy="57.81" r="0.9"/>
          <circle cx="44.12" cy="40.34" r="0.9"/>
          <circle cx="119.53" cy="58.64" r="0.9"/>
          <circle cx="140.45" cy="58.72" r="0.9"/>
          <circle cx="76.68" cy="50.18" r="0.9"/>
          <circle cx="49.36" cy="49.31" r="0.9"/>
          <circle cx="123.99" cy="57.17" r="0.9"/>
          <circle cx="82.96" cy="49.53" r="0.9"/>
          <circle cx="80.85" cy="41.42" r="0.9"/>
          <circle cx="70.25" cy="47.41" r="0.9"/>
          <circle cx="100.64" cy="56.26" r="0.9"/>
          <circle cx="76.69" cy="45.65" r="0.9"/>
          <circle cx="133.81" cy="57.45" r="0.9"/>
          <circle cx="82.96" cy="42.23" r="0.9"/>
          <circle cx="92.47" cy="41.26" r="0.9"/>
          <circle cx="67.6" cy="42.63" r="0.9"/>
          <circle cx="72.98" cy="49.39" r="0.9"/>
          <circle cx="26.68" cy="49.49" r="0.9"/>
          <circle cx="69.63" cy="41.74" r="0.9"/>
          <circle cx="44.12" cy="45.75" r="0.9"/>
          <circle cx="87.67" cy="43.75" r="0.9"/>
          <circle cx="72.98" cy="40.93" r="0.9"/>
          <circle cx="108.42" cy="47.91" r="0.9"/>
          <circle cx="70.25" cy="45.54" r="0.9"/>
          <circle cx="88.16" cy="41.78" r="0.9"/>
          <circle cx="82.96" cy="52.56" r="0.9"/>
          <circle cx="77.85" cy="50.84" r="0.9"/>
          <circle cx="66.33" cy="49.39" r="0.9"/>
          <circle cx="122.24" cy="58.3" r="0.9"/>
          <circle cx="26.68" cy="53.06" r="0.9"/>
          <circle cx="44.12" cy="49.09" r="0.9"/>
          <circle cx="82.96" cy="45.68" r="0.9"/>
          <circle cx="70.25" cy="46.8" r="0.9"/>
          <circle cx="94.68" cy="53.46" r="0.9"/>
          <circle cx="110.45" cy="56.24" r="0.9"/>
          <circle cx="99.97" cy="52.04" r="0.9"/>
          <circle cx="100.92" cy="50.26" r="0.9"/>
          <circle cx="87.74" cy="46.42" r="0.9"/>
          <circle cx="88.16" cy="45.97" r="0.9"/>
          <circle cx="44.12" cy="49.86" r="0.9"/>
          <circle cx="77.28" cy="48.03" r="0.9"/>
          <circle cx="112.5" cy="56.65" r="0.9"/>
          <circle cx="74.6" cy="49.67" r="0.9"/>
          <circle cx="108.32" cy="57.35" r="0.9"/>
          <circle cx="82.96" cy="49.77" r="0.9"/>
          <circle cx="76.68" cy="50.31" r="0.9"/>
          <circle cx="82.96" cy="44.94" r="0.9"/>
          <circle cx="95.8" cy="40.71" r="0.9"/>
          <circle cx="76.68" cy="50.93" r="0.9"/>
          <circle cx="91.79" cy="43.31" r="0.9"/>
          <circle cx="133.66" cy="55.51" r="0.9"/>
          <circle cx="88.16" cy="51.31" r="0.9"/>
          <circle cx="92.85" cy="53.16" r="0.9"/>
          <circle cx="143.23" cy="58.72" r="0.9"/>
          <circle cx="59.36" cy="41.22" r="0.9"/>
          <circle cx="77.85" cy="48.02" r="0.9"/>
          <circle cx="105.91" cy="56.25" r="0.9"/>
          <circle cx="88.18" cy="36.24" r="0.9"/>
          <circle cx="88.16" cy="51.05" r="0.9"/>
          <circle cx="82.96" cy="40.85" r="0.9"/>
          <circle cx="82.96" cy="45" r="0.9"/>
          <circle cx="82.96" cy="43.23" r="0.9"/>
          <circle cx="105.62" cy="50.96" r="0.9"/>
          <circle cx="82.96" cy="40.55" r="0.9"/>
          <circle cx="49.36" cy="48.98" r="0.9"/>
          <circle cx="76.26" cy="49.31" r="0.9"/>
          <circle cx="88.16" cy="51.44" r="0.9"/>
          <circle cx="59.36" cy="48.87" r="0.9"/>
          <circle cx="82.27" cy="52.64" r="0.9"/>
          <circle cx="77.85" cy="47.29" r="0.9"/>
          <circle cx="131.93" cy="57.96" r="0.9"/>
          <circle cx="91.5" cy="50.05" r="0.9"/>
          <circle cx="96.78" cy="44.6" r="0.9"/>
          <circle cx="92.23" cy="50.34" r="0.9"/>
          <circle cx="138.76" cy="57.63" r="0.9"/>
          <circle cx="44.12" cy="40.66" r="0.9"/>
          <circle cx="134.46" cy="58.13" r="0.9"/>
          <circle cx="95.9" cy="53.25" r="0.9"/>
          <circle cx="83.29" cy="51.32" r="0.9"/>
          <circle cx="96.66" cy="49.24" r="0.9"/>
          <circle cx="73.38" cy="45.91" r="0.9"/>
          <circle cx="123.37" cy="58.1" r="0.9"/>
          <circle cx="70.26" cy="41.55" r="0.9"/>
          <circle cx="88.16" cy="46.58" r="0.9"/>
          <circle cx="44.12" cy="48.62" r="0.9"/>
          <circle cx="77.85" cy="49.81" r="0.9"/>
          <circle cx="98.27" cy="54.46" r="0.9"/>
          <circle cx="129.3" cy="57.23" r="0.9"/>
          <circle cx="143.16" cy="55.48" r="0.9"/>
          <circle cx="70.25" cy="50.23" r="0.9"/>
          <circle cx="44.12" cy="50.25" r="0.9"/>
          <circle cx="110.01" cy="56.64" r="0.9"/>
          <circle cx="135.48" cy="57.41" r="0.9"/>
          <circle cx="94.67" cy="54.45" r="0.9"/>
          <circle cx="86.29" cy="51.37" r="0.9"/>
          <circle cx="79.37" cy="53.24" r="0.9"/>
          <circle cx="92.56" cy="48.99" r="0.9"/>
          <circle cx="76.09" cy="43.81" r="0.9"/>
          <circle cx="112.6" cy="55.14" r="0.9"/>
          <circle cx="111.18" cy="56.51" r="0.9"/>
          <circle cx="99.93" cy="38.64" r="0.9"/>
          <circle cx="98.18" cy="45.03" r="0.9"/>
          <circle cx="94.51" cy="54.9" r="0.9"/>
          <circle cx="83.46" cy="49.49" r="0.9"/>
          <circle cx="59.36" cy="51.3" r="0.9"/>
          <circle cx="72.98" cy="45.65" r="0.9"/>
          <circle cx="83.23" cy="46.15" r="0.9"/>
          <circle cx="114.88" cy="49.46" r="0.9"/>
          <circle cx="102.53" cy="55.84" r="0.9"/>
          <circle cx="140.59" cy="54.14" r="0.9"/>
          <circle cx="100.48" cy="55.11" r="0.9"/>
          <circle cx="114.65" cy="57.91" r="0.9"/>
          <circle cx="75.79" cy="44.01" r="0.9"/>
          <circle cx="96.09" cy="50.26" r="0.9"/>
          <circle cx="72.98" cy="50.25" r="0.9"/>
          <circle cx="138.77" cy="52.19" r="0.9"/>
          <circle cx="138.77" cy="52.19" r="0.9"/>
          <circle cx="73.38" cy="41.06" r="0.9"/>
          <circle cx="133.56" cy="55.89" r="0.9"/>
          <circle cx="67.88" cy="45.36" r="0.9"/>
          <circle cx="76.34" cy="31.79" r="0.9"/>
          <circle cx="70.26" cy="42.57" r="0.9"/>
          <circle cx="80.08" cy="50.09" r="0.9"/>
          <circle cx="71.14" cy="48.65" r="0.9"/>
          <circle cx="88.16" cy="48.96" r="0.9"/>
          <circle cx="70.25" cy="48.4" r="0.9"/>
          <circle cx="117.98" cy="55.31" r="0.9"/>
          <circle cx="73.86" cy="50.14" r="0.9"/>
          <circle cx="107.41" cy="56.4" r="0.9"/>
          <circle cx="94.88" cy="46.3" r="0.9"/>
          <circle cx="70.25" cy="41.77" r="0.9"/>
          <circle cx="88.16" cy="49.93" r="0.9"/>
          <circle cx="77.85" cy="40.56" r="0.9"/>
          <circle cx="79.37" cy="49.24" r="0.9"/>
          <circle cx="91.89" cy="43.8" r="0.9"/>
          <circle cx="80.08" cy="47.14" r="0.9"/>
          <circle cx="77.85" cy="47.7" r="0.9"/>
          <circle cx="93.81" cy="48.42" r="0.9"/>
          <circle cx="88.16" cy="47.61" r="0.9"/>
          <circle cx="143.23" cy="58.72" r="0.9"/>
          <circle cx="51.36" cy="19.22" r="0.9"/>
          <circle cx="88.16" cy="39.05" r="0.9"/>
          <circle cx="81.15" cy="36.72" r="0.9"/>
          <circle cx="49.36" cy="39.86" r="0.9"/>
          <circle cx="72.98" cy="43.41" r="0.9"/>
          <circle cx="91.93" cy="46.9" r="0.9"/>
          <circle cx="49.36" cy="37.64" r="0.9"/>
          <circle cx="49.36" cy="29.2" r="0.9"/>
          <circle cx="127.33" cy="56.64" r="0.9"/>
          <circle cx="136.19" cy="56.57" r="0.9"/>
          <circle cx="75.79" cy="36.22" r="0.9"/>
          <circle cx="104.23" cy="54.63" r="0.9"/>
          <circle cx="49.36" cy="40.46" r="0.9"/>
          <circle cx="86.4" cy="43.21" r="0.9"/>
          <circle cx="84.8" cy="48.12" r="0.9"/>
          <circle cx="103.88" cy="55.88" r="0.9"/>
          <circle cx="72.98" cy="49.87" r="0.9"/>
          <circle cx="77.35" cy="38.7" r="0.9"/>
          <circle cx="93.02" cy="51.38" r="0.9"/>
          <circle cx="87.74" cy="47.34" r="0.9"/>
          <circle cx="107.8" cy="56.62" r="0.9"/>
          <circle cx="113.38" cy="56.94" r="0.9"/>
          <circle cx="44.12" cy="48.91" r="0.9"/>
          <circle cx="80.08" cy="47.82" r="0.9"/>
          <circle cx="104.85" cy="50.28" r="0.9"/>
          <circle cx="113.68" cy="57.4" r="0.9"/>
          <circle cx="65.89" cy="35.78" r="0.9"/>
          <circle cx="67.8" cy="24.68" r="0.9"/>
          <circle cx="77.85" cy="44.98" r="0.9"/>
          <circle cx="82.27" cy="42.34" r="0.9"/>
          <circle cx="142.14" cy="58.72" r="0.9"/>
          <circle cx="105.34" cy="54.47" r="0.9"/>
          <circle cx="91.92" cy="54.6" r="0.9"/>
          <circle cx="102.88" cy="53.54" r="0.9"/>
          <circle cx="94.18" cy="43.19" r="0.9"/>
          <circle cx="70.25" cy="48.84" r="0.9"/>
          <circle cx="98.1" cy="46.24" r="0.9"/>
          <circle cx="108.59" cy="55.96" r="0.9"/>
          <circle cx="90.38" cy="46.95" r="0.9"/>
          <circle cx="88.16" cy="46.03" r="0.9"/>
          <circle cx="106.17" cy="53.42" r="0.9"/>
          <circle cx="108.17" cy="56.35" r="0.9"/>
          <circle cx="92.43" cy="47.62" r="0.9"/>
          <circle cx="70.25" cy="46.61" r="0.9"/>
          <circle cx="112.62" cy="56.58" r="0.9"/>
          <circle cx="92.28" cy="48.46" r="0.9"/>
          <circle cx="80.08" cy="43.58" r="0.9"/>
          <circle cx="94.9" cy="49.7" r="0.9"/>
          <circle cx="65.89" cy="43.34" r="0.9"/>
          <circle cx="119.2" cy="57.84" r="0.9"/>
          <circle cx="100.41" cy="54.62" r="0.9"/>
          <circle cx="83.29" cy="38.68" r="0.9"/>
          <circle cx="70.25" cy="51.49" r="0.9"/>
          <circle cx="127.84" cy="57.47" r="0.9"/>
          <circle cx="115.85" cy="56.53" r="0.9"/>
          <circle cx="83.29" cy="46.23" r="0.9"/>
          <circle cx="106.16" cy="54.95" r="0.9"/>
          <circle cx="77.85" cy="47.29" r="0.9"/>
          <circle cx="88.16" cy="50.06" r="0.9"/>
          <circle cx="98.18" cy="26.44" r="0.9"/>
          <circle cx="96.26" cy="47.59" r="0.9"/>
          <circle cx="76.09" cy="32.26" r="0.9"/>
          <circle cx="104.27" cy="52.95" r="0.9"/>
          <circle cx="98.18" cy="45.98" r="0.9"/>
          <circle cx="77.85" cy="46.66" r="0.9"/>
          <circle cx="70.25" cy="33.47" r="0.9"/>
          <circle cx="65.89" cy="44.78" r="0.9"/>
          <circle cx="83.29" cy="40.37" r="0.9"/>
          <circle cx="124.71" cy="55.61" r="0.9"/>
          <circle cx="87.51" cy="51.3" r="0.9"/>
          <circle cx="77.85" cy="47.8" r="0.9"/>
          <circle cx="88.16" cy="50.06" r="0.9"/>
          <circle cx="93.09" cy="53.49" r="0.9"/>
          <circle cx="82.96" cy="32.64" r="0.9"/>
          <circle cx="80.08" cy="49" r="0.9"/>
          <circle cx="102.14" cy="50.83" r="0.9"/>
          <circle cx="83.49" cy="47.02" r="0.9"/>
          <circle cx="83.29" cy="49.51" r="0.9"/>
          <circle cx="88.16" cy="50.8" r="0.9"/>
          <circle cx="51.39" cy="11.84" r="0.9"/>
          <circle cx="87" cy="48.69" r="0.9"/>
          <circle cx="72.98" cy="51.82" r="0.9"/>
          <circle cx="125.67" cy="57.82" r="0.9"/>
          <circle cx="76.39" cy="35.19" r="0.9"/>
          <circle cx="77.85" cy="49.98" r="0.9"/>
          <circle cx="70.26" cy="42.52" r="0.9"/>
          <circle cx="126.32" cy="57.89" r="0.9"/>
          <circle cx="72.98" cy="30.92" r="0.9"/>
          <circle cx="49.36" cy="48.51" r="0.9"/>
          <circle cx="76.36" cy="48.89" r="0.9"/>
          <circle cx="77.85" cy="49.41" r="0.9"/>
          <circle cx="80.08" cy="48.52" r="0.9"/>
          <circle cx="82.58" cy="46.61" r="0.9"/>
          <circle cx="83.29" cy="50.7" r="0.9"/>
          <circle cx="92.49" cy="52.85" r="0.9"/>
          <circle cx="124.75" cy="57.68" r="0.9"/>
          <circle cx="83.33" cy="47.79" r="0.9"/>
          <circle cx="83.29" cy="48.36" r="0.9"/>
          <circle cx="86.57" cy="40.69" r="0.9"/>
          <circle cx="96.68" cy="44.68" r="0.9"/>
          <circle cx="95.09" cy="53.01" r="0.9"/>
          <circle cx="135.43" cy="57.85" r="0.9"/>
          <circle cx="101.15" cy="51.94" r="0.9"/>
          <circle cx="83.29" cy="46.44" r="0.9"/>
          <circle cx="80.08" cy="40.99" r="0.9"/>
          <circle cx="82.74" cy="50.65" r="0.9"/>
          <circle cx="82.96" cy="46.15" r="0.9"/>
          <circle cx="122.26" cy="57.88" r="0.9"/>
          <circle cx="65.89" cy="50.34" r="0.9"/>
          <circle cx="122.73" cy="56.92" r="0.9"/>
          <circle cx="88.16" cy="54.47" r="0.9"/>
          <circle cx="109.13" cy="56.54" r="0.9"/>
          <circle cx="105" cy="55.06" r="0.9"/>
          <circle cx="44.12" cy="47.6" r="0.9"/>
          <circle cx="88.16" cy="46.51" r="0.9"/>
          <circle cx="80.79" cy="47.63" r="0.9"/>
          <circle cx="96.06" cy="48.42" r="0.9"/>
          <circle cx="77.85" cy="48.59" r="0.9"/>
          <circle cx="70.26" cy="41.16" r="0.9"/>
          <circle cx="83.33" cy="48.56" r="0.9"/>
          <circle cx="103.65" cy="49.33" r="0.9"/>
          <circle cx="105.27" cy="56.67" r="0.9"/>
          <circle cx="74.34" cy="50.13" r="0.9"/>
          <circle cx="91.06" cy="47.4" r="0.9"/>
          <circle cx="122.35" cy="57.12" r="0.9"/>
          <circle cx="127.34" cy="58.17" r="0.9"/>
          <circle cx="83.33" cy="35.3" r="0.9"/>
          <circle cx="83.33" cy="47.05" r="0.9"/>
          <circle cx="49.88" cy="42.57" r="0.9"/>
          <circle cx="77.85" cy="48.89" r="0.9"/>
          <circle cx="26.68" cy="48.31" r="0.9"/>
          <circle cx="91.46" cy="45.54" r="0.9"/>
          <circle cx="100.47" cy="55.15" r="0.9"/>
          <circle cx="113.42" cy="57.47" r="0.9"/>
          <circle cx="49.36" cy="32.74" r="0.9"/>
          <circle cx="81.15" cy="41.98" r="0.9"/>
          <circle cx="124.15" cy="56.34" r="0.9"/>
          <circle cx="51.36" cy="45.6" r="0.9"/>
          <circle cx="73.38" cy="48.78" r="0.9"/>
          <circle cx="92.15" cy="50.42" r="0.9"/>
          <circle cx="70.25" cy="45.44" r="0.9"/>
          <circle cx="76.39" cy="38.19" r="0.9"/>
          <circle cx="123.7" cy="57.46" r="0.9"/>
          <circle cx="115.58" cy="57.57" r="0.9"/>
          <circle cx="78.36" cy="41.7" r="0.9"/>
          <circle cx="59.36" cy="49.33" r="0.9"/>
          <circle cx="88.66" cy="52.97" r="0.9"/>
          <circle cx="91.04" cy="50.77" r="0.9"/>
          <circle cx="135.1" cy="56.42" r="0.9"/>
          <circle cx="101.35" cy="56.31" r="0.9"/>
          <circle cx="104.45" cy="56.71" r="0.9"/>
          <circle cx="112.85" cy="57.5" r="0.9"/>
          <circle cx="88.16" cy="47.48" r="0.9"/>
          <circle cx="137.96" cy="56.54" r="0.9"/>
        </g>
      </g>
    </g>
  </g>
  <g class="guide ylabels" font-size="2.82" font-family="'PT Sans Caption','Helvetica Neue','Helvetica',sans-serif" fill="#6C606B" id="fig-fd573ec6ded04d2ba162638f7426a486-element-12">
    <text x="19.31" y="58.72" text-anchor="end" dy="0.35em">0.00</text>
    <text x="19.31" y="48.37" text-anchor="end" dy="0.35em">0.05</text>
    <text x="19.31" y="38.03" text-anchor="end" dy="0.35em">0.10</text>
    <text x="19.31" y="27.69" text-anchor="end" dy="0.35em">0.15</text>
    <text x="19.31" y="17.34" text-anchor="end" dy="0.35em">0.20</text>
    <text x="19.31" y="7" text-anchor="end" dy="0.35em">0.25</text>
  </g>
  <g font-size="3.88" font-family="'PT Sans','Helvetica Neue','Helvetica',sans-serif" fill="#564A55" stroke="#000000" stroke-opacity="0.000" id="fig-fd573ec6ded04d2ba162638f7426a486-element-13">
    <text x="8.81" y="30.86" text-anchor="middle" dy="0.35em" transform="rotate(-90, 8.81, 32.86)">zero return frequency</text>
  </g>
</g>
<defs>
<clipPath id="fig-fd573ec6ded04d2ba162638f7426a486-element-5">
  <path d="M20.31,5 L 155 5 155 60.72 20.31 60.72" />
</clipPath
></defs>
</svg>
