<?xml version="1.0" encoding="UTF-8"?>
<svg xmlns="http://www.w3.org/2000/svg"
     xmlns:xlink="http://www.w3.org/1999/xlink"
     xmlns:gadfly="http://www.gadflyjl.org/ns"
     version="1.2"
     width="160mm" height="80mm" viewBox="0 0 160 80"
     stroke="none"
     fill="#000000"
     stroke-width="0.3"
     font-size="3.88"
>
<g class="plotroot xscalable yscalable" id="fig-444bf9d3b0bb451085c891bf95402bfa-element-1">
  <g font-size="3.88" font-family="'PT Sans','Helvetica Neue','Helvetica',sans-serif" fill="#564A55" stroke="#000000" stroke-opacity="0.000" id="fig-444bf9d3b0bb451085c891bf95402bfa-element-2">
    <text x="86.48" y="72" text-anchor="middle"># zero returns</text>
  </g>
  <g class="guide xlabels" font-size="2.82" font-family="'PT Sans Caption','Helvetica Neue','Helvetica',sans-serif" fill="#6C606B" id="fig-444bf9d3b0bb451085c891bf95402bfa-element-3">
    <text x="19.96" y="64.39" text-anchor="middle">0.00</text>
    <text x="46.57" y="64.39" text-anchor="middle">0.05</text>
    <text x="73.18" y="64.39" text-anchor="middle">0.10</text>
    <text x="99.78" y="64.39" text-anchor="middle">0.15</text>
    <text x="126.39" y="64.39" text-anchor="middle">0.20</text>
    <text x="153" y="64.39" text-anchor="middle">0.25</text>
  </g>
  <g clip-path="url(#fig-444bf9d3b0bb451085c891bf95402bfa-element-5)" id="fig-444bf9d3b0bb451085c891bf95402bfa-element-4">
    <g pointer-events="visible" opacity="1" fill="#000000" fill-opacity="0.000" stroke="#000000" stroke-opacity="0.000" class="guide background" id="fig-444bf9d3b0bb451085c891bf95402bfa-element-6">
      <rect x="17.96" y="5" width="137.04" height="55.72"/>
    </g>
    <g class="guide ygridlines xfixed" stroke-dasharray="0.5,0.5" stroke-width="0.2" stroke="#D0D0E0" id="fig-444bf9d3b0bb451085c891bf95402bfa-element-7">
      <path fill="none" d="M17.96,58.72 L 155 58.72"/>
      <path fill="none" d="M17.96,50.1 L 155 50.1"/>
      <path fill="none" d="M17.96,41.48 L 155 41.48"/>
      <path fill="none" d="M17.96,32.86 L 155 32.86"/>
      <path fill="none" d="M17.96,24.24 L 155 24.24"/>
      <path fill="none" d="M17.96,15.62 L 155 15.62"/>
      <path fill="none" d="M17.96,7 L 155 7"/>
    </g>
    <g class="guide xgridlines yfixed" stroke-dasharray="0.5,0.5" stroke-width="0.2" stroke="#D0D0E0" id="fig-444bf9d3b0bb451085c891bf95402bfa-element-8">
      <path fill="none" d="M19.96,5 L 19.96 60.72"/>
      <path fill="none" d="M46.57,5 L 46.57 60.72"/>
      <path fill="none" d="M73.18,5 L 73.18 60.72"/>
      <path fill="none" d="M99.78,5 L 99.78 60.72"/>
      <path fill="none" d="M126.39,5 L 126.39 60.72"/>
      <path fill="none" d="M153,5 L 153 60.72"/>
    </g>
    <g class="plotpanel" id="fig-444bf9d3b0bb451085c891bf95402bfa-element-9">
      <g shape-rendering="crispEdges" stroke-width="0.3" id="fig-444bf9d3b0bb451085c891bf95402bfa-element-10">
        <g stroke="#000000" stroke-opacity="0.000" fill="#00BFFF" class="geometry" id="fig-444bf9d3b0bb451085c891bf95402bfa-element-11">
          <rect x="20.11" y="25.96" width="2.99" height="32.75"/>
          <rect x="23.4" y="8.72" width="2.99" height="49.99"/>
          <rect x="26.69" y="37.17" width="2.99" height="21.55"/>
          <rect x="29.98" y="44.06" width="2.99" height="14.65"/>
          <rect x="33.28" y="38.89" width="2.99" height="19.82"/>
          <rect x="36.57" y="38.03" width="2.99" height="20.69"/>
          <rect x="39.86" y="17.34" width="2.99" height="41.37"/>
          <rect x="43.15" y="14.76" width="2.99" height="43.96"/>
          <rect x="46.45" y="15.62" width="2.99" height="43.1"/>
          <rect x="49.74" y="19.07" width="2.99" height="39.65"/>
          <rect x="53.03" y="32" width="2.99" height="26.72"/>
          <rect x="56.32" y="46.65" width="2.99" height="12.07"/>
          <rect x="59.61" y="45.79" width="2.99" height="12.93"/>
          <rect x="62.91" y="44.06" width="2.99" height="14.65"/>
          <rect x="66.2" y="49.23" width="2.99" height="9.48"/>
          <rect x="69.49" y="54.41" width="2.99" height="4.31"/>
          <rect x="72.78" y="55.27" width="2.99" height="3.45"/>
          <rect x="76.07" y="53.54" width="2.99" height="5.17"/>
          <rect x="79.37" y="56.13" width="2.99" height="2.59"/>
          <rect x="82.66" y="57.85" width="2.99" height="0.86"/>
          <rect x="85.95" y="54.41" width="2.99" height="4.31"/>
          <rect x="89.24" y="56.13" width="2.99" height="2.59"/>
          <rect x="92.54" y="57.85" width="2.99" height="0.86"/>
          <rect x="95.83" y="57.85" width="2.99" height="0.86"/>
          <rect x="99.12" y="57.85" width="2.99" height="0.86"/>
          <rect x="102.41" y="57.85" width="2.99" height="0.86"/>
          <rect x="105.7" y="56.99" width="2.99" height="1.72"/>
          <rect x="109" y="58.72" width="2.99" height="0.01"/>
          <rect x="112.29" y="57.85" width="2.99" height="0.86"/>
          <rect x="115.58" y="58.72" width="2.99" height="0.01"/>
          <rect x="118.87" y="57.85" width="2.99" height="0.86"/>
          <rect x="122.16" y="58.72" width="2.99" height="0.01"/>
          <rect x="125.46" y="58.72" width="2.99" height="0.01"/>
          <rect x="128.75" y="58.72" width="2.99" height="0.01"/>
          <rect x="132.04" y="58.72" width="2.99" height="0.01"/>
          <rect x="135.33" y="58.72" width="2.99" height="0.01"/>
          <rect x="138.63" y="57.85" width="2.99" height="0.86"/>
          <rect x="141.92" y="58.72" width="2.99" height="0.01"/>
          <rect x="145.21" y="58.72" width="2.99" height="0.01"/>
          <rect x="148.5" y="57.85" width="2.99" height="0.86"/>
        </g>
      </g>
    </g>
  </g>
  <g class="guide ylabels" font-size="2.82" font-family="'PT Sans Caption','Helvetica Neue','Helvetica',sans-serif" fill="#6C606B" id="fig-444bf9d3b0bb451085c891bf95402bfa-element-12">
    <text x="16.96" y="58.72" text-anchor="end" dy="0.35em">0</text>
    <text x="16.96" y="50.1" text-anchor="end" dy="0.35em">10</text>
    <text x="16.96" y="41.48" text-anchor="end" dy="0.35em">20</text>
    <text x="16.96" y="32.86" text-anchor="end" dy="0.35em">30</text>
    <text x="16.96" y="24.24" text-anchor="end" dy="0.35em">40</text>
    <text x="16.96" y="15.62" text-anchor="end" dy="0.35em">50</text>
    <text x="16.96" y="7" text-anchor="end" dy="0.35em">60</text>
  </g>
  <g font-size="3.88" font-family="'PT Sans','Helvetica Neue','Helvetica',sans-serif" fill="#564A55" stroke="#000000" stroke-opacity="0.000" id="fig-444bf9d3b0bb451085c891bf95402bfa-element-13">
    <text x="8.81" y="30.86" text-anchor="middle" dy="0.35em" transform="rotate(-90, 8.81, 32.86)"># assets</text>
  </g>
</g>
<defs>
<clipPath id="fig-444bf9d3b0bb451085c891bf95402bfa-element-5">
  <path d="M17.96,5 L 155 5 155 60.72 17.96 60.72" />
</clipPath
></defs>
</svg>
